# This file was created with Minddesk Qubicle 3.0
# Get Qubicle at www.getqubicle.com

mtllib 6x6.mtl

vn 0.0 0.0 1.0
vn 0.0 0.0 -1.0
vn -1.0 0.0 0.0
vn 1.0 0.0 0.0
vn 0.0 1.0 0.0
vn 0.0 -1.0 0.0

v 6.00000 6.00000 0.00000
v 6.00000 0.00000 0.00000
v 0.00000 0.00000 0.00000
v 0.00000 6.00000 0.00000
v 5.00000 6.00000 5.00000
v 5.00000 1.00000 5.00000
v 1.00000 1.00000 5.00000
v 1.00000 6.00000 5.00000
v 0.00000 6.00000 6.00000
v 0.00000 0.00000 6.00000
v 6.00000 0.00000 6.00000
v 6.00000 6.00000 6.00000
v 1.00000 6.00000 1.00000
v 1.00000 1.00000 1.00000
v 5.00000 1.00000 1.00000
v 5.00000 6.00000 1.00000
v 0.00000 6.00000 1.00000
v 0.00000 6.00000 5.00000
v 6.00000 6.00000 5.00000
v 6.00000 6.00000 1.00000

vt 0.03125 0.21875
vt 0.03125 0.03125
vt 0.21875 0.03125
vt 0.21875 0.21875
vt 0.28125 0.21875
vt 0.28125 0.03125
vt 0.46875 0.03125
vt 0.46875 0.21875
vt 0.53125 0.21875
vt 0.53125 0.03125
vt 0.71875 0.03125
vt 0.71875 0.21875
vt 0.78125 0.21875
vt 0.78125 0.03125
vt 0.96875 0.03125
vt 0.96875 0.21875
vt 0.03125 0.46875
vt 0.03125 0.28125
vt 0.21875 0.28125
vt 0.21875 0.46875
vt 0.28125 0.43750
vt 0.28125 0.28125
vt 0.40625 0.28125
vt 0.40625 0.43750
vt 0.46875 0.43750
vt 0.46875 0.28125
vt 0.59375 0.28125
vt 0.59375 0.43750
vt 0.65625 0.43750
vt 0.65625 0.28125
vt 0.78125 0.28125
vt 0.78125 0.43750
vt 0.84375 0.43750
vt 0.84375 0.28125
vt 0.96875 0.28125
vt 0.96875 0.43750
vt 0.03125 0.65625
vt 0.03125 0.53125
vt 0.15625 0.53125
vt 0.15625 0.65625
vt 0.21875 0.65625
vt 0.21875 0.53125
vt 0.25000 0.53125
vt 0.25000 0.65625
vt 0.31250 0.65625
vt 0.31250 0.53125
vt 0.34375 0.53125
vt 0.34375 0.65625
vt 0.40625 0.56250
vt 0.40625 0.53125
vt 0.59375 0.53125
vt 0.59375 0.56250
vt 0.65625 0.56250
vt 0.65625 0.53125
vt 0.84375 0.53125
vt 0.84375 0.56250

g 4x4
usemtl 6x6_Material
f 1/9/2 2/10/2 3/11/2 4/12/2
f 5/25/2 6/26/2 7/27/2 8/28/2
f 9/13/1 10/14/1 11/15/1 12/16/1
f 13/29/1 14/30/1 15/31/1 16/32/1
f 4/1/3 3/2/3 10/3/3 9/4/3
f 16/21/3 15/22/3 6/23/3 5/24/3
f 12/5/4 11/6/4 2/7/4 1/8/4
f 8/33/4 7/34/4 14/35/4 13/36/4
f 14/37/5 7/38/5 6/39/5 15/40/5
f 17/41/5 18/42/5 8/43/5 13/44/5
f 16/45/5 5/46/5 19/47/5 20/48/5
f 4/49/5 17/50/5 20/51/5 1/52/5
f 18/53/5 9/54/5 12/55/5 19/56/5
f 10/17/6 3/18/6 2/19/6 11/20/6
