# This file was created with Minddesk Qubicle 3.0
# Get Qubicle at www.getqubicle.com

mtllib pattern_2x2.mtl

vn 0.0 0.0 1.0
vn 0.0 0.0 -1.0
vn -1.0 0.0 0.0
vn 1.0 0.0 0.0
vn 0.0 1.0 0.0
vn 0.0 -1.0 0.0

v 1.00000 1.00000 -1.00000
v 1.00000 -1.00000 -1.00000
v -1.00000 -1.00000 -1.00000
v -1.00000 1.00000 -1.00000
v -1.00000 0.00000 1.00000
v -1.00000 -1.00000 1.00000
v 1.00000 -1.00000 1.00000
v 1.00000 0.00000 1.00000
v -1.00000 1.00000 0.00000
v -1.00000 0.00000 0.00000
v 0.00000 0.00000 0.00000
v 0.00000 1.00000 0.00000
v 0.00000 1.00000 1.00000
v 0.00000 0.00000 1.00000
v 1.00000 1.00000 1.00000
v -1.00000 0.00000 -1.00000
v 1.00000 1.00000 0.00000

vt 0.06250 0.18750
vt 0.06250 0.06250
vt 0.18750 0.06250
vt 0.18750 0.18750
vt 0.31250 0.18750
vt 0.31250 0.06250
vt 0.43750 0.06250
vt 0.43750 0.18750
vt 0.56250 0.18750
vt 0.56250 0.06250
vt 0.68750 0.06250
vt 0.68750 0.18750
vt 0.81250 0.12500
vt 0.81250 0.06250
vt 0.93750 0.06250
vt 0.93750 0.12500
vt 0.06250 0.37500
vt 0.06250 0.31250
vt 0.18750 0.31250
vt 0.18750 0.37500
vt 0.31250 0.37500
vt 0.31250 0.31250
vt 0.43750 0.31250
vt 0.43750 0.37500
vt 0.56250 0.37500
vt 0.56250 0.31250
vt 0.62500 0.31250
vt 0.62500 0.37500
vt 0.75000 0.37500
vt 0.75000 0.31250
vt 0.81250 0.31250
vt 0.81250 0.37500
vt 0.06250 0.56250
vt 0.06250 0.50000
vt 0.12500 0.50000
vt 0.12500 0.56250
vt 0.25000 0.56250
vt 0.25000 0.50000
vt 0.31250 0.50000
vt 0.31250 0.56250
vt 0.43750 0.56250
vt 0.43750 0.50000
vt 0.50000 0.50000
vt 0.50000 0.56250
vt 0.62500 0.56250
vt 0.62500 0.50000
vt 0.68750 0.50000
vt 0.68750 0.56250
vt 0.43750 0.12500
vt 0.12500 0.37500
vt 0.87500 0.12500
vt 0.12500 0.18750
vt 0.06250 0.12500
vt 0.37500 0.31250

g pattern_2x2
usemtl pattern_2x2_Material
f 4/8/2 1/5/2 2/6/2
f 2/6/2 16/49/2 4/8/2
f 16/49/2 2/6/2 3/7/2
f 14/50/1 5/17/1 6/18/1
f 6/18/1 8/20/1 14/50/1
f 8/20/1 6/18/1 7/19/1
f 10/30/1 12/32/1 9/29/1
f 10/30/1 11/31/1 12/32/1
f 14/26/1 15/28/1 13/25/1
f 14/26/1 8/27/1 15/28/1
f 10/51/3 16/13/3 3/14/3
f 3/14/3 5/16/3 10/51/3
f 5/16/3 3/14/3 6/15/3
f 16/42/3 9/44/3 4/41/3
f 16/42/3 10/43/3 9/44/3
f 11/46/3 13/48/3 12/45/3
f 11/46/3 14/47/3 13/48/3
f 17/52/4 15/1/4 8/53/4
f 8/53/4 1/4/4 17/52/4
f 1/4/4 8/53/4 7/2/4
f 7/2/4 2/3/4 1/4/4
f 1/24/5 4/21/5 9/22/5
f 9/22/5 12/54/5 1/24/5
f 17/23/5 1/24/5 12/54/5
f 10/33/5 5/34/5 11/36/5
f 5/34/5 14/35/5 11/36/5
f 12/37/5 13/38/5 17/40/5
f 13/38/5 15/39/5 17/40/5
f 6/9/6 3/10/6 7/12/6
f 3/10/6 2/11/6 7/12/6
