# 3ds Max Wavefront OBJ Exporter v0.97b - (c)2007 guruware
# File Created: 08.02.2019 18:45:57

#
# object sculpture_back
#

v  4.0000 2.0000 -0.0000
v  4.0000 1.0000 -0.0000
v  0.0000 1.0000 -0.0000
v  3.0000 2.0000 -0.0000
v  0.0000 3.0000 -0.0000
v  2.0000 1.0000 -0.0000
v  2.0000 0.0000 -0.0000
v  1.0000 0.0000 -0.0000
v  1.0000 1.0000 -0.0000
v  3.0000 4.0000 -0.0000
v  2.0000 3.0000 -0.0000
v  2.0000 4.0000 -0.0000
v  0.0000 1.0000 1.0000
v  4.0000 1.0000 1.0000
v  4.0000 2.0000 1.0000
v  0.0000 3.0000 1.0000
v  3.0000 2.0000 1.0000
v  1.0000 1.0000 1.0000
v  1.0000 0.0000 1.0000
v  2.0000 0.0000 1.0000
v  2.0000 1.0000 1.0000
v  2.0000 4.0000 1.0000
v  2.0000 3.0000 1.0000
v  3.0000 4.0000 1.0000
v  2.0000 0.0000 1.0000
# 25 vertices

vn 0.0000 0.0000 -1.0000
vn 0.0000 0.0000 -1.0000
vn 0.0000 0.0000 -1.0000
vn 0.0000 0.0000 1.0000
vn 0.0000 0.0000 1.0000
vn 0.0000 0.0000 1.0000
vn -1.0000 0.0000 -0.0000
vn -1.0000 0.0000 -0.0000
vn -1.0000 0.0000 -0.0000
vn -1.0000 0.0000 -0.0000
vn -1.0000 0.0000 -0.0000
vn -1.0000 0.0000 -0.0000
vn -1.0000 0.0000 -0.0000
vn -1.0000 0.0000 -0.0000
vn -1.0000 0.0000 -0.0000
vn -1.0000 0.0000 -0.0000
vn -1.0000 0.0000 -0.0000
vn -1.0000 0.0000 -0.0000
vn -1.0000 0.0000 -0.0000
vn -1.0000 0.0000 -0.0000
vn -1.0000 0.0000 -0.0000
vn 1.0000 0.0000 -0.0000
vn 1.0000 0.0000 -0.0000
vn 1.0000 0.0000 -0.0000
vn 1.0000 0.0000 -0.0000
vn 1.0000 0.0000 -0.0000
vn 1.0000 0.0000 -0.0000
vn 1.0000 0.0000 -0.0000
vn 1.0000 0.0000 -0.0000
vn 1.0000 0.0000 -0.0000
vn 1.0000 0.0000 -0.0000
vn 1.0000 0.0000 -0.0000
vn 1.0000 0.0000 -0.0000
vn 1.0000 0.0000 -0.0000
vn 1.0000 0.0000 -0.0000
vn 1.0000 0.0000 -0.0000
vn 0.0000 1.0000 -0.0000
vn 0.0000 1.0000 -0.0000
vn 0.0000 1.0000 -0.0000
vn 0.0000 1.0000 -0.0000
vn 0.0000 1.0000 -0.0000
vn 0.0000 1.0000 -0.0000
vn 0.0000 1.0000 -0.0000
vn 0.0000 1.0000 -0.0000
vn 0.0000 1.0000 -0.0000
vn 0.0000 1.0000 -0.0000
vn 0.0000 1.0000 -0.0000
vn 0.0000 1.0000 -0.0000
vn 0.0000 1.0000 -0.0000
vn 0.0000 1.0000 -0.0000
vn 0.0000 1.0000 -0.0000
vn 0.0000 1.0000 -0.0000
vn 0.0000 1.0000 -0.0000
vn 0.0000 1.0000 -0.0000
vn 0.0000 -1.0000 -0.0000
vn 0.0000 -1.0000 -0.0000
vn 0.0000 -1.0000 -0.0000
vn 0.0000 -1.0000 -0.0000
vn 0.0000 -1.0000 -0.0000
vn 0.0000 -1.0000 -0.0000
vn 0.0000 -1.0000 -0.0000
vn 0.0000 -1.0000 -0.0000
vn 0.0000 -1.0000 -0.0000
vn 0.0000 -1.0000 -0.0000
vn 0.0000 -1.0000 -0.0000
vn 0.0000 -1.0000 -0.0000
vn 0.0000 -1.0000 -0.0000
vn 0.0000 -1.0000 -0.0000
vn 0.0000 -1.0000 -0.0000
vn 0.0000 -1.0000 -0.0000
vn 0.0000 -1.0000 -0.0000
vn 0.0000 -1.0000 -0.0000
vn 0.0000 0.0000 -1.0000
vn 0.0000 0.0000 -1.0000
vn 0.0000 0.0000 -1.0000
vn 0.0000 0.0000 -1.0000
vn 0.0000 0.0000 -1.0000
vn 0.0000 0.0000 -1.0000
vn 0.0000 0.0000 -1.0000
vn 0.0000 0.0000 -1.0000
vn 0.0000 0.0000 -1.0000
vn 0.0000 0.0000 -1.0000
vn 0.0000 0.0000 -1.0000
vn 0.0000 0.0000 -1.0000
vn 0.0000 0.0000 -1.0000
vn 0.0000 0.0000 -1.0000
vn 0.0000 0.0000 -1.0000
vn 0.0000 0.0000 -1.0000
vn 0.0000 0.0000 -1.0000
vn 0.0000 0.0000 -1.0000
vn 0.0000 0.0000 -1.0000
vn 0.0000 0.0000 -1.0000
vn 0.0000 0.0000 -1.0000
vn 0.0000 0.0000 -1.0000
vn 0.0000 0.0000 -1.0000
vn 0.0000 0.0000 -1.0000
vn 0.0000 0.0000 -1.0000
vn 0.0000 0.0000 -1.0000
vn 0.0000 0.0000 -1.0000
vn 0.0000 0.0000 1.0000
vn 0.0000 0.0000 1.0000
vn 0.0000 0.0000 1.0000
vn 0.0000 0.0000 1.0000
vn 0.0000 0.0000 1.0000
vn 0.0000 0.0000 1.0000
vn 0.0000 0.0000 1.0000
vn 0.0000 0.0000 1.0000
vn 0.0000 0.0000 1.0000
vn 0.0000 0.0000 1.0000
vn 0.0000 0.0000 1.0000
vn 0.0000 0.0000 1.0000
vn 0.0000 0.0000 1.0000
vn 0.0000 0.0000 1.0000
vn 0.0000 0.0000 1.0000
vn 0.0000 0.0000 1.0000
vn 0.0000 0.0000 1.0000
vn 0.0000 0.0000 1.0000
vn 0.0000 0.0000 1.0000
vn 0.0000 0.0000 1.0000
vn 0.0000 0.0000 1.0000
vn 1.0000 0.0000 -0.0000
vn 1.0000 0.0000 -0.0000
vn 1.0000 0.0000 -0.0000
vn -1.0000 0.0000 -0.0000
vn -1.0000 0.0000 -0.0000
vn -1.0000 0.0000 -0.0000
vn 0.0000 0.0000 1.0000
vn 0.0000 0.0000 1.0000
vn 0.0000 0.0000 1.0000
vn 0.0000 0.0000 1.0000
vn 0.0000 0.0000 1.0000
vn 0.0000 0.0000 1.0000
# 132 vertex normals

vt 0.5112 0.2532 0.0000
vt 0.5050 0.0031 0.0000
vt 0.6301 0.0000 0.0000
vt 0.6363 0.2501 0.0000
vt 0.6394 0.2494 0.0000
vt 0.6434 0.0000 0.0000
vt 0.7681 0.0020 0.0000
vt 0.7641 0.2514 0.0000
vt 0.0000 0.7462 0.0000
vt 0.0021 0.6214 0.0000
vt 0.5012 0.6299 0.0000
vt 0.0000 0.1270 0.0000
vt 0.5009 0.1235 0.0000
vt 0.5018 0.2487 0.0000
vt 0.6313 0.3762 0.0000
vt 0.6313 0.2514 0.0000
vt 0.8809 0.2514 0.0000
vt 0.8809 0.3762 0.0000
vt 0.3788 0.3782 0.0000
vt 0.3788 0.2532 0.0000
vt 0.6288 0.2532 0.0000
vt 0.6288 0.3782 0.0000
vt 0.6313 0.5013 0.0000
vt 0.6313 0.3762 0.0000
vt 0.7565 0.3762 0.0000
vt 0.7565 0.5013 0.0000
vt 0.4236 0.6285 0.0000
vt 0.4236 0.5035 0.0000
vt 0.5486 0.5035 0.0000
vt 0.5486 0.6285 0.0000
vt 0.5498 0.6280 0.0000
vt 0.5498 0.5034 0.0000
vt 0.6744 0.5034 0.0000
vt 0.6744 0.6280 0.0000
vt 0.7576 0.5007 0.0000
vt 0.7580 0.3762 0.0000
vt 0.8826 0.3766 0.0000
vt 0.8821 0.5012 0.0000
vt 0.0000 0.5022 0.0000
vt 0.0035 0.3774 0.0000
vt 0.1282 0.3809 0.0000
vt 0.1247 0.5057 0.0000
vt 0.5050 0.5030 0.0000
vt 0.5054 0.3782 0.0000
vt 0.6302 0.3786 0.0000
vt 0.6298 0.5034 0.0000
vt 0.7698 0.1251 0.0000
vt 0.7731 0.0000 0.0000
vt 0.8983 0.0034 0.0000
vt 0.8949 0.1285 0.0000
vt 0.3788 0.5030 0.0000
vt 0.3793 0.3782 0.0000
vt 0.5041 0.3788 0.0000
vt 0.5036 0.5035 0.0000
vt 0.1248 0.7483 0.0000
vt 0.2517 0.6257 0.0000
vt 0.3765 0.2496 0.0000
vt 0.1252 0.1261 0.0000
vt 0.2505 0.1252 0.0000
vt 0.4970 0.8795 0.0000
vt 0.2538 0.5009 0.0000
vt 0.3764 0.6278 0.0000
vt 0.2474 0.8752 0.0000
vt 0.2453 1.0000 0.0000
vt 0.1205 0.9979 0.0000
vt 0.3786 0.5030 0.0000
vt 0.3783 0.5000 0.0000
vt 0.2531 0.5009 0.0000
vt 0.2522 0.3757 0.0000
vt 0.0017 0.3774 0.0000
vt 0.2496 0.0000 0.0000
vt 0.1244 0.0009 0.0000
# 72 texture coords

o sculpture_back
g sculpture_back
f 11/63/1 12/64/2 10/65/3 
f 14/13/4 15/14/5 17/57/6 
f 16/8/7 3/6/8 13/7/9 
f 8/44/10 18/46/11 9/43/12 
f 8/44/13 19/45/14 18/46/15 
f 11/40/16 22/42/17 12/39/18 
f 11/40/19 23/41/20 22/42/21 
f 10/4/22 17/2/23 4/3/24 
f 20/52/25 6/54/26 21/51/27 
f 20/52/28 7/53/29 6/54/30 
f 14/48/31 1/50/32 15/47/33 
f 14/48/34 2/49/35 1/50/36 
f 5/19/37 16/20/38 11/22/39 
f 16/20/40 23/21/41 11/22/42 
f 12/35/43 22/36/44 10/38/45 
f 22/36/46 24/37/47 10/38/48 
f 4/31/49 17/32/50 1/34/51 
f 17/32/52 15/33/53 1/34/54 
f 21/15/55 6/16/56 14/18/57 
f 6/16/58 2/17/59 14/18/60 
f 13/27/61 3/28/62 18/30/63 
f 3/28/64 9/29/65 18/30/66 
f 19/23/67 8/24/68 20/26/69 
f 8/24/70 7/25/71 20/26/72 
f 4/55/73 1/9/74 2/10/75 
f 11/63/76 10/65/77 4/55/78 
f 6/56/79 8/66/80 9/62/81 
f 4/55/82 2/10/83 6/56/84 
f 6/56/85 7/61/86 8/66/87 
f 9/62/88 11/63/89 6/56/90 
f 11/63/91 4/55/92 6/56/93 
f 9/62/94 3/11/95 5/60/96 
f 5/60/97 11/63/98 9/62/99 
f 17/57/100 21/59/101 14/13/102 
f 24/67/103 22/68/104 23/69/105 
f 23/69/106 17/57/107 24/67/108 
f 23/69/109 21/59/110 17/57/111 
f 23/69/112 18/58/113 21/59/114 
f 16/70/115 13/12/116 18/58/117 
f 23/69/118 16/70/119 18/58/120 
f 10/4/121 24/1/122 17/2/123 
f 16/8/124 5/5/125 3/6/126 
f 18/58/127 19/72/128 25/71/129 
f 18/58/130 25/71/131 21/59/132 
# 0 polygons - 44 triangles

