# 3ds Max Wavefront OBJ Exporter v0.97b - (c)2007 guruware
# File Created: 08.02.2019 14:40:49

#
# object sculpture_center
#

v  3.0000 1.0000 1.0000
v  1.0000 3.0000 1.0000
v  3.0000 3.0000 1.0000
v  1.0000 1.0000 1.0000
v  1.0000 1.0000 3.0000
v  3.0000 3.0000 3.0000
v  1.0000 3.0000 3.0000
v  3.0000 1.0000 3.0000
# 8 vertices

vn 0.0000 0.0000 -1.0000
vn 0.0000 0.0000 -1.0000
vn 0.0000 0.0000 -1.0000
vn 0.0000 0.0000 -1.0000
vn 0.0000 0.0000 -1.0000
vn 0.0000 0.0000 -1.0000
vn 0.0000 0.0000 1.0000
vn 0.0000 0.0000 1.0000
vn 0.0000 0.0000 1.0000
vn 0.0000 0.0000 1.0000
vn 0.0000 0.0000 1.0000
vn 0.0000 0.0000 1.0000
vn -1.0000 0.0000 -0.0000
vn -1.0000 0.0000 -0.0000
vn -1.0000 0.0000 -0.0000
vn -1.0000 0.0000 -0.0000
vn -1.0000 0.0000 -0.0000
vn -1.0000 0.0000 -0.0000
vn 1.0000 0.0000 -0.0000
vn 1.0000 0.0000 -0.0000
vn 1.0000 0.0000 -0.0000
vn 1.0000 0.0000 -0.0000
vn 1.0000 0.0000 -0.0000
vn 1.0000 0.0000 -0.0000
vn 0.0000 1.0000 -0.0000
vn 0.0000 1.0000 -0.0000
vn 0.0000 1.0000 -0.0000
vn 0.0000 1.0000 -0.0000
vn 0.0000 1.0000 -0.0000
vn 0.0000 1.0000 -0.0000
vn 0.0000 -1.0000 -0.0000
vn 0.0000 -1.0000 -0.0000
vn 0.0000 -1.0000 -0.0000
vn 0.0000 -1.0000 -0.0000
vn 0.0000 -1.0000 -0.0000
vn 0.0000 -1.0000 -0.0000
# 36 vertex normals

vt 0.0020 0.3316 0.0000
vt 0.3316 0.0020 0.0000
vt 0.3316 0.3316 0.0000
vt 0.0020 0.0020 0.0000
vt 0.3316 0.9980 0.0000
vt 0.0020 0.6684 0.0000
vt 0.3316 0.6684 0.0000
vt 0.0020 0.9980 0.0000
vt 0.3316 0.6648 0.0000
vt 0.0020 0.3352 0.0000
vt 0.3316 0.3352 0.0000
vt 0.0020 0.6648 0.0000
vt 0.6689 0.3352 0.0000
vt 0.3392 0.6648 0.0000
vt 0.3392 0.3352 0.0000
vt 0.6689 0.6648 0.0000
vt 0.3392 0.9980 0.0000
vt 0.3392 0.6684 0.0000
vt 0.6689 0.9980 0.0000
vt 0.6689 0.6684 0.0000
vt 0.6689 0.3316 0.0000
vt 0.3392 0.3316 0.0000
vt 0.6689 0.0020 0.0000
vt 0.3392 0.0020 0.0000
# 24 texture coords

o sculpture_center
g sculpture_center
f 1/1/1 2/2/2 3/3/3 
f 1/1/4 4/4/5 2/2/6 
f 5/5/7 6/6/8 7/7/9 
f 5/5/10 8/8/11 6/6/12 
f 4/9/13 7/10/14 2/11/15 
f 4/9/16 5/12/17 7/10/18 
f 8/13/19 3/14/20 6/15/21 
f 8/13/22 1/16/23 3/14/24 
f 2/17/25 7/18/26 3/19/27 
f 7/18/28 6/20/29 3/19/30 
f 5/21/31 4/22/32 8/23/33 
f 4/22/34 1/24/35 8/23/36 
# 0 polygons - 12 triangles

