# 3ds Max Wavefront OBJ Exporter v0.97b - (c)2007 guruware
# File Created: 08.02.2019 14:40:51

#
# object sculpture_right
#

v  1.0000 4.0000 1.0000
v  1.0000 1.0000 1.0000
v  0.0000 1.0000 1.0000
v  0.0000 4.0000 1.0000
v  1.0000 1.0000 -0.0000
v  1.0000 0.0000 -0.0000
v  0.0000 0.0000 -0.0000
v  0.0000 1.0000 -0.0000
v  0.0000 1.0000 2.0000
v  0.0000 0.0000 2.0000
v  1.0000 0.0000 2.0000
v  1.0000 1.0000 2.0000
v  0.0000 4.0000 2.0000
v  0.0000 3.0000 2.0000
v  1.0000 3.0000 2.0000
v  1.0000 4.0000 2.0000
v  0.0000 2.0000 3.0000
v  0.0000 1.0000 3.0000
v  1.0000 1.0000 3.0000
v  1.0000 2.0000 3.0000
v  0.0000 3.0000 4.0000
v  0.0000 2.0000 4.0000
v  1.0000 2.0000 4.0000
v  1.0000 3.0000 4.0000
v  1.0000 1.0000 -0.0000
# 25 vertices

vn 0.0000 0.0000 -1.0000
vn 0.0000 0.0000 -1.0000
vn 0.0000 0.0000 -1.0000
vn 0.0000 0.0000 -1.0000
vn 0.0000 0.0000 -1.0000
vn 0.0000 0.0000 -1.0000
vn 0.0000 0.0000 -1.0000
vn 0.0000 0.0000 -1.0000
vn 0.0000 0.0000 -1.0000
vn 0.0000 0.0000 1.0000
vn 0.0000 0.0000 1.0000
vn 0.0000 0.0000 1.0000
vn 0.0000 0.0000 1.0000
vn 0.0000 0.0000 1.0000
vn 0.0000 0.0000 1.0000
vn 0.0000 0.0000 1.0000
vn 0.0000 0.0000 1.0000
vn 0.0000 0.0000 1.0000
vn 0.0000 0.0000 1.0000
vn 0.0000 0.0000 1.0000
vn 0.0000 0.0000 1.0000
vn 0.0000 0.0000 1.0000
vn 0.0000 0.0000 1.0000
vn 0.0000 0.0000 1.0000
vn 0.0000 0.0000 1.0000
vn 0.0000 0.0000 1.0000
vn 0.0000 0.0000 1.0000
vn 0.0000 0.0000 1.0000
vn 0.0000 0.0000 1.0000
vn 0.0000 0.0000 1.0000
vn 0.0000 0.0000 1.0000
vn 0.0000 0.0000 1.0000
vn 0.0000 0.0000 1.0000
vn -1.0000 0.0000 -0.0000
vn -1.0000 0.0000 -0.0000
vn -1.0000 0.0000 -0.0000
vn 1.0000 0.0000 -0.0000
vn 1.0000 0.0000 -0.0000
vn 1.0000 0.0000 -0.0000
vn 0.0000 1.0000 -0.0000
vn 0.0000 1.0000 -0.0000
vn 0.0000 1.0000 -0.0000
vn 0.0000 1.0000 -0.0000
vn 0.0000 1.0000 -0.0000
vn 0.0000 1.0000 -0.0000
vn 0.0000 1.0000 -0.0000
vn 0.0000 1.0000 -0.0000
vn 0.0000 1.0000 -0.0000
vn 0.0000 1.0000 -0.0000
vn 0.0000 1.0000 -0.0000
vn 0.0000 1.0000 -0.0000
vn 0.0000 1.0000 -0.0000
vn 0.0000 1.0000 -0.0000
vn 0.0000 1.0000 -0.0000
vn 0.0000 1.0000 -0.0000
vn 0.0000 1.0000 -0.0000
vn 0.0000 1.0000 -0.0000
vn 0.0000 -1.0000 -0.0000
vn 0.0000 -1.0000 -0.0000
vn 0.0000 -1.0000 -0.0000
vn 0.0000 -1.0000 -0.0000
vn 0.0000 -1.0000 -0.0000
vn 0.0000 -1.0000 -0.0000
vn 0.0000 -1.0000 -0.0000
vn 0.0000 -1.0000 -0.0000
vn 0.0000 -1.0000 -0.0000
vn 0.0000 -1.0000 -0.0000
vn 0.0000 -1.0000 -0.0000
vn 0.0000 -1.0000 -0.0000
vn 0.0000 -1.0000 -0.0000
vn 0.0000 -1.0000 -0.0000
vn 0.0000 -1.0000 -0.0000
vn 0.0000 -1.0000 -0.0000
vn 0.0000 -1.0000 -0.0000
vn 0.0000 -1.0000 -0.0000
vn -1.0000 0.0000 -0.0000
vn -1.0000 0.0000 -0.0000
vn -1.0000 0.0000 -0.0000
vn -1.0000 0.0000 -0.0000
vn -1.0000 0.0000 -0.0000
vn -1.0000 0.0000 -0.0000
vn -1.0000 0.0000 -0.0000
vn -1.0000 0.0000 -0.0000
vn -1.0000 0.0000 -0.0000
vn -1.0000 0.0000 -0.0000
vn -1.0000 0.0000 -0.0000
vn -1.0000 0.0000 -0.0000
vn -1.0000 0.0000 -0.0000
vn -1.0000 0.0000 -0.0000
vn -1.0000 0.0000 -0.0000
vn -1.0000 0.0000 -0.0000
vn -1.0000 0.0000 -0.0000
vn -1.0000 0.0000 -0.0000
vn -1.0000 0.0000 -0.0000
vn -1.0000 0.0000 -0.0000
vn -1.0000 0.0000 -0.0000
vn 1.0000 0.0000 -0.0000
vn 1.0000 0.0000 -0.0000
vn 1.0000 0.0000 -0.0000
vn 1.0000 0.0000 -0.0000
vn 1.0000 0.0000 -0.0000
vn 1.0000 0.0000 -0.0000
vn 1.0000 0.0000 -0.0000
vn 1.0000 0.0000 -0.0000
vn 1.0000 0.0000 -0.0000
vn 1.0000 0.0000 -0.0000
vn 1.0000 0.0000 -0.0000
vn 1.0000 0.0000 -0.0000
vn 1.0000 0.0000 -0.0000
vn 1.0000 0.0000 -0.0000
vn 1.0000 0.0000 -0.0000
vn 1.0000 0.0000 -0.0000
vn 1.0000 0.0000 -0.0000
vn 1.0000 0.0000 -0.0000
vn 1.0000 0.0000 -0.0000
vn 1.0000 0.0000 -0.0000
vn 1.0000 0.0000 -0.0000
vn 1.0000 0.0000 -0.0000
vn 1.0000 0.0000 -0.0000
vn 1.0000 0.0000 -0.0000
vn 0.0000 0.0000 -1.0000
vn 0.0000 0.0000 -1.0000
vn 0.0000 0.0000 -1.0000
vn 1.0000 0.0000 -0.0000
vn 1.0000 0.0000 -0.0000
vn 1.0000 0.0000 -0.0000
vn -1.0000 0.0000 -0.0000
vn -1.0000 0.0000 -0.0000
vn -1.0000 0.0000 -0.0000
vn -1.0000 0.0000 -0.0000
vn -1.0000 0.0000 -0.0000
vn -1.0000 0.0000 -0.0000
# 132 vertex normals

vt 0.0000 0.8577 0.0000
vt 0.0000 0.4306 0.0000
vt 0.1424 0.4306 0.0000
vt 0.1424 0.8577 0.0000
vt 0.2918 0.5730 0.0000
vt 0.2918 0.8577 0.0000
vt 0.1494 0.8577 0.0000
vt 0.1494 0.5730 0.0000
vt 0.4348 0.7094 0.0000
vt 0.4348 0.4247 0.0000
vt 0.5771 0.4247 0.0000
vt 0.5771 0.7094 0.0000
vt 0.0000 0.4271 0.0000
vt 0.0000 0.2847 0.0000
vt 0.2989 1.0000 0.0000
vt 0.5721 0.4212 0.0000
vt 0.5723 0.2836 0.0000
vt 0.5907 0.8553 0.0000
vt 0.4483 0.8553 0.0000
vt 0.4483 0.7130 0.0000
vt 0.5907 0.7130 0.0000
vt 0.2989 0.7130 0.0000
vt 0.4413 0.7130 0.0000
vt 0.4413 0.8553 0.0000
vt 0.2989 0.8553 0.0000
vt 0.7401 0.7085 0.0000
vt 0.7401 0.8509 0.0000
vt 0.5978 0.8509 0.0000
vt 0.5978 0.7085 0.0000
vt 0.8896 0.8544 0.0000
vt 0.8896 0.9968 0.0000
vt 0.7472 0.9968 0.0000
vt 0.7472 0.8544 0.0000
vt 0.5842 0.7048 0.0000
vt 0.5842 0.5624 0.0000
vt 0.7266 0.5624 0.0000
vt 0.7266 0.7048 0.0000
vt 0.9847 0.4217 0.0000
vt 0.9846 0.5592 0.0000
vt 0.2989 0.8589 0.0000
vt 0.4400 0.8589 0.0000
vt 0.8896 0.8509 0.0000
vt 0.7472 0.8509 0.0000
vt 0.7472 0.7085 0.0000
vt 0.8896 0.7085 0.0000
vt 0.7401 0.9968 0.0000
vt 0.5978 0.9968 0.0000
vt 0.5978 0.8544 0.0000
vt 0.7401 0.8544 0.0000
vt 0.8760 0.5626 0.0000
vt 0.8760 0.7050 0.0000
vt 0.7336 0.7050 0.0000
vt 0.7336 0.5626 0.0000
vt 0.7097 0.4213 0.0000
vt 0.2847 0.4271 0.0000
vt 0.1424 0.2847 0.0000
vt 0.4271 0.5695 0.0000
vt 0.1424 0.1423 0.0000
vt 0.2847 0.5694 0.0000
vt 0.2847 0.1424 0.0000
vt 0.4271 0.1424 0.0000
vt 0.2848 0.0000 0.0000
vt 0.5695 0.0000 0.0000
vt 0.7095 0.5589 0.0000
vt 0.4349 0.1459 0.0000
vt 0.7100 0.1462 0.0000
vt 0.7102 0.0087 0.0000
vt 0.8477 0.0089 0.0000
vt 0.4348 0.2835 0.0000
vt 0.5695 0.1424 0.0000
vt 0.4400 1.0000 0.0000
vt 0.8472 0.4215 0.0000
# 72 texture coords

o sculpture_right
g sculpture_right
f 4/4/1 1/1/2 2/2/3 
f 6/31/4 8/33/5 5/30/6 
f 6/31/7 7/32/8 8/33/9 
f 10/27/10 12/29/11 9/26/12 
f 10/27/13 11/28/14 12/29/15 
f 14/23/16 16/25/17 13/22/18 
f 14/23/19 15/24/20 16/25/21 
f 18/19/22 20/21/23 17/18/24 
f 18/19/25 19/20/26 20/21/27 
f 22/51/28 24/53/29 21/50/30 
f 22/51/31 23/52/32 24/53/33 
f 9/54/34 18/16/35 17/17/36 
f 1/57/37 16/59/38 15/55/39 
f 14/5/40 21/6/41 15/8/42 
f 21/6/43 24/7/44 15/8/45 
f 8/71/46 3/15/47 5/41/48 
f 3/15/49 2/40/50 5/41/51 
f 4/46/52 13/47/53 1/49/54 
f 13/47/55 16/48/56 1/49/57 
f 10/9/58 7/10/59 11/12/60 
f 7/10/61 6/11/62 11/12/63 
f 18/42/64 9/43/65 19/45/66 
f 9/43/67 12/44/68 19/45/69 
f 22/34/70 17/35/71 23/37/72 
f 17/35/73 20/36/74 23/37/75 
f 14/66/76 13/67/77 4/68/78 
f 17/17/79 22/69/80 21/65/81 
f 17/17/82 21/65/83 14/66/84 
f 3/72/85 10/64/86 9/54/87 
f 14/66/88 4/68/89 3/72/90 
f 3/72/91 9/54/92 14/66/93 
f 9/54/94 17/17/95 14/66/96 
f 15/55/97 20/56/98 12/60/99 
f 15/55/100 24/13/101 20/56/102 
f 24/13/103 23/14/104 20/56/105 
f 20/56/106 19/58/107 12/60/108 
f 2/61/109 1/57/110 15/55/111 
f 15/55/112 12/60/113 2/61/114 
f 2/61/115 12/60/116 11/62/117 
f 2/61/118 11/62/119 6/63/120 
f 2/2/121 3/3/122 4/4/123 
f 2/61/124 6/63/125 25/70/126 
f 8/38/127 7/39/128 3/72/129 
f 3/72/130 7/39/131 10/64/132 
# 0 polygons - 44 triangles

