# 3ds Max Wavefront OBJ Exporter v0.97b - (c)2007 guruware
# File Created: 08.02.2019 14:40:50

#
# object sculpture_front
#

v  2.0000 3.0000 3.0000
v  1.0000 4.0000 3.0000
v  2.0000 4.0000 3.0000
v  0.0000 0.0000 4.0000
v  1.0000 0.0000 4.0000
v  1.0000 1.0000 4.0000
v  0.0000 2.0000 4.0000
v  0.0000 0.0000 3.0000
v  1.0000 4.0000 4.0000
v  1.0000 2.0000 3.0000
v  2.0000 0.0000 3.0000
v  2.0000 1.0000 4.0000
v  2.0000 1.0000 3.0000
v  2.0000 0.0000 4.0000
v  3.0000 2.0000 3.0000
v  3.0000 0.0000 4.0000
v  3.0000 0.0000 3.0000
v  1.0000 1.0000 3.0000
v  1.0000 0.0000 3.0000
v  2.0000 3.0000 4.0000
v  2.0000 4.0000 4.0000
v  4.0000 2.0000 4.0000
v  4.0000 3.0000 3.0000
v  4.0000 3.0000 4.0000
v  4.0000 2.0000 3.0000
v  0.0000 2.0000 3.0000
v  1.0000 2.0000 4.0000
v  3.0000 2.0000 4.0000
# 28 vertices

vn 0.0000 0.0000 -1.0000
vn 0.0000 0.0000 -1.0000
vn 0.0000 0.0000 -1.0000
vn 0.0000 0.0000 1.0000
vn 0.0000 0.0000 1.0000
vn 0.0000 0.0000 1.0000
vn -1.0000 0.0000 -0.0000
vn -1.0000 0.0000 -0.0000
vn -1.0000 0.0000 -0.0000
vn -1.0000 0.0000 -0.0000
vn -1.0000 0.0000 -0.0000
vn -1.0000 0.0000 -0.0000
vn -1.0000 0.0000 -0.0000
vn -1.0000 0.0000 -0.0000
vn -1.0000 0.0000 -0.0000
vn -1.0000 0.0000 -0.0000
vn -1.0000 0.0000 -0.0000
vn -1.0000 0.0000 -0.0000
vn 1.0000 0.0000 -0.0000
vn 1.0000 0.0000 -0.0000
vn 1.0000 0.0000 -0.0000
vn 1.0000 0.0000 -0.0000
vn 1.0000 0.0000 -0.0000
vn 1.0000 0.0000 -0.0000
vn 1.0000 0.0000 -0.0000
vn 1.0000 0.0000 -0.0000
vn 1.0000 0.0000 -0.0000
vn 1.0000 0.0000 -0.0000
vn 1.0000 0.0000 -0.0000
vn 1.0000 0.0000 -0.0000
vn 1.0000 0.0000 -0.0000
vn 1.0000 0.0000 -0.0000
vn 1.0000 0.0000 -0.0000
vn 1.0000 0.0000 -0.0000
vn 1.0000 0.0000 -0.0000
vn 1.0000 0.0000 -0.0000
vn 1.0000 0.0000 -0.0000
vn 1.0000 0.0000 -0.0000
vn 1.0000 0.0000 -0.0000
vn 0.0000 1.0000 -0.0000
vn 0.0000 1.0000 -0.0000
vn 0.0000 1.0000 -0.0000
vn 0.0000 1.0000 -0.0000
vn 0.0000 1.0000 -0.0000
vn 0.0000 1.0000 -0.0000
vn 0.0000 1.0000 -0.0000
vn 0.0000 1.0000 -0.0000
vn 0.0000 1.0000 -0.0000
vn 0.0000 1.0000 -0.0000
vn 0.0000 1.0000 -0.0000
vn 0.0000 1.0000 -0.0000
vn 0.0000 1.0000 -0.0000
vn 0.0000 1.0000 -0.0000
vn 0.0000 1.0000 -0.0000
vn 0.0000 1.0000 -0.0000
vn 0.0000 1.0000 -0.0000
vn 0.0000 1.0000 -0.0000
vn 0.0000 -1.0000 -0.0000
vn 0.0000 -1.0000 -0.0000
vn 0.0000 -1.0000 -0.0000
vn 0.0000 -1.0000 -0.0000
vn 0.0000 -1.0000 -0.0000
vn 0.0000 -1.0000 -0.0000
vn 0.0000 -1.0000 -0.0000
vn 0.0000 -1.0000 -0.0000
vn 0.0000 -1.0000 -0.0000
vn 0.0000 -1.0000 -0.0000
vn 0.0000 -1.0000 -0.0000
vn 0.0000 -1.0000 -0.0000
vn 0.0000 -1.0000 -0.0000
vn 0.0000 -1.0000 -0.0000
vn 0.0000 -1.0000 -0.0000
vn 0.0000 -1.0000 -0.0000
vn 0.0000 -1.0000 -0.0000
vn 0.0000 -1.0000 -0.0000
vn 0.0000 -1.0000 -0.0000
vn 0.0000 -1.0000 -0.0000
vn 0.0000 -1.0000 -0.0000
vn 0.0000 -1.0000 -0.0000
vn 0.0000 -1.0000 -0.0000
vn 0.0000 -1.0000 -0.0000
vn 0.0000 0.0000 -1.0000
vn 0.0000 0.0000 -1.0000
vn 0.0000 0.0000 -1.0000
vn 0.0000 0.0000 -1.0000
vn 0.0000 0.0000 -1.0000
vn 0.0000 0.0000 -1.0000
vn 0.0000 0.0000 -1.0000
vn 0.0000 0.0000 -1.0000
vn 0.0000 0.0000 -1.0000
vn 0.0000 0.0000 -1.0000
vn 0.0000 0.0000 -1.0000
vn 0.0000 0.0000 -1.0000
vn 0.0000 0.0000 -1.0000
vn 0.0000 0.0000 -1.0000
vn 0.0000 0.0000 -1.0000
vn 0.0000 0.0000 -1.0000
vn 0.0000 0.0000 -1.0000
vn 0.0000 0.0000 -1.0000
vn 0.0000 0.0000 -1.0000
vn 0.0000 0.0000 -1.0000
vn 0.0000 0.0000 -1.0000
vn 0.0000 0.0000 -1.0000
vn 0.0000 0.0000 -1.0000
vn 0.0000 0.0000 -1.0000
vn 0.0000 0.0000 -1.0000
vn 0.0000 0.0000 -1.0000
vn 0.0000 0.0000 -1.0000
vn 0.0000 0.0000 -1.0000
vn 0.0000 0.0000 -1.0000
vn 0.0000 0.0000 -1.0000
vn 0.0000 0.0000 -1.0000
vn 0.0000 0.0000 -1.0000
vn 0.0000 0.0000 -1.0000
vn 0.0000 0.0000 1.0000
vn 0.0000 0.0000 1.0000
vn 0.0000 0.0000 1.0000
vn 0.0000 0.0000 1.0000
vn 0.0000 0.0000 1.0000
vn 0.0000 0.0000 1.0000
vn 0.0000 0.0000 1.0000
vn 0.0000 0.0000 1.0000
vn 0.0000 0.0000 1.0000
vn 0.0000 0.0000 1.0000
vn 0.0000 0.0000 1.0000
vn 0.0000 0.0000 1.0000
vn 0.0000 0.0000 1.0000
vn 0.0000 0.0000 1.0000
vn 0.0000 0.0000 1.0000
vn 0.0000 0.0000 1.0000
vn 0.0000 0.0000 1.0000
vn 0.0000 0.0000 1.0000
vn 0.0000 0.0000 1.0000
vn 0.0000 0.0000 1.0000
vn 0.0000 0.0000 1.0000
vn 0.0000 0.0000 1.0000
vn 0.0000 0.0000 1.0000
vn 0.0000 0.0000 1.0000
vn 0.0000 0.0000 1.0000
vn 0.0000 0.0000 1.0000
vn 0.0000 0.0000 1.0000
vn 0.0000 0.0000 1.0000
vn 0.0000 0.0000 1.0000
vn 0.0000 0.0000 1.0000
vn 0.0000 0.0000 1.0000
vn 0.0000 0.0000 1.0000
vn 0.0000 0.0000 1.0000
vn 1.0000 0.0000 -0.0000
vn 1.0000 0.0000 -0.0000
vn 1.0000 0.0000 -0.0000
vn -1.0000 0.0000 -0.0000
vn -1.0000 0.0000 -0.0000
vn -1.0000 0.0000 -0.0000
vn -1.0000 0.0000 -0.0000
vn -1.0000 0.0000 -0.0000
vn -1.0000 0.0000 -0.0000
# 156 vertex normals

vt 0.2501 0.6257 0.0000
vt 0.1259 0.5017 0.0000
vt 0.2500 0.5016 0.0000
vt 0.4962 0.5003 0.0000
vt 0.3721 0.4993 0.0000
vt 0.3732 0.3752 0.0000
vt 0.8913 0.2501 0.0000
vt 0.7672 0.0020 0.0000
vt 0.8913 0.0020 0.0000
vt 0.6291 0.2501 0.0000
vt 0.5051 0.2501 0.0000
vt 0.5051 0.0020 0.0000
vt 0.8913 0.3775 0.0000
vt 0.7672 0.2534 0.0000
vt 0.8913 0.2534 0.0000
vt 0.7672 0.3775 0.0000
vt 0.7602 0.2501 0.0000
vt 0.6361 0.0020 0.0000
vt 0.7602 0.0020 0.0000
vt 0.7602 0.2534 0.0000
vt 0.6361 0.3775 0.0000
vt 0.6361 0.2534 0.0000
vt 0.7602 0.3775 0.0000
vt 0.7602 0.5049 0.0000
vt 0.6361 0.3808 0.0000
vt 0.7602 0.3808 0.0000
vt 0.6361 0.5049 0.0000
vt 0.7672 0.5049 0.0000
vt 0.8913 0.3808 0.0000
vt 0.8913 0.5049 0.0000
vt 0.7672 0.3808 0.0000
vt 0.6291 0.5016 0.0000
vt 0.5051 0.5016 0.0000
vt 0.6291 0.2534 0.0000
vt 0.5051 0.2534 0.0000
vt 0.6291 0.7564 0.0000
vt 0.5051 0.7564 0.0000
vt 0.6291 0.6323 0.0000
vt 0.5051 0.6323 0.0000
vt 0.5051 0.6290 0.0000
vt 0.5051 0.5049 0.0000
vt 0.6291 0.6290 0.0000
vt 0.6291 0.5049 0.0000
vt 0.6361 0.7597 0.0000
vt 0.6361 0.6356 0.0000
vt 0.7602 0.7597 0.0000
vt 0.7602 0.6356 0.0000
vt 0.7672 0.7597 0.0000
vt 0.7672 0.6356 0.0000
vt 0.8913 0.7597 0.0000
vt 0.8913 0.6356 0.0000
vt 0.8913 0.6323 0.0000
vt 0.7672 0.6323 0.0000
vt 0.8913 0.5082 0.0000
vt 0.7672 0.5082 0.0000
vt 0.7602 0.6323 0.0000
vt 0.6361 0.6323 0.0000
vt 0.7602 0.5082 0.0000
vt 0.6361 0.5082 0.0000
vt 0.3743 0.9979 0.0000
vt 0.2502 0.9979 0.0000
vt 0.2502 0.8738 0.0000
vt 0.1261 0.8739 0.0000
vt 0.1262 0.9980 0.0000
vt 0.0021 0.9980 0.0000
vt 0.3742 0.7497 0.0000
vt 0.4982 0.6256 0.0000
vt 0.4983 0.7496 0.0000
vt 0.1260 0.7498 0.0000
vt 0.0020 0.7499 0.0000
vt 0.2491 0.3742 0.0000
vt 0.2480 0.4983 0.0000
vt 0.1240 0.4972 0.0000
vt 0.4983 0.2522 0.0000
vt 0.3742 0.2511 0.0000
vt 0.1260 0.2491 0.0000
vt 0.2511 0.1260 0.0000
vt 0.0020 0.2480 0.0000
vt 0.0030 0.1240 0.0000
vt 0.2522 0.0020 0.0000
vt 0.3763 0.0030 0.0000
vt 0.6361 0.2501 0.0000
vt 0.7672 0.2501 0.0000
vt 0.6291 0.0020 0.0000
# 84 texture coords

o sculpture_front
g sculpture_front
f 1/1/1 2/2/2 3/3/3 
f 4/4/4 5/5/5 6/6/6 
f 7/7/7 8/8/8 4/9/9 
f 9/10/10 2/11/11 10/12/12 
f 11/13/13 12/14/14 13/15/15 
f 11/13/16 14/16/17 12/14/18 
f 15/17/19 16/18/20 17/19/21 
f 5/20/22 18/21/23 6/22/24 
f 5/20/25 19/23/26 18/21/27 
f 20/24/28 3/25/29 21/26/30 
f 20/24/31 1/27/32 3/25/33 
f 22/28/34 23/29/35 24/30/36 
f 22/28/37 25/31/38 23/29/39 
f 1/32/40 20/33/41 23/34/42 
f 20/33/43 24/35/44 23/34/45 
f 26/36/46 7/37/47 10/38/48 
f 7/37/49 27/39/50 10/38/51 
f 2/40/52 9/41/53 3/42/54 
f 9/41/55 21/43/56 3/42/57 
f 4/44/58 8/45/59 5/46/60 
f 8/45/61 19/47/62 5/46/63 
f 6/48/64 18/49/65 12/50/66 
f 18/49/67 13/51/68 12/50/69 
f 14/52/70 11/53/71 16/54/72 
f 11/53/73 17/55/74 16/54/75 
f 28/56/76 15/57/77 22/58/78 
f 15/57/79 25/59/80 22/58/81 
f 17/60/82 11/61/83 13/62/84 
f 18/63/85 19/64/86 8/65/87 
f 13/62/88 15/66/89 17/60/90 
f 23/67/91 25/68/92 15/66/93 
f 15/66/94 1/1/95 23/67/96 
f 13/62/97 18/63/98 10/69/99 
f 10/69/100 2/2/101 1/1/102 
f 10/69/103 1/1/104 15/66/105 
f 18/63/106 26/70/107 10/69/108 
f 18/63/109 8/65/110 26/70/111 
f 15/66/112 13/62/113 10/69/114 
f 12/71/115 14/72/116 16/73/117 
f 6/6/118 7/74/119 4/4/120 
f 6/6/121 27/75/122 7/74/123 
f 12/71/124 28/76/125 20/77/126 
f 12/71/127 16/73/128 28/76/129 
f 28/76/130 22/78/131 24/79/132 
f 28/76/133 24/79/134 20/77/135 
f 20/77/136 21/80/137 9/81/138 
f 20/77/139 9/81/140 27/75/141 
f 27/75/142 6/6/143 12/71/144 
f 20/77/145 27/75/146 12/71/147 
f 15/17/148 28/82/149 16/18/150 
f 7/7/151 26/83/152 8/8/153 
f 10/12/154 27/84/155 9/10/156 
# 0 polygons - 52 triangles

