# 3ds Max Wavefront OBJ Exporter v0.97b - (c)2007 guruware
# File Created: 10.05.2019 19:09:00

#
# object stone_2
#

v  0.0117 3.1519 -0.2238
v  3.0117 1.2977 -0.2238
v  0.4310 2.3133 -1.5142
v  -1.8592 0.9407 -2.6593
v  -2.8827 0.9407 -2.3267
v  -2.8827 0.9407 -0.1203
v  -0.4957 2.7642 0.1448
v  -0.3916 2.6122 0.3878
v  0.1133 2.9488 0.0887
v  2.2993 1.4394 0.4415
v  3.3583 1.0058 -0.0505
v  -2.6064 0.3882 -2.5274
v  -3.0994 -1.2348 -1.3216
v  -3.3073 -1.2825 -1.0199
v  -3.1515 -0.4667 1.0519
v  -3.4860 -2.2183 0.0223
v  -3.2947 -2.6370 0.1495
v  -2.9118 -2.6370 0.6766
v  -1.7543 -1.3160 2.6989
v  -1.9521 -0.9205 2.5553
v  -1.7726 -0.7970 2.5888
v  -2.7853 -3.0683 -0.1099
v  3.4860 0.3991 0.0133
v  3.4442 0.1803 -0.0076
v  0.7117 -2.2106 -1.3738
v  -1.3155 -1.9572 -2.3874
v  -2.0805 0.0317 -2.7699
v  3.3712 -0.2021 0.2107
v  2.8701 -1.7248 0.8275
v  1.2568 -2.6421 -0.3746
v  -2.5660 -3.1519 -0.3108
v  -2.0619 -2.4797 -1.5291
v  -1.4872 -1.2373 2.7699
v  -0.3639 -1.2238 2.5128
# 34 vertices

vn 0.4911 0.7947 -0.3568
vn -0.1876 0.7947 -0.5774
vn -0.6071 0.7947 -0.0000
vn -0.1876 0.7947 0.5774
vn 0.4911 0.7947 0.3568
vn -0.7947 -0.1876 -0.5774
vn -0.7947 -0.1876 0.5774
vn -0.5262 0.6013 0.6013
vn -0.4911 -0.7947 0.3568
vn 0.4472 -0.0000 -0.8944
vn 0.9822 -0.1876 -0.0000
vn -0.9822 0.1876 0.0000
vn 0.6838 -0.4558 -0.5698
vn 0.1111 -0.8889 -0.4444
vn -0.3035 0.1876 -0.9342
vn -0.6852 -0.4796 -0.5482
vn -0.5819 -0.3637 -0.7274
vn -0.3035 0.1876 0.9342
vn 0.1231 -0.8616 0.4924
vn 0.4767 0.1907 0.8581
vn 0.1907 0.4767 0.8581
# 21 vertex normals

o stone_2
g stone_2
f 1//1 2//1 3//1 
f 1//2 3//2 4//2 5//2 
f 1//3 5//3 6//3 7//3 
f 1//4 7//4 8//4 9//4 
f 1//5 9//5 10//5 11//5 2//5 
f 5//6 12//6 13//6 14//6 
f 15//7 16//7 17//7 18//7 19//7 20//7 
f 6//8 15//8 20//8 21//8 8//8 7//8 
f 18//9 17//9 22//9 
f 2//10 11//10 23//10 24//10 25//10 26//10 27//10 4//10 3//10 
f 24//11 23//11 28//11 
f 16//12 15//12 6//12 5//12 14//12 
f 25//13 24//13 28//13 29//13 30//13 
f 25//14 30//14 31//14 32//14 26//14 
f 12//15 5//15 4//15 27//15 
f 32//16 31//16 22//16 17//16 16//16 14//16 13//16 
f 12//17 27//17 26//17 32//17 13//17 
f 21//18 20//18 19//18 33//18 
f 33//19 19//19 18//19 22//19 31//19 30//19 29//19 34//19 
f 34//20 29//20 28//20 23//20 11//20 10//20 
f 8//21 21//21 33//21 34//21 10//21 9//21 
# 18 polygons - 3 triangles

