# 3ds Max Wavefront OBJ Exporter v0.97b - (c)2007 guruware
# File Created: 05.04.2018 16:49:31

#
# object Column
#

v  -0.2514 0.2321 0.2590
v  0.3331 0.2321 0.3066
v  -0.3000 0.2321 -0.3000
v  0.3103 0.2321 -0.2634
v  0.3000 3.1344 0.3000
v  -0.3000 2.6193 0.3000
v  0.1743 3.2321 0.3000
v  -0.2960 2.6336 0.2048
v  -0.2596 2.6370 0.2973
v  0.3000 3.2017 0.1508
v  0.0667 3.0724 -0.3000
v  0.3000 2.0830 -0.3000
v  -0.3000 2.8155 -0.3000
v  -0.2303 3.0805 -0.2118
v  -0.1489 3.0743 -0.3000
v  -0.3000 1.4783 -0.3000
v  -0.2503 1.1838 -0.3000
v  -0.3000 1.0861 -0.3000
v  -0.3000 1.2350 -0.2275
v  0.3000 2.0392 0.3000
v  0.1961 1.8794 0.3000
v  0.3000 1.9015 0.3000
v  0.3000 1.9220 0.2367
v  -0.2999 2.9703 -0.1984
v  -0.5000 0.0000 0.5000
v  0.5000 0.0000 0.5000
v  -0.5000 0.0000 -0.5000
v  0.5000 0.0000 -0.5000
v  -0.5000 0.2500 -0.5000
v  0.5000 0.2500 -0.5000
v  0.1459 0.2500 0.5000
v  0.5000 0.2500 0.3737
v  0.5000 0.2119 0.5000
v  -0.3943 0.2500 0.5000
v  -0.5000 0.2500 0.3840
v  -0.5000 0.1738 0.5000
v  -0.3741 0.2500 -0.5000
v  -0.2132 0.2500 -0.4426
v  0.2540 0.2500 -0.5000
v  -0.1037 0.2205 -0.5000
# 40 vertices

vn -0.8613 -0.1452 -0.4870
vn -0.8613 -0.1452 -0.4870
vn -0.8613 -0.1452 -0.4870
vn 0.5902 -0.3837 0.7102
vn 0.5902 -0.3837 0.7102
vn 0.5902 -0.3837 0.7102
vn -0.7881 0.4781 0.3878
vn -0.7335 0.5328 0.4220
vn -0.7394 0.5281 0.4176
vn -0.7394 0.5281 0.4176
vn -0.7543 0.5147 0.4075
vn -0.7881 0.4781 0.3878
vn -0.0532 0.9679 -0.2456
vn -0.0405 0.9733 -0.2258
vn -0.0321 0.9806 -0.1932
vn -0.0321 0.9806 -0.1932
vn -0.0548 0.9684 -0.2434
vn -0.0532 0.9679 -0.2456
vn -0.3909 0.9124 0.1209
vn -0.3909 0.9124 0.1209
vn -0.3909 0.9124 0.1209
vn 0.8458 0.1994 -0.4948
vn 0.8458 0.1994 -0.4948
vn 0.8458 0.1994 -0.4948
vn -0.6833 0.3875 -0.6188
vn -0.6764 0.3480 -0.6491
vn -0.6813 0.3752 -0.6286
vn -0.6813 0.3752 -0.6286
vn -0.6851 0.4001 -0.6087
vn -0.6833 0.3875 -0.6188
vn 0.0000 0.0000 -1.0000
vn 0.0000 0.0000 -1.0000
vn 0.0061 -0.0037 -1.0000
vn 0.0061 -0.0037 -1.0000
vn 0.0267 -0.0112 -0.9996
vn 0.0000 0.0000 -1.0000
vn -0.9999 0.0067 -0.0145
vn -1.0000 -0.0019 0.0072
vn -1.0000 0.0012 0.0053
vn -1.0000 0.0012 0.0053
vn -0.9989 -0.0131 0.0452
vn -0.9999 0.0067 -0.0145
vn -0.6528 0.3318 -0.6810
vn -0.6528 0.3318 -0.6810
vn -0.6528 0.3318 -0.6810
vn 0.5778 0.7440 0.3354
vn 0.5778 0.7440 0.3354
vn 0.5778 0.7440 0.3354
vn -0.0405 0.9733 -0.2258
vn 0.0085 0.9980 -0.0632
vn -0.0321 0.9806 -0.1932
vn -0.0032 -0.0018 1.0000
vn -0.0023 -0.0029 1.0000
vn 0.0218 0.0247 0.9995
vn 0.0218 0.0247 0.9995
vn -0.0005 0.0009 1.0000
vn -0.0032 -0.0018 1.0000
vn 1.0000 0.0000 -0.0000
vn 1.0000 0.0000 -0.0000
vn 1.0000 0.0000 -0.0000
vn -0.1979 0.9322 0.3032
vn -0.1979 0.9322 0.3032
vn -0.1979 0.9322 0.3032
vn -0.0684 -0.0022 0.9977
vn -0.0812 0.0023 0.9967
vn -0.0157 -0.0194 0.9997
vn -0.0157 -0.0194 0.9997
vn -0.0089 -0.0172 0.9998
vn -0.0684 -0.0022 0.9977
vn -0.0005 0.0009 1.0000
vn 0.0218 0.0247 0.9995
vn 0.0201 0.0236 0.9995
vn 0.0201 0.0236 0.9995
vn -0.0089 -0.0172 0.9998
vn -0.0005 0.0009 1.0000
vn -0.0089 -0.0172 0.9998
vn 0.0201 0.0236 0.9995
vn -0.0684 -0.0022 0.9977
vn -0.7543 0.5147 0.4075
vn -0.8648 0.3813 0.3267
vn -0.7881 0.4781 0.3878
vn 0.0579 -0.0030 -0.9983
vn 0.0000 0.0000 -1.0000
vn 0.0267 -0.0112 -0.9996
vn 0.0267 -0.0112 -0.9996
vn 0.0505 -0.0087 -0.9987
vn 0.0579 -0.0030 -0.9983
vn 0.0267 -0.0112 -0.9996
vn 0.0061 -0.0037 -1.0000
vn 0.0505 -0.0087 -0.9987
vn 0.0000 0.0000 -1.0000
vn 0.0000 0.0000 -1.0000
vn 0.0000 0.0000 -1.0000
vn 0.0000 0.0000 -1.0000
vn 0.0000 0.0000 -1.0000
vn 0.0000 0.0000 -1.0000
vn -0.9989 -0.0131 0.0452
vn -1.0000 0.0000 0.0003
vn -0.9966 -0.0060 0.0826
vn -0.9966 -0.0060 0.0826
vn -0.9969 -0.0107 0.0775
vn -0.9989 -0.0131 0.0452
vn -0.9989 -0.0131 0.0452
vn -0.9969 -0.0107 0.0775
vn -0.9998 0.0077 -0.0202
vn -0.9999 0.0067 -0.0145
vn -1.0000 -0.0037 0.0066
vn -1.0000 -0.0019 0.0072
vn -0.9989 -0.0131 0.0452
vn -0.9998 0.0077 -0.0202
vn -0.9999 0.0067 -0.0145
vn 1.0000 0.0000 -0.0000
vn 1.0000 0.0026 0.0008
vn 1.0000 0.0000 -0.0000
vn 1.0000 0.0079 -0.0006
vn 0.9994 0.0155 -0.0320
vn 1.0000 0.0026 0.0008
vn 1.0000 0.0026 0.0008
vn 1.0000 0.0000 -0.0000
vn 1.0000 0.0079 -0.0006
vn 1.0000 0.0079 -0.0006
vn 0.9998 0.0198 0.0065
vn 0.9991 0.0179 -0.0389
vn 0.9991 0.0179 -0.0389
vn 0.9994 0.0155 -0.0320
vn 1.0000 0.0079 -0.0006
vn -0.5160 0.7160 0.4702
vn -0.5160 0.7160 0.4702
vn -0.5160 0.7160 0.4702
vn 0.0000 0.0000 1.0000
vn 0.0000 0.0000 1.0000
vn 0.0000 0.0000 1.0000
vn 0.0000 0.0000 1.0000
vn 0.0000 0.0000 1.0000
vn 0.0000 0.0000 1.0000
vn 0.0000 0.0000 1.0000
vn 0.0000 0.0000 1.0000
vn 0.0000 0.0000 1.0000
vn 0.0000 0.0000 1.0000
vn 0.0000 0.0000 1.0000
vn 0.0000 0.0000 1.0000
vn 1.0000 0.0000 -0.0000
vn 1.0000 0.0000 -0.0000
vn 1.0000 0.0000 -0.0000
vn 1.0000 0.0000 -0.0000
vn 1.0000 0.0000 -0.0000
vn 1.0000 0.0000 -0.0000
vn 1.0000 0.0000 -0.0000
vn 1.0000 0.0000 -0.0000
vn 1.0000 0.0000 -0.0000
vn -1.0000 0.0000 -0.0000
vn -1.0000 0.0000 -0.0000
vn -1.0000 0.0000 -0.0000
vn -1.0000 0.0000 -0.0000
vn -1.0000 0.0000 -0.0000
vn -1.0000 0.0000 -0.0000
vn -1.0000 0.0000 -0.0000
vn -1.0000 0.0000 -0.0000
vn -1.0000 0.0000 -0.0000
vn 0.1024 0.9525 0.2869
vn 0.1024 0.9525 0.2869
vn 0.1024 0.9525 0.2869
vn 0.1039 0.9510 -0.2914
vn 0.1039 0.9510 -0.2914
vn 0.1039 0.9510 -0.2914
vn 0.0000 1.0000 -0.0000
vn 0.0000 1.0000 -0.0000
vn 0.0000 1.0000 -0.0000
vn 0.0000 1.0000 -0.0000
vn 0.0000 1.0000 -0.0000
vn 0.0000 1.0000 -0.0000
vn 0.0000 1.0000 -0.0000
vn 0.0000 1.0000 -0.0000
vn 0.0000 1.0000 -0.0000
vn 0.0000 1.0000 -0.0000
vn 0.0000 1.0000 -0.0000
vn 0.0000 1.0000 -0.0000
vn 0.0000 1.0000 -0.0000
vn 0.0000 1.0000 -0.0000
vn 0.0000 1.0000 -0.0000
vn 0.0000 1.0000 -0.0000
vn 0.0000 1.0000 -0.0000
vn 0.0000 1.0000 -0.0000
vn 0.0000 1.0000 -0.0000
vn 0.0000 1.0000 -0.0000
vn 0.0000 1.0000 -0.0000
vn 0.0000 0.0000 -1.0000
vn 0.0000 0.0000 -1.0000
vn 0.0000 0.0000 -1.0000
vn 0.0000 0.0000 -1.0000
vn 0.0000 0.0000 -1.0000
vn 0.0000 0.0000 -1.0000
vn 0.0000 0.0000 -1.0000
vn 0.0000 0.0000 -1.0000
vn 0.0000 0.0000 -1.0000
vn 0.0000 0.0000 -1.0000
vn 0.0000 0.0000 -1.0000
vn 0.0000 0.0000 -1.0000
vn 0.0000 0.0000 -1.0000
vn 0.0000 0.0000 -1.0000
vn 0.0000 0.0000 -1.0000
vn -0.0684 0.8279 -0.5567
vn -0.0684 0.8279 -0.5567
vn -0.0684 0.8279 -0.5567
# 204 vertex normals

vt 1.0000 0.0000 0.0000
vt 0.0000 0.0000 0.0000
vt 1.0000 0.0000 0.0000
vt 1.0000 1.0000 0.0000
vt 0.0000 0.0000 0.0000
vt 1.0000 0.0000 0.0000
vt 0.0000 1.0000 0.0000
vt 0.0000 0.0000 0.0000
vt 1.0000 0.0000 0.0000
vt 0.0000 0.0000 0.0000
vt 1.0000 0.0000 0.0000
vt 0.0000 0.7957 0.0000
vt 1.0000 0.7957 0.0000
vt 0.7904 0.0000 0.0000
vt 0.7904 1.0000 0.0000
vt 0.8416 0.8182 0.0000
vt 0.1070 0.8234 0.0000
vt 1.0000 0.2487 0.0000
vt 0.2487 1.0000 0.0000
vt 0.6112 0.9770 0.0000
vt 0.3888 0.9770 0.0000
vt 1.0000 0.6170 0.0000
vt 0.0000 0.6170 0.0000
vt 1.0000 0.8611 0.0000
vt 0.0000 0.8611 0.0000
vt 0.1162 0.8025 0.0000
vt 0.2518 0.9557 0.0000
vt 0.7482 0.9557 0.0000
vt 1.0000 0.4495 0.0000
vt 0.0000 0.4495 0.0000
vt 0.9172 0.3757 0.0000
vt 1.0000 0.3432 0.0000
vt 0.0000 0.3432 0.0000
vt 0.1209 0.3953 0.0000
vt 1.0000 0.6226 0.0000
vt 0.0000 0.6226 0.0000
vt 0.8283 0.5675 0.0000
vt 1.0000 0.5945 0.0000
vt 0.0000 0.5945 0.0000
vt 0.1055 0.5823 0.0000
vt 0.1693 0.9161 0.0000
vt 0.0000 1.0000 0.0000
vt 1.0000 1.0000 0.0000
vt 0.0000 0.0000 0.0000
vt 1.0000 0.0000 0.0000
vt 0.0000 0.0000 0.0000
vt 1.0000 0.0000 0.0000
vt 1.0000 1.0000 0.0000
vt 0.0000 0.0000 0.0000
vt 1.0000 0.0000 0.0000
vt 0.0000 1.0000 0.0000
vt 1.0000 1.0000 0.0000
vt 0.0000 0.0000 0.0000
vt 1.0000 0.0000 0.0000
vt 0.0000 1.0000 0.0000
vt 0.6459 0.0000 0.0000
vt 0.6459 1.0000 0.0000
vt 1.0000 0.1263 0.0000
vt 0.1263 1.0000 0.0000
vt 1.0000 0.8478 0.0000
vt 0.0000 0.8478 0.0000
vt 0.1057 0.0000 0.0000
vt 0.1057 1.0000 0.0000
vt 0.0000 0.1160 0.0000
vt 0.8840 1.0000 0.0000
vt 0.0000 0.6953 0.0000
vt 1.0000 0.6953 0.0000
vt 0.1259 1.0000 0.0000
vt 0.8741 1.0000 0.0000
vt 0.2868 0.9426 0.0000
vt 0.7540 1.0000 0.0000
vt 0.2460 1.0000 0.0000
vt 0.6037 0.8818 0.0000
# 73 texture coords

o Base
g Base
s 1
f 16/29/1 17/31/2 19/34/3 
f 20/35/4 21/37/5 23/40/6 
f 9/17/7 7/14/8 14/26/9 
f 14/26/10 24/41/11 9/17/12 
s 2
f 10/18/13 11/20/14 14/26/15 
f 14/26/16 7/14/17 10/18/18 
f 8/16/19 6/12/20 9/17/21 
s 1
f 10/19/22 12/23/23 11/20/24 
s 4
f 24/41/25 14/26/26 15/28/27 
f 15/28/28 13/25/29 24/41/30 
s 8
f 16/29/31 11/21/32 12/23/33 
f 12/23/34 17/31/35 16/29/36 
s 16
f 8/16/37 13/25/38 16/30/39 
f 16/30/40 19/34/41 8/16/42 
s 2
f 17/31/43 18/33/44 19/34/45 
s 4
f 7/14/46 5/1/47 10/18/48 
s 2
f 11/20/49 15/27/50 14/26/51 
s 8
f 5/4/52 7/15/53 9/17/54 
f 9/17/55 20/35/56 5/4/57 
s 16
f 10/19/58 5/7/59 20/36/60 
s 2
f 21/37/61 22/39/62 23/40/63 
s 8
f 1/2/64 2/3/65 22/38/66 
f 22/38/67 21/37/68 1/2/69 
f 20/35/70 9/17/71 6/12/72 
f 6/12/73 21/37/74 20/35/75 
f 21/37/76 6/12/77 1/2/78 
s 1
f 24/41/79 8/16/80 9/17/81 
s 8
f 3/9/82 18/32/83 17/31/84 
f 17/31/85 4/8/86 3/9/87 
f 17/31/88 12/23/89 4/8/90 
f 13/24/91 15/28/92 11/21/93 
f 11/21/94 16/29/95 13/24/96 
s 16
f 19/34/97 18/33/98 3/10/99 
f 3/10/100 1/11/101 19/34/102 
f 19/34/103 1/11/104 6/13/105 
f 8/16/106 24/41/107 13/25/108 
f 19/34/109 6/13/110 8/16/111 
f 20/36/112 12/22/113 10/19/114 
f 23/40/115 4/6/116 12/22/117 
f 12/22/118 20/36/119 23/40/120 
f 23/40/121 22/39/122 2/5/123 
f 2/5/124 4/6/125 23/40/126 
s 1
f 34/62/127 35/65/128 36/66/129 
s 2
f 26/45/130 33/60/131 31/57/132 
f 31/57/133 34/63/134 36/66/135 
f 26/45/136 31/57/137 36/66/138 
f 25/44/139 26/45/140 36/66/141 
s 4
f 26/46/142 28/47/143 30/48/144 
f 26/46/145 30/48/146 32/59/147 
f 26/46/148 32/59/149 33/61/150 
f 25/54/151 36/67/152 35/65/153 
f 25/54/154 35/65/155 29/55/156 
f 27/53/157 25/54/158 29/55/159 
s 1
f 31/57/160 33/61/161 32/58/162 
f 37/68/163 38/70/164 40/73/165 
s 8
f 29/42/166 35/64/167 34/62/168 
f 37/68/169 29/42/170 34/62/171 
f 38/70/172 37/68/173 34/62/174 
f 34/62/175 31/56/176 32/58/177 
f 38/70/178 34/62/179 32/58/180 
f 38/70/181 32/58/182 30/43/183 
f 38/70/184 30/43/185 39/71/186 
s 2
f 39/72/187 30/51/188 28/49/189 
f 40/73/190 39/72/191 28/49/192 
f 40/73/193 28/49/194 27/50/195 
f 40/73/196 27/50/197 29/52/198 
f 40/73/199 29/52/200 37/69/201 
s 4
f 38/70/202 39/72/203 40/73/204 
# 68 faces

