# 3ds Max Wavefront OBJ Exporter v0.97b - (c)2007 guruware
# File Created: 24.05.2019 16:07:47

#
# object floating_shard1
#

v  0.2496 -0.0899 -0.0997
v  0.0760 0.2573 -0.1831
v  0.1702 0.3395 -0.0798
v  0.2105 0.3395 -0.0431
v  0.3116 0.2345 0.0263
v  -0.2304 -0.0899 -0.2029
v  -0.2358 -0.0790 -0.2002
v  -0.1657 0.1996 -0.1783
v  -0.0408 0.2169 -0.2029
v  -0.0977 -0.3552 0.0671
v  -0.1641 -0.3142 0.0671
v  -0.2955 -0.1247 -0.0924
v  -0.2426 -0.0899 -0.1917
v  -0.1002 -0.3502 0.0722
v  -0.1325 -0.3122 0.0988
v  -0.1591 -0.2963 0.0980
v  -0.0937 -0.3522 0.0690
v  0.2496 -0.0899 0.0384
v  -0.2172 -0.0488 0.1900
v  -0.2417 0.0048 0.1782
v  -0.3116 0.1166 0.1043
v  -0.2156 0.2844 -0.0067
v  0.1736 0.3552 -0.0535
v  -0.1979 -0.0325 0.2029
v  -0.1382 -0.2517 0.1238
v  0.2006 0.0871 0.1238
v  -0.2125 -0.0286 0.2003
v  0.2896 0.1194 0.1024
# 28 vertices

vn 0.7947 0.1876 -0.5774
vn -0.3035 0.1876 -0.9342
vn 0.1876 -0.7947 -0.5774
vn -0.4911 -0.7947 -0.3568
vn -0.4911 -0.7947 0.3568
vn 0.1876 -0.7947 0.5774
vn 0.6071 -0.7947 -0.0000
vn -0.9117 -0.3419 0.2279
vn 0.3035 -0.1876 -0.9342
vn -0.2279 0.9117 -0.3419
vn -0.7947 -0.1876 -0.5773
vn -0.9272 0.2649 -0.2649
vn 0.3665 -0.3665 0.8552
vn 0.4911 0.7947 -0.3568
vn -0.8296 -0.2074 0.5185
vn -0.0000 0.7071 0.7071
vn -0.3468 -0.5203 0.7804
vn 0.9822 -0.1876 -0.0000
vn 0.4444 -0.4444 0.7778
# 19 vertex normals

vt 0.6000 0.3524 20.0000
vt 0.6809 0.5911 20.0000
vt 0.6088 0.6476 20.0000
vt 0.5816 0.6476 20.0000
vt 0.5244 0.5754 20.0000
vt 0.8000 0.3524 20.0000
vt 0.8025 0.3599 20.0000
vt 0.7802 0.5514 20.0000
vt 0.7285 0.5633 20.0000
vt 0.7000 0.0000 20.0000
vt -0.1000 0.0000 20.0000
vt -0.0845 0.0545 20.0000
vt -0.1313 0.3062 20.0000
vt -0.1917 0.3524 20.0000
vt -0.2000 0.3524 20.0000
vt 0.1000 0.0000 20.0000
vt 0.1019 0.0067 20.0000
vt 0.1072 0.0571 20.0000
vt 0.1006 0.0782 20.0000
vt 0.0845 0.0545 20.0000
vt 0.3000 0.0000 20.0000
vt 0.3011 0.0040 20.0000
vt 0.2981 0.0067 20.0000
vt 0.5000 0.0000 20.0000
vt 0.5172 0.3524 20.0000
vt 0.4989 0.0040 20.0000
vt 0.0308 0.0782 20.0000
vt 0.1322 0.3170 20.0000
vt 0.1129 0.3680 20.0000
vt 0.0247 0.4844 20.0000
vt 0.5112 0.6253 20.0000
vt 0.5834 0.6685 20.0000
vt -0.1975 0.3599 20.0000
vt 0.1481 0.3272 20.0000
vt 0.1194 0.1134 20.0000
vt 0.4171 0.4624 20.0000
vt 0.5953 0.6685 20.0000
vt 0.1407 0.3342 20.0000
vt 0.4789 0.4963 20.0000
vt 0.0844 0.0571 20.0000
# 40 texture coords

o floating_shard1
g floating_shard1
s off
f 1/1/1 2/2/1 3/3/1 4/4/1 5/5/1 
f 6/6/2 7/7/2 8/8/2 9/9/2 
f 10/10/3 6/6/3 1/1/3 
f 10/11/4 11/12/4 12/13/4 13/14/4 6/15/4 
f 10/16/5 14/17/5 15/18/5 16/19/5 11/20/5 
f 10/21/6 17/22/6 14/23/6 
f 10/24/7 1/1/7 18/25/7 17/26/7 
f 11/12/8 16/27/8 19/28/8 20/29/8 21/30/8 12/13/8 
f 2/2/9 1/1/9 6/6/9 9/9/9 
f 2/2/10 9/9/10 8/8/10 22/31/10 23/32/10 3/3/10 
f 7/33/11 6/15/11 13/14/11 
f 7/7/12 13/14/12 12/13/12 21/30/12 22/31/12 8/8/12 
f 24/34/13 25/35/13 26/36/13 
f 4/4/14 3/3/14 23/37/14 
f 20/29/15 19/28/15 27/38/15 
f 5/5/16 4/4/16 23/37/16 22/31/16 21/30/16 20/29/16 27/38/16 24/34/16 26/36/16 28/39/16 
f 25/35/17 24/34/17 27/38/17 19/28/17 16/27/17 15/40/17 
f 18/25/18 1/1/18 5/5/18 28/39/18 
f 14/17/19 17/22/19 18/25/19 28/39/19 26/36/19 25/35/19 15/40/19 
# 13 polygons - 6 triangles

