# 3ds Max Wavefront OBJ Exporter v0.97b - (c)2007 guruware
# File Created: 24.05.2019 16:07:48

#
# object floating_shard5
#

v  -0.0529 -0.1821 -0.1269
v  -0.0844 -0.1192 -0.1177
v  -0.0677 0.0022 -0.1102
v  0.0329 -0.0432 -0.1269
v  -0.0499 -0.1882 -0.1231
v  -0.0348 -0.1821 -0.1245
v  -0.1801 -0.2869 0.0360
v  -0.2620 -0.2363 0.0360
v  -0.1307 -0.1821 -0.0842
v  0.2804 -0.0740 -0.0923
v  0.1901 -0.1643 0.0877
v  -0.0549 -0.2670 0.1224
v  -0.1842 -0.1821 0.1269
v  -0.2861 -0.1821 0.0709
v  0.2861 -0.0549 -0.0931
v  0.2861 0.1213 0.0475
v  0.2797 0.1045 0.0520
v  0.2831 0.1247 0.0496
v  0.0482 -0.0360 -0.1255
v  -0.2746 0.0736 0.1104
v  -0.2035 0.2869 0.0820
v  -0.0691 0.0181 -0.1057
# 22 vertices

vn -0.3035 0.1876 -0.9342
vn 0.1876 -0.7947 -0.5773
vn -0.4911 -0.7947 -0.3568
vn 0.3487 -0.9300 -0.1162
vn -0.4911 -0.7947 0.3568
vn 0.9526 -0.2722 0.1361
vn 0.8682 0.0000 0.4961
vn 0.3035 -0.1876 -0.9342
vn -0.7947 -0.1876 0.5774
vn -0.7947 -0.1876 -0.5774
vn 0.2357 0.2357 0.9428
vn 0.2182 0.8729 -0.4364
vn -0.9129 0.1826 -0.3651
vn -0.0817 0.5715 -0.8165
# 14 vertex normals

vt 0.8000 0.3524 20.0000
vt 0.8147 0.3957 20.0000
vt 0.8107 0.4791 20.0000
vt 0.7676 0.4480 20.0000
vt 0.7977 0.3443 20.0000
vt 0.7925 0.3524 20.0000
vt -0.0395 0.2133 20.0000
vt -0.0204 0.2805 20.0000
vt -0.1476 0.3524 20.0000
vt -0.2000 0.3524 20.0000
vt -0.1977 0.3443 20.0000
vt 0.6638 0.4268 20.0000
vt 0.3982 0.3560 20.0000
vt 0.1825 0.2397 20.0000
vt 0.0395 0.2133 20.0000
vt 0.1115 0.3524 20.0000
vt 0.0428 0.3524 20.0000
vt 0.0204 0.2805 20.0000
vt 0.1381 0.2397 20.0000
vt 0.6618 0.4399 20.0000
vt 0.4858 0.5859 20.0000
vt 0.4776 0.5724 20.0000
vt 0.4854 0.5898 20.0000
vt 0.7615 0.4529 20.0000
vt 0.0772 0.5282 20.0000
vt -0.1853 0.3957 20.0000
vt 0.1846 0.7021 20.0000
vt 0.0537 0.7021 20.0000
vt 0.7951 0.4906 20.0000
vt 0.7978 0.4906 20.0000
# 30 texture coords

o floating_shard5
g floating_shard5
s off
f 1/1/1 2/2/1 3/3/1 4/4/1 
f 5/5/2 1/1/2 6/6/2 
f 7/7/3 8/8/3 9/9/3 1/10/3 5/11/3 
f 6/6/4 10/12/4 11/13/4 12/14/4 7/15/4 5/11/4 
f 13/16/5 14/17/5 8/18/5 7/15/5 12/19/5 
f 11/13/6 10/12/6 15/20/6 16/21/6 17/22/6 
f 17/22/7 16/21/7 18/23/7 
f 15/20/8 10/12/8 6/6/8 1/1/8 4/4/8 19/24/8 
f 14/17/9 13/16/9 20/25/9 
f 2/26/10 1/10/10 9/9/10 
f 20/25/11 13/16/11 12/19/11 11/13/11 17/22/11 18/23/11 21/27/11 
f 21/28/12 18/23/12 16/21/12 15/20/12 19/24/12 22/29/12 
f 2/2/13 9/9/13 8/8/13 14/17/13 20/25/13 21/27/13 22/30/13 3/3/13 
f 3/3/14 22/30/14 19/24/14 4/4/14 
# 10 polygons - 4 triangles

