# 3ds Max Wavefront OBJ Exporter v0.97b - (c)2007 guruware
# File Created: 24.05.2019 16:07:46

#
# object floating_shard7
#

v  0.0004 -0.2667 0.0206
v  -0.0394 -0.1871 -0.1018
v  0.0174 -0.1119 -0.1870
v  0.1264 -0.1119 -0.1515
v  0.1762 -0.1324 -0.1072
v  -0.1209 -0.1917 0.0206
v  -0.0576 -0.1507 0.1990
v  -0.0825 -0.1366 0.1961
v  -0.1696 -0.1119 0.1312
v  -0.1827 -0.1119 0.1132
v  0.0544 -0.2254 0.0598
v  0.0586 -0.1935 0.1023
v  -0.0372 -0.1465 0.1981
v  0.2030 -0.1119 -0.0622
v  0.2030 -0.1119 -0.0558
v  -0.0482 0.2435 0.0733
v  0.0045 0.2330 0.1050
v  0.0172 0.2597 0.0724
v  0.0137 0.2667 0.0616
v  0.0565 0.2544 0.0300
v  -0.1348 -0.0890 0.1866
v  -0.2056 0.1063 0.1476
v  -0.0006 0.2088 0.1271
v  -0.0947 0.2207 0.0776
v  -0.1795 0.1559 0.1084
v  -0.1536 0.1757 0.0695
v  -0.2066 0.0992 0.1490
v  0.0224 0.1513 0.1386
v  0.0254 -0.0391 -0.1990
v  0.0397 -0.0277 -0.1966
v  0.0674 0.2496 0.0206
v  0.1404 0.1218 0.0206
v  0.2049 -0.1021 -0.0439
v  0.2066 -0.0932 -0.0456
# 34 vertices

vn 0.1876 -0.7947 -0.5774
vn -0.4911 -0.7947 -0.3568
vn -0.4911 -0.7947 0.3568
vn 0.1876 -0.7947 0.5774
vn 0.6071 -0.7947 -0.0000
vn -0.1876 0.7947 0.5774
vn 0.4911 0.7947 0.3568
vn -0.5966 -0.5369 0.5966
vn -0.2722 0.6804 0.6804
vn -0.6071 0.7947 -0.0000
vn -0.7947 -0.1876 0.5774
vn -0.0000 0.1961 0.9806
vn -0.8321 0.0000 -0.5547
vn 0.3035 -0.1876 -0.9342
vn -0.3586 0.5976 -0.7171
vn 0.6965 0.3980 0.5970
vn 0.7071 0.0000 0.7071
vn 0.6965 0.3980 -0.5970
vn 0.9822 -0.1876 0.0000
vn 0.7274 -0.5819 0.3637
# 20 vertex normals

vt 0.7000 0.0000 20.0000
vt 0.7514 0.1810 20.0000
vt 0.7326 0.3524 20.0000
vt 0.6547 0.3524 20.0000
vt 0.6132 0.3058 20.0000
vt -0.1000 0.0000 20.0000
vt -0.0516 0.1707 20.0000
vt -0.1514 0.1810 20.0000
vt 0.1000 0.0000 20.0000
vt 0.1749 0.2640 20.0000
vt 0.1634 0.2961 20.0000
vt 0.0929 0.3524 20.0000
vt 0.0778 0.3524 20.0000
vt 0.0516 0.1707 20.0000
vt 0.3000 0.0000 20.0000
vt 0.3266 0.0939 20.0000
vt 0.3205 0.1666 20.0000
vt 0.2384 0.2736 20.0000
vt 0.2251 0.2640 20.0000
vt 0.5000 0.0000 20.0000
vt 0.5868 0.3058 20.0000
vt 0.5562 0.3524 20.0000
vt 0.5519 0.3524 20.0000
vt 0.4734 0.0939 20.0000
vt 0.1797 0.8866 20.0000
vt 0.2204 0.8626 20.0000
vt 0.2218 0.9233 20.0000
vt 0.2172 0.9392 20.0000
vt 0.3828 0.9392 20.0000
vt 0.3782 0.9233 20.0000
vt 0.4172 0.9113 20.0000
vt 0.1373 0.3793 20.0000
vt 0.0894 0.6109 20.0000
vt 0.2878 0.8165 20.0000
vt 0.3000 0.8626 20.0000
vt 0.1956 0.8866 20.0000
vt 0.1449 0.8346 20.0000
vt 0.0821 0.6871 20.0000
vt 0.0597 0.6871 20.0000
vt 0.0387 0.8346 20.0000
vt 0.0333 0.7322 20.0000
vt 0.0879 0.6012 20.0000
vt 0.2746 0.7051 20.0000
vt 0.2217 0.8165 20.0000
vt 0.0885 0.6109 20.0000
vt 0.7299 0.4382 20.0000
vt 0.7202 0.4516 20.0000
vt 0.3790 0.9113 20.0000
vt 0.4177 0.9003 20.0000
vt 0.5195 0.9003 20.0000
vt 0.4515 0.6435 20.0000
vt 0.2125 0.2736 20.0000
vt 0.3155 0.1666 20.0000
vt 0.5438 0.3639 20.0000
vt 0.5450 0.3744 20.0000
# 55 texture coords

o floating_shard7
g floating_shard7
s off
f 1/1/1 2/2/1 3/3/1 4/4/1 5/5/1 
f 1/6/2 6/7/2 2/8/2 
f 1/9/3 7/10/3 8/11/3 9/12/3 10/13/3 6/14/3 
f 1/15/4 11/16/4 12/17/4 13/18/4 7/19/4 
f 1/20/5 5/21/5 14/22/5 15/23/5 11/24/5 
f 16/25/6 17/26/6 18/27/6 19/28/6 
f 19/29/7 18/30/7 20/31/7 
f 21/32/8 9/12/8 8/11/8 
f 22/33/9 23/34/9 17/35/9 16/36/9 24/37/9 25/38/9 
f 25/39/10 24/40/10 26/41/10 
f 10/13/11 9/12/11 21/32/11 27/42/11 
f 27/42/12 21/32/12 8/11/12 7/10/12 13/18/12 28/43/12 23/44/12 22/45/12 
f 2/2/13 6/7/13 10/13/13 27/42/13 22/45/13 25/38/13 26/41/13 29/46/13 3/3/13 
f 4/4/14 3/3/14 29/46/14 30/47/14 
f 30/47/15 29/46/15 26/41/15 24/40/15 16/36/15 19/28/15 20/48/15 31/49/15 
f 31/50/16 20/48/16 18/30/16 17/26/16 23/44/16 28/43/16 32/51/16 
f 32/51/17 28/43/17 13/52/17 12/53/17 33/54/17 34/55/17 
f 4/4/18 30/47/18 31/49/18 32/51/18 34/55/18 14/22/18 5/21/18 
f 15/23/19 14/22/19 34/55/19 33/54/19 
f 11/16/20 15/23/20 33/54/20 12/53/20 
# 16 polygons - 4 triangles

