# 3ds Max Wavefront OBJ Exporter v0.97b - (c)2007 guruware
# File Created: 20.05.2019 19:25:15

#
# object stone1
#

v  0.6020 1.1622 -0.4074
v  0.6584 1.9212 -0.2273
v  0.5839 1.9212 0.1173
v  0.1452 2.0000 -0.2787
v  0.5692 1.9212 -0.3782
v  0.1745 2.0000 0.3273
v  0.3255 2.0000 0.3273
v  0.5361 -0.0000 0.5288
v  0.5839 1.8234 0.3273
v  -0.7831 -0.0000 0.4531
v  0.7831 0.1178 -0.4740
v  -0.4902 -0.0000 -0.5288
# 12 vertices

vn 0.9701 -0.1218 0.2098
vn -0.2235 0.0279 -0.9743
vn 0.0000 1.0000 -0.0000
vn 0.0736 0.1076 0.9915
vn -0.9000 0.4337 0.0434
vn 0.5267 0.7705 0.3591
vn 0.8595 0.0568 -0.5081
vn 0.9559 0.1496 0.2529
vn 0.9998 0.0181 0.0084
vn 0.9988 -0.0213 0.0439
vn -0.0328 0.1343 -0.9904
vn 0.0365 0.0699 -0.9969
vn -0.9072 0.3221 -0.2706
vn 0.0000 0.0628 0.9980
vn -0.0571 0.0941 0.9939
vn 0.1485 0.9884 0.0321
vn 0.2378 0.9687 -0.0707
vn 0.1603 0.9825 -0.0948
# 18 vertex normals

vt 1.0000 0.5811 0.0000
vt 0.8491 1.0000 0.0000
vt 0.2100 1.0000 0.0000
vt 0.4094 1.0000 0.0000
vt 0.0892 1.0000 0.0000
vt 0.0000 0.5811 0.0000
vt 0.5906 0.0000 0.0000
vt 0.7416 0.0000 0.0000
vt 0.5906 1.0000 0.0000
vt 1.0000 0.0000 0.0000
vt 1.0000 0.9511 0.0000
vt 0.7416 1.0000 0.0000
vt 0.9795 0.0000 0.0000
vt 1.0000 0.8491 0.0000
vt 0.0000 0.0000 0.0000
vt 0.0000 0.9511 0.0000
vt 0.0205 0.0000 0.0000
vt 1.0000 0.2100 0.0000
vt 0.9108 1.0000 0.0000
# 19 texture coords

o stone1
g stone1
s 16
f 1/1/1 2/2/1 3/3/1 
s 32
f 4/4/2 5/5/2 1/6/2 
s 4
f 6/7/3 7/8/3 4/9/3 
s 8
f 8/10/4 9/11/4 7/12/4 
s 1
f 10/13/5 6/9/5 4/9/5 
s 64
f 3/3/6 7/8/6 9/11/6 
s 128
f 1/1/7 5/5/7 2/14/7 
s 16
f 8/15/8 11/10/8 1/1/8 
f 1/1/9 3/3/9 9/16/9 
f 9/16/10 8/15/10 1/1/10 
s 32
f 1/6/11 12/13/11 4/4/11 
f 1/6/12 11/15/12 12/13/12 
s 1
f 4/9/13 12/13/13 10/13/13 
s 8
f 7/12/14 6/9/14 10/17/14 
f 10/17/15 8/10/15 7/12/15 
s 4
f 3/18/16 2/14/16 4/9/16 
f 4/9/17 7/8/17 3/18/17 
f 2/14/18 5/19/18 4/9/18 
# 0 polygons - 18 triangles

