# 3ds Max Wavefront OBJ Exporter v0.97b - (c)2007 guruware
# File Created: 20.05.2019 19:24:56

#
# object Line005
#

v  -38.0323 -0.0558 -20.7402
v  -30.0815 -0.0558 0.5527
v  -5.8687 -0.0558 1.6597
v  -1.5018 -0.0558 35.0353
v  38.0323 -0.0558 23.0501
v  29.1829 -0.0558 -24.7268
v  -20.8289 -0.0558 -34.7636
v  -5.3447 19.2737 0.9680
v  -1.8513 19.5021 32.2682
v  35.5397 22.3329 21.4869
v  27.0089 21.5727 -23.2936
v  -19.9407 18.2519 -33.1298
v  -35.7816 16.8979 -19.6969
v  -28.0200 17.4582 0.0565
v  -28.5371 -0.0558 27.6642
v  -20.1502 -0.0558 32.0718
v  -3.9278 -0.0558 31.5818
v  -7.6785 -0.0558 3.7841
v  -28.8180 -0.0558 2.7788
v  -8.4442 23.0180 4.4921
v  -27.7923 24.9894 4.3624
v  -27.2742 23.0943 27.1309
v  -19.6620 21.9981 30.8118
v  -4.8321 20.7294 29.9003
v  -28.3268 17.7092 -26.3907
v  -32.2448 17.3870 -10.3063
v  -23.8284 18.4056 -16.0330
v  -17.2391 18.2944 0.4931
v  -12.1656 19.2000 -16.3978
v  -3.0063 19.6901 16.6188
v  15.9448 21.4130 27.1549
v  15.2994 23.7206 10.5276
v  32.3239 21.9160 -0.4533
v  11.0530 21.0848 -12.2024
v  3.7778 20.0870 -29.4149
v  -6.4955 9.6357 1.6974
v  -4.7094 9.7035 18.5925
v  -4.1548 -0.0558 18.3456
v  -1.1378 9.8225 34.7668
v  18.8771 11.5601 29.7589
v  18.1621 -0.0558 28.3873
v  38.0284 11.4450 23.0666
v  35.3595 11.0017 -0.9553
v  33.6473 -0.0558 -0.9101
v  29.0026 10.8848 -24.4418
v  3.9776 9.4700 -31.4633
v  4.2527 -0.0558 -30.1802
v  -20.4887 9.0532 -35.0353
v  -30.2570 8.3459 -28.3574
v  -29.3187 -0.0558 -27.6308
v  -37.9261 8.2438 -20.4468
v  -34.4960 8.5236 -9.4928
v  -33.9496 -0.0558 -10.0557
v  -29.8213 8.5937 0.6754
v  -17.5682 9.4487 1.3640
v  -17.9751 -0.0558 1.2103
v  -23.3215 22.7370 29.5134
v  -12.5603 21.6081 30.6713
v  -15.7637 22.6002 28.2087
v  -6.6377 21.8740 17.7473
v  -17.9596 23.8466 15.7774
v  -18.1786 24.2741 4.3681
v  -27.8737 24.3637 15.1252
v  -7.6732 11.6098 3.5308
v  -18.2740 12.5520 2.4228
v  -18.2484 -0.0558 3.3619
v  -28.7780 12.4891 3.2218
v  -29.1628 11.5404 15.5159
v  -28.8754 -0.0558 15.2220
v  -28.5454 11.3320 27.4061
v  -24.5611 10.8011 30.0925
v  -24.3582 -0.0558 29.8868
v  -19.8103 10.6811 31.8905
v  -11.4682 10.0190 31.8584
v  -12.0391 -0.0558 31.8418
v  -3.8170 10.2436 30.8806
v  -5.4379 11.4123 17.0743
v  -6.1145 -0.0558 17.6821
v  -11.6929 21.2392 -15.6486
v  -16.6233 20.3591 0.7658
v  -5.0644 21.3109 1.2274
v  -2.7919 21.7155 16.4367
v  -1.6696 21.5328 31.6447
v  15.6246 23.3898 26.6757
v  34.6668 24.2838 21.1675
v  31.5417 23.8786 -0.1539
v  10.8708 23.0709 -11.5716
# 87 vertices

vn -0.1016 0.9946 -0.0211
vn -0.1084 0.9940 0.0146
vn -0.0911 0.9958 0.0029
vn -0.0911 0.9958 0.0029
vn -0.0744 0.9966 0.0364
vn -0.0711 0.9974 -0.0084
vn -0.1069 0.9942 0.0075
vn -0.0766 0.9968 0.0212
vn -0.0667 0.9978 -0.0013
vn -0.0667 0.9978 -0.0013
vn -0.0229 0.9995 -0.0200
vn -0.0787 0.9969 -0.0009
vn -0.0711 0.9974 -0.0084
vn -0.0546 0.9982 -0.0232
vn -0.0691 0.9972 -0.0274
vn -0.9770 0.1869 0.1025
vn -0.9770 0.1869 0.1025
vn -0.9770 0.1869 0.1025
vn -0.9746 -0.0608 0.2157
vn -0.9746 -0.0608 0.2157
vn -0.9746 -0.0608 0.2157
vn 0.2059 0.3068 0.9292
vn 0.2059 0.3068 0.9292
vn 0.2059 0.3068 0.9292
vn 0.3264 -0.1306 0.9362
vn 0.3264 -0.1306 0.9362
vn 0.3264 -0.1306 0.9362
vn 0.9561 0.2710 -0.1112
vn 0.9561 0.2710 -0.1112
vn 0.9561 0.2710 -0.1112
vn 0.9547 -0.1489 -0.2577
vn 0.9547 -0.1489 -0.2577
vn 0.9547 -0.1489 -0.2577
vn 0.2555 0.1878 -0.9484
vn 0.2555 0.1878 -0.9484
vn 0.2555 0.1878 -0.9484
vn 0.1454 -0.1279 -0.9811
vn 0.1454 -0.1279 -0.9811
vn 0.1454 -0.1279 -0.9811
vn -0.5556 0.2790 -0.7832
vn -0.5556 0.2790 -0.7832
vn -0.5556 0.2790 -0.7832
vn -0.7101 -0.1390 -0.6902
vn -0.7101 -0.1390 -0.6902
vn -0.7101 -0.1390 -0.6902
vn -0.9233 0.2604 0.2825
vn -0.9233 0.2604 0.2825
vn -0.9233 0.2604 0.2825
vn -0.9051 -0.0850 0.4167
vn -0.9051 -0.0850 0.4167
vn -0.9051 -0.0850 0.4167
vn -0.0628 0.1001 0.9930
vn -0.0628 0.1001 0.9930
vn -0.0628 0.1001 0.9930
vn -0.0298 -0.0149 0.9994
vn -0.0298 -0.0149 0.9994
vn -0.0298 -0.0149 0.9994
vn 0.0396 0.9899 0.1358
vn 0.1172 0.9640 0.2389
vn 0.0928 0.9809 0.1712
vn 0.0928 0.9809 0.1712
vn 0.1594 0.9849 0.0673
vn 0.0955 0.9933 0.0653
vn 0.0955 0.9933 0.0653
vn 0.0944 0.9947 0.0415
vn 0.0533 0.9959 0.0729
vn 0.1168 0.1617 -0.9799
vn 0.1168 0.1617 -0.9799
vn 0.1168 0.1617 -0.9799
vn -0.0752 -0.0742 -0.9944
vn -0.0752 -0.0742 -0.9944
vn -0.0752 -0.0742 -0.9944
vn -0.9948 0.0993 -0.0235
vn -0.9948 0.0993 -0.0235
vn -0.9948 0.0993 -0.0235
vn -0.9983 -0.0260 0.0514
vn -0.9983 -0.0260 0.0514
vn -0.9983 -0.0260 0.0514
vn -0.5475 0.0972 0.8312
vn -0.5475 0.0972 0.8312
vn -0.5475 0.0972 0.8312
vn -0.3544 -0.0243 0.9348
vn -0.3544 -0.0243 0.9348
vn -0.3544 -0.0243 0.9348
vn 0.0120 0.1030 0.9946
vn 0.0120 0.1030 0.9946
vn 0.0120 0.1030 0.9946
vn 0.1270 -0.0088 0.9919
vn 0.1270 -0.0088 0.9919
vn 0.1270 -0.0088 0.9919
vn 0.9871 0.1200 -0.1057
vn 0.9871 0.1200 -0.1057
vn 0.9871 0.1200 -0.1057
vn 0.9843 -0.0667 -0.1634
vn 0.9843 -0.0667 -0.1634
vn 0.9843 -0.0667 -0.1634
vn -0.0763 0.9968 -0.0249
vn -0.1016 0.9946 -0.0211
vn -0.0911 0.9958 0.0029
vn -0.0763 0.9968 -0.0249
vn -0.0911 0.9958 0.0029
vn -0.0711 0.9974 -0.0084
vn -0.0763 0.9968 -0.0249
vn -0.0711 0.9974 -0.0084
vn -0.0691 0.9972 -0.0274
vn -0.1016 0.9946 -0.0211
vn -0.1155 0.9933 -0.0082
vn -0.1084 0.9940 0.0146
vn -0.0850 0.9957 0.0365
vn -0.0744 0.9966 0.0364
vn -0.0911 0.9958 0.0029
vn -0.0911 0.9958 0.0029
vn -0.1084 0.9940 0.0146
vn -0.0850 0.9957 0.0365
vn -0.0983 0.9951 0.0120
vn -0.1069 0.9942 0.0075
vn -0.0667 0.9978 -0.0013
vn -0.0983 0.9951 0.0120
vn -0.0667 0.9978 -0.0013
vn -0.0787 0.9969 -0.0009
vn -0.0983 0.9951 0.0120
vn -0.0787 0.9969 -0.0009
vn -0.0850 0.9960 0.0292
vn -0.0983 0.9951 0.0120
vn -0.0850 0.9960 0.0292
vn -0.0832 0.9961 0.0284
vn -0.1069 0.9942 0.0075
vn -0.1012 0.9947 0.0194
vn -0.0766 0.9968 0.0212
vn -0.0297 0.9996 0.0011
vn -0.0229 0.9995 -0.0200
vn -0.0667 0.9978 -0.0013
vn -0.0667 0.9978 -0.0013
vn -0.0766 0.9968 0.0212
vn -0.0297 0.9996 0.0011
vn -0.0434 0.9989 -0.0186
vn -0.0691 0.9972 -0.0274
vn -0.0546 0.9982 -0.0232
vn -0.0546 0.9982 -0.0232
vn -0.0353 0.9994 -0.0068
vn -0.0434 0.9989 -0.0186
vn -0.9763 -0.0163 0.2157
vn -0.9763 -0.0163 0.2157
vn -0.9763 -0.0163 0.2157
vn -0.9805 0.1819 0.0745
vn -0.9805 0.1819 0.0745
vn -0.9805 0.1819 0.0745
vn -0.9814 0.1280 0.1432
vn -0.9814 0.1280 0.1432
vn -0.9814 0.1280 0.1432
vn -0.9930 -0.0590 0.1020
vn -0.9930 -0.0590 0.1020
vn -0.9930 -0.0590 0.1020
vn -0.9924 -0.0646 0.1052
vn -0.9924 -0.0646 0.1052
vn -0.9924 -0.0646 0.1052
vn -0.9868 0.0406 0.1569
vn -0.9868 0.0406 0.1569
vn -0.9868 0.0406 0.1569
vn 0.3238 0.2079 0.9230
vn 0.3238 0.2079 0.9230
vn 0.3238 0.2079 0.9230
vn 0.2499 0.3162 0.9152
vn 0.2499 0.3162 0.9152
vn 0.2499 0.3162 0.9152
vn 0.2409 0.2592 0.9353
vn 0.2409 0.2592 0.9353
vn 0.2409 0.2592 0.9353
vn 0.3175 -0.1304 0.9392
vn 0.3175 -0.1304 0.9392
vn 0.3175 -0.1304 0.9392
vn 0.2413 0.0175 0.9703
vn 0.2413 0.0175 0.9703
vn 0.2413 0.0175 0.9703
vn 0.2594 -0.0013 0.9658
vn 0.2594 -0.0013 0.9658
vn 0.2594 -0.0013 0.9658
vn 0.9448 0.2038 -0.2567
vn 0.9448 0.2038 -0.2567
vn 0.9448 0.2038 -0.2567
vn 0.9367 0.2707 -0.2220
vn 0.9367 0.2707 -0.2220
vn 0.9367 0.2707 -0.2220
vn 0.9688 0.2003 -0.1458
vn 0.9688 0.2003 -0.1458
vn 0.9688 0.2003 -0.1458
vn 0.9723 -0.1513 -0.1779
vn 0.9723 -0.1513 -0.1779
vn 0.9723 -0.1513 -0.1779
vn 0.9939 0.0005 -0.1104
vn 0.9939 0.0005 -0.1104
vn 0.9939 0.0005 -0.1104
vn 0.9827 0.0210 -0.1842
vn 0.9827 0.0210 -0.1842
vn 0.9827 0.0210 -0.1842
vn 0.1385 0.1930 -0.9714
vn 0.1385 0.1930 -0.9714
vn 0.1385 0.1930 -0.9714
vn 0.1375 0.1901 -0.9721
vn 0.1375 0.1901 -0.9721
vn 0.1375 0.1901 -0.9721
vn 0.2431 0.1483 -0.9586
vn 0.2431 0.1483 -0.9586
vn 0.2431 0.1483 -0.9586
vn 0.2120 -0.1244 -0.9693
vn 0.2120 -0.1244 -0.9693
vn 0.2120 -0.1244 -0.9693
vn 0.2685 0.0295 -0.9628
vn 0.2685 0.0295 -0.9628
vn 0.2685 0.0295 -0.9628
vn 0.1796 -0.0360 -0.9831
vn 0.1796 -0.0360 -0.9831
vn 0.1796 -0.0360 -0.9831
vn -0.6999 0.2320 -0.6755
vn -0.6999 0.2320 -0.6755
vn -0.6999 0.2320 -0.6755
vn -0.6578 0.2823 -0.6983
vn -0.6578 0.2823 -0.6983
vn -0.6578 0.2823 -0.6983
vn -0.6221 0.1942 -0.7585
vn -0.6221 0.1942 -0.7585
vn -0.6221 0.1942 -0.7585
vn -0.6372 -0.1368 -0.7584
vn -0.6372 -0.1368 -0.7584
vn -0.6372 -0.1368 -0.7584
vn -0.5642 -0.0036 -0.8256
vn -0.5642 -0.0036 -0.8256
vn -0.5642 -0.0036 -0.8256
vn -0.6199 0.0356 -0.7839
vn -0.6199 0.0356 -0.7839
vn -0.6199 0.0356 -0.7839
vn -0.8890 0.2091 0.4073
vn -0.8890 0.2091 0.4073
vn -0.8890 0.2091 0.4073
vn -0.8946 0.2605 0.3629
vn -0.8946 0.2605 0.3629
vn -0.8946 0.2605 0.3629
vn -0.9205 0.1989 0.3363
vn -0.9205 0.1989 0.3363
vn -0.9205 0.1989 0.3363
vn -0.9309 -0.0826 0.3557
vn -0.9309 -0.0826 0.3557
vn -0.9309 -0.0826 0.3557
vn -0.9543 0.0016 0.2988
vn -0.9543 0.0016 0.2988
vn -0.9543 0.0016 0.2988
vn -0.9392 0.0234 0.3425
vn -0.9392 0.0234 0.3425
vn -0.9392 0.0234 0.3425
vn -0.0313 0.0791 0.9964
vn -0.0313 0.0791 0.9964
vn -0.0313 0.0791 0.9964
vn -0.0479 0.0996 0.9939
vn -0.0479 0.0996 0.9939
vn -0.0479 0.0996 0.9939
vn -0.0464 0.0790 0.9958
vn -0.0464 0.0790 0.9958
vn -0.0464 0.0790 0.9958
vn -0.0542 -0.0138 0.9984
vn -0.0542 -0.0138 0.9984
vn -0.0542 -0.0138 0.9984
vn -0.0552 -0.0125 0.9984
vn -0.0552 -0.0125 0.9984
vn -0.0552 -0.0125 0.9984
vn -0.0371 -0.0063 0.9993
vn -0.0371 -0.0063 0.9993
vn -0.0371 -0.0063 0.9993
vn 0.0377 0.9946 0.0966
vn 0.0396 0.9899 0.1358
vn 0.0928 0.9809 0.1712
vn 0.0377 0.9946 0.0966
vn 0.0928 0.9809 0.1712
vn 0.0955 0.9933 0.0653
vn 0.0377 0.9946 0.0966
vn 0.0955 0.9933 0.0653
vn 0.0533 0.9959 0.0729
vn 0.0396 0.9899 0.1358
vn 0.0583 0.9293 0.3647
vn 0.1172 0.9640 0.2389
vn 0.1537 0.9836 0.0947
vn 0.1594 0.9849 0.0673
vn 0.0928 0.9809 0.1712
vn 0.0928 0.9809 0.1712
vn 0.1172 0.9640 0.2389
vn 0.1537 0.9836 0.0947
vn 0.1437 0.9884 0.0486
vn 0.0944 0.9947 0.0415
vn 0.0955 0.9933 0.0653
vn 0.0955 0.9933 0.0653
vn 0.1594 0.9849 0.0673
vn 0.1437 0.9884 0.0486
vn 0.0533 0.9959 0.0729
vn 0.0944 0.9947 0.0415
vn 0.0740 0.9955 0.0584
vn -0.0761 0.0966 -0.9924
vn -0.0761 0.0966 -0.9924
vn -0.0761 0.0966 -0.9924
vn 0.0128 0.1636 -0.9864
vn 0.0128 0.1636 -0.9864
vn 0.0128 0.1636 -0.9864
vn 0.0237 0.0855 -0.9961
vn 0.0237 0.0855 -0.9961
vn 0.0237 0.0855 -0.9961
vn 0.0398 -0.0741 -0.9965
vn 0.0398 -0.0741 -0.9965
vn 0.0398 -0.0741 -0.9965
vn 0.1020 -0.0216 -0.9945
vn 0.1020 -0.0216 -0.9945
vn 0.1020 -0.0216 -0.9945
vn 0.0550 0.0351 -0.9979
vn 0.0550 0.0351 -0.9979
vn 0.0550 0.0351 -0.9979
vn -0.9927 0.1085 0.0535
vn -0.9927 0.1085 0.0535
vn -0.9927 0.1085 0.0535
vn -0.9930 0.1017 0.0603
vn -0.9930 0.1017 0.0603
vn -0.9930 0.1017 0.0603
vn -0.9969 0.0789 -0.0030
vn -0.9969 0.0789 -0.0030
vn -0.9969 0.0789 -0.0030
vn -0.9997 -0.0247 -0.0046
vn -0.9997 -0.0247 -0.0046
vn -0.9997 -0.0247 -0.0046
vn -0.9995 0.0043 -0.0310
vn -0.9995 0.0043 -0.0310
vn -0.9995 0.0043 -0.0310
vn -0.9996 -0.0001 0.0272
vn -0.9996 -0.0001 0.0272
vn -0.9996 -0.0001 0.0272
vn -0.3503 0.0934 0.9320
vn -0.3503 0.0934 0.9320
vn -0.3503 0.0934 0.9320
vn -0.3191 0.0790 0.9444
vn -0.3191 0.0790 0.9444
vn -0.3191 0.0790 0.9444
vn -0.5098 0.0751 0.8570
vn -0.5098 0.0751 0.8570
vn -0.5098 0.0751 0.8570
vn -0.4694 -0.0255 0.8826
vn -0.4694 -0.0255 0.8826
vn -0.4694 -0.0255 0.8826
vn -0.5573 0.0184 0.8301
vn -0.5573 0.0184 0.8301
vn -0.5573 0.0184 0.8301
vn -0.4606 0.0296 0.8871
vn -0.4606 0.0296 0.8871
vn -0.4606 0.0296 0.8871
vn 0.1231 0.1042 0.9869
vn 0.1231 0.1042 0.9869
vn 0.1231 0.1042 0.9869
vn 0.1112 0.1116 0.9875
vn 0.1112 0.1116 0.9875
vn 0.1112 0.1116 0.9875
vn 0.0249 0.0945 0.9952
vn 0.0249 0.0945 0.9952
vn 0.0249 0.0945 0.9952
vn 0.0283 -0.0033 0.9996
vn 0.0283 -0.0033 0.9996
vn 0.0283 -0.0033 0.9996
vn 0.0052 0.0167 0.9998
vn 0.0052 0.0167 0.9998
vn 0.0052 0.0167 0.9998
vn 0.0320 0.0676 0.9972
vn 0.0320 0.0676 0.9972
vn 0.0320 0.0676 0.9972
vn 0.9837 0.0801 -0.1612
vn 0.9837 0.0801 -0.1612
vn 0.9837 0.0801 -0.1612
vn 0.9849 0.1209 -0.1238
vn 0.9849 0.1209 -0.1238
vn 0.9849 0.1209 -0.1238
vn 0.9869 0.0826 -0.1388
vn 0.9869 0.0826 -0.1388
vn 0.9869 0.0826 -0.1388
vn 0.9857 -0.0664 -0.1551
vn 0.9857 -0.0664 -0.1551
vn 0.9857 -0.0664 -0.1551
vn 0.9928 -0.0187 -0.1181
vn 0.9928 -0.0187 -0.1181
vn 0.9928 -0.0187 -0.1181
vn 0.9937 -0.0029 -0.1118
vn 0.9937 -0.0029 -0.1118
vn 0.9937 -0.0029 -0.1118
vn -0.9158 0.3073 -0.2586
vn -0.9158 0.3073 -0.2586
vn -0.9158 0.3073 -0.2586
vn -0.9158 0.3073 -0.2586
vn -0.9158 0.3073 -0.2586
vn -0.9158 0.3073 -0.2586
vn -0.0295 -0.1222 0.9921
vn -0.0295 -0.1222 0.9921
vn -0.0295 -0.1222 0.9921
vn -0.0295 -0.1222 0.9921
vn -0.0295 -0.1222 0.9921
vn -0.0295 -0.1222 0.9921
vn -0.9827 0.1169 0.1437
vn -0.9827 0.1169 0.1437
vn -0.9827 0.1169 0.1437
vn -0.9827 0.1169 0.1437
vn -0.9827 0.1169 0.1437
vn -0.9827 0.1169 0.1437
vn -0.9910 0.1116 0.0745
vn -0.9910 0.1116 0.0745
vn -0.9910 0.1116 0.0745
vn -0.9910 0.1116 0.0745
vn -0.9910 0.1116 0.0745
vn -0.9910 0.1116 0.0745
vn 0.2398 0.2653 0.9339
vn 0.2398 0.2653 0.9339
vn 0.2398 0.2653 0.9339
vn 0.2398 0.2653 0.9339
vn 0.2398 0.2653 0.9339
vn 0.2398 0.2653 0.9339
vn 0.2562 0.2668 0.9291
vn 0.2562 0.2668 0.9291
vn 0.2562 0.2668 0.9291
vn 0.2562 0.2668 0.9291
vn 0.2562 0.2668 0.9291
vn 0.2562 0.2668 0.9291
vn 0.9121 0.3850 -0.1410
vn 0.9121 0.3850 -0.1410
vn 0.9121 0.3850 -0.1410
vn 0.9121 0.3850 -0.1410
vn 0.9121 0.3850 -0.1410
vn 0.9121 0.3850 -0.1410
vn 0.4508 0.3075 -0.8380
vn 0.4508 0.3075 -0.8380
vn 0.4508 0.3075 -0.8380
vn 0.4508 0.3075 -0.8380
vn 0.4508 0.3075 -0.8380
vn 0.4508 0.3075 -0.8380
vn 0.1444 0.3116 -0.9392
vn 0.1444 0.3116 -0.9392
vn 0.1444 0.3116 -0.9392
vn 0.1444 0.3116 -0.9392
vn 0.1444 0.3116 -0.9392
vn 0.1444 0.3116 -0.9392
vn 0.0000 -1.0000 -0.0000
vn 0.0000 -1.0000 -0.0000
vn 0.0000 -1.0000 -0.0000
vn 0.0000 -1.0000 -0.0000
vn 0.0000 -1.0000 -0.0000
vn 0.0000 -1.0000 -0.0000
vn -0.0000 -1.0000 0.0000
vn -0.0000 -1.0000 0.0000
vn -0.0000 -1.0000 0.0000
vn -0.0000 -1.0000 0.0000
vn -0.0000 -1.0000 0.0000
vn -0.0000 -1.0000 0.0000
vn -0.0000 -1.0000 0.0000
vn -0.0000 -1.0000 0.0000
vn -0.0000 -1.0000 0.0000
vn -0.0000 -1.0000 0.0000
vn -0.0000 -1.0000 0.0000
vn -0.0000 -1.0000 0.0000
vn -0.0000 -1.0000 0.0000
vn -0.0000 -1.0000 0.0000
vn -0.0000 -1.0000 0.0000
vn -0.0000 -1.0000 -0.0000
vn -0.0000 -1.0000 -0.0000
vn -0.0000 -1.0000 -0.0000
vn 0.0000 -1.0000 0.0000
vn 0.0000 -1.0000 0.0000
vn 0.0000 -1.0000 0.0000
vn 0.0000 -1.0000 0.0000
vn 0.0000 -1.0000 0.0000
vn 0.0000 -1.0000 0.0000
vn 0.0000 -1.0000 -0.0000
vn 0.0000 -1.0000 -0.0000
vn 0.0000 -1.0000 -0.0000
vn -0.0000 -1.0000 0.0000
vn -0.0000 -1.0000 0.0000
vn -0.0000 -1.0000 0.0000
vn -0.0000 -1.0000 0.0000
vn -0.0000 -1.0000 0.0000
vn -0.0000 -1.0000 0.0000
vn 0.0000 -1.0000 -0.0000
vn 0.0000 -1.0000 -0.0000
vn 0.0000 -1.0000 -0.0000
vn 0.0000 -1.0000 -0.0000
vn 0.0000 -1.0000 -0.0000
vn 0.0000 -1.0000 -0.0000
vn 0.0000 -1.0000 -0.0000
vn 0.0000 -1.0000 -0.0000
vn 0.0000 -1.0000 -0.0000
vn 0.0000 -1.0000 -0.0000
vn 0.0000 -1.0000 -0.0000
vn 0.0000 -1.0000 -0.0000
vn 0.0000 -1.0000 -0.0000
vn 0.0000 -1.0000 -0.0000
vn 0.0000 -1.0000 -0.0000
vn -0.0000 -1.0000 0.0000
vn -0.0000 -1.0000 0.0000
vn -0.0000 -1.0000 0.0000
vn 0.0000 -1.0000 -0.0000
vn 0.0000 -1.0000 -0.0000
vn 0.0000 -1.0000 -0.0000
# 498 vertex normals

o Line005
g Line005
s 1
f 25//1 26//2 27//3 
f 27//4 28//5 29//6 
f 82//7 84//8 32//9 
f 32//10 86//11 87//12 
f 29//13 34//14 35//15 
s off
f 30//16 36//17 37//18 
f 38//19 39//20 37//21 
f 31//22 39//23 40//24 
f 41//25 42//26 40//27 
f 33//28 42//29 43//30 
f 44//31 45//32 43//33 
f 35//34 45//35 46//36 
f 47//37 48//38 46//39 
f 25//40 48//41 49//42 
f 50//43 51//44 49//45 
f 26//46 51//47 52//48 
f 53//49 54//50 52//51 
f 28//52 54//53 55//54 
f 56//55 36//56 55//57 
s 1
f 57//58 58//59 59//60 
f 59//61 60//62 61//63 
f 61//64 62//65 63//66 
s off
f 62//67 64//68 65//69 
f 66//70 67//71 65//72 
f 63//73 67//74 68//75 
f 69//76 70//77 68//78 
f 57//79 70//80 71//81 
f 72//82 73//83 71//84 
f 58//85 73//86 74//87 
f 75//88 76//89 74//90 
f 60//91 76//92 77//93 
f 78//94 64//95 77//96 
s 1
f 12//97 25//98 27//99 
f 12//100 27//101 29//102 
f 12//103 29//104 35//105 
f 25//106 13//107 26//108 
f 14//109 28//110 27//111 
f 27//112 26//113 14//114 
f 81//115 82//116 32//117 
f 81//118 32//119 87//120 
f 81//121 87//122 79//123 
f 81//124 79//125 80//126 
f 82//127 83//128 84//129 
f 85//130 86//131 32//132 
f 32//133 84//134 85//135 
f 11//136 35//137 34//138 
f 34//139 33//140 11//141 
s off
f 37//142 39//143 9//144 
f 9//145 30//146 37//147 
f 30//148 8//149 36//150 
f 3//151 38//152 37//153 
f 37//154 36//155 3//156 
f 38//157 4//158 39//159 
f 40//160 42//161 10//162 
f 10//163 31//164 40//165 
f 31//166 9//167 39//168 
f 4//169 41//170 40//171 
f 40//172 39//173 4//174 
f 41//175 5//176 42//177 
f 43//178 45//179 11//180 
f 11//181 33//182 43//183 
f 33//184 10//185 42//186 
f 5//187 44//188 43//189 
f 43//190 42//191 5//192 
f 44//193 6//194 45//195 
f 46//196 48//197 12//198 
f 12//199 35//200 46//201 
f 35//202 11//203 45//204 
f 6//205 47//206 46//207 
f 46//208 45//209 6//210 
f 47//211 7//212 48//213 
f 49//214 51//215 13//216 
f 13//217 25//218 49//219 
f 25//220 12//221 48//222 
f 7//223 50//224 49//225 
f 49//226 48//227 7//228 
f 50//229 1//230 51//231 
f 52//232 54//233 14//234 
f 14//235 26//236 52//237 
f 26//238 13//239 51//240 
f 1//241 53//242 52//243 
f 52//244 51//245 1//246 
f 53//247 2//248 54//249 
f 55//250 36//251 8//252 
f 8//253 28//254 55//255 
f 28//256 14//257 54//258 
f 2//259 56//260 55//261 
f 55//262 54//263 2//264 
f 56//265 3//266 36//267 
s 1
f 22//268 57//269 59//270 
f 22//271 59//272 61//273 
f 22//274 61//275 63//276 
f 57//277 23//278 58//279 
f 24//280 60//281 59//282 
f 59//283 58//284 24//285 
f 20//286 62//287 61//288 
f 61//289 60//290 20//291 
f 63//292 62//293 21//294 
s off
f 65//295 67//296 21//297 
f 21//298 62//299 65//300 
f 62//301 20//302 64//303 
f 18//304 66//305 65//306 
f 65//307 64//308 18//309 
f 66//310 19//311 67//312 
f 68//313 70//314 22//315 
f 22//316 63//317 68//318 
f 63//319 21//320 67//321 
f 19//322 69//323 68//324 
f 68//325 67//326 19//327 
f 69//328 15//329 70//330 
f 71//331 73//332 23//333 
f 23//334 57//335 71//336 
f 57//337 22//338 70//339 
f 15//340 72//341 71//342 
f 71//343 70//344 15//345 
f 72//346 16//347 73//348 
f 74//349 76//350 24//351 
f 24//352 58//353 74//354 
f 58//355 23//356 73//357 
f 16//358 75//359 74//360 
f 74//361 73//362 16//363 
f 75//364 17//365 76//366 
f 77//367 64//368 20//369 
f 20//370 60//371 77//372 
f 60//373 24//374 76//375 
f 17//376 78//377 77//378 
f 77//379 76//380 17//381 
f 78//382 18//383 64//384 
f 29//385 28//386 80//387 
f 80//388 79//389 29//390 
f 28//391 8//392 81//393 
f 81//394 80//395 28//396 
f 8//397 30//398 82//399 
f 82//400 81//401 8//402 
f 30//403 9//404 83//405 
f 83//406 82//407 30//408 
f 9//409 31//410 84//411 
f 84//412 83//413 9//414 
f 31//415 10//416 85//417 
f 85//418 84//419 31//420 
f 10//421 33//422 86//423 
f 86//424 85//425 10//426 
f 33//427 34//428 87//429 
f 87//430 86//431 33//432 
f 34//433 29//434 79//435 
f 79//436 87//437 34//438 
f 3//439 56//440 2//441 
f 3//442 2//443 53//444 
f 53//445 1//446 50//447 
f 50//448 7//449 47//450 
f 53//451 50//452 47//453 
f 3//454 53//455 47//456 
f 47//457 6//458 44//459 
f 44//460 5//461 41//462 
f 47//463 44//464 41//465 
f 3//466 47//467 41//468 
f 3//469 41//470 4//471 
f 3//472 4//473 38//474 
f 78//475 17//476 75//477 
f 75//478 16//479 72//480 
f 72//481 15//482 69//483 
f 75//484 72//485 69//486 
f 69//487 19//488 66//489 
f 75//490 69//491 66//492 
f 78//493 75//494 66//495 
f 18//496 78//497 66//498 
# 166 faces

