# 3ds Max Wavefront OBJ Exporter v0.97b - (c)2007 guruware
# File Created: 20.05.2019 19:23:18

#
# object Line002
#

v  4.9201 0.1869 -50.5754
v  -1.9701 0.1869 -37.1081
v  -16.0521 0.1869 -40.0821
v  -22.7610 0.1869 -32.5618
v  -34.6076 0.1869 10.5041
v  -13.8003 0.1869 47.9181
v  13.9083 0.1869 44.9402
v  34.6076 0.1869 -7.8543
v  32.2999 0.1869 -36.0639
v  29.2643 16.7948 -36.9744
v  4.3071 27.4056 -49.8463
v  -2.0097 29.5473 -35.7777
v  -14.8959 35.9579 -37.0395
v  -20.9026 38.3501 -28.7553
v  -29.8413 42.4789 15.5096
v  -10.9911 36.5987 50.5754
v  13.5945 24.2872 44.7735
v  31.4833 15.8772 -8.8180
v  16.4636 22.7395 -44.7565
v  0.5326 28.9449 -43.9728
v  13.4197 24.1779 -38.9535
v  -8.1154 33.4603 -36.9575
v  -17.3969 37.6059 -34.2245
v  -10.6160 40.2624 -31.2730
v  -25.3792 39.6024 -9.3809
v  -14.9829 40.9136 -9.1730
v  -20.6224 39.2499 31.2211
v  -5.4147 36.9805 8.9264
v  1.0089 30.2157 46.3190
v  6.1409 27.0042 4.4746
v  22.0920 19.8102 16.9380
v  15.6411 22.5066 -23.9464
v  30.3848 16.5451 -25.0400
v  18.6063 0.1869 -43.7349
v  4.6247 14.0927 -50.0193
v  18.4651 13.0719 -45.1289
v  31.0317 9.1329 -36.1541
v  1.4628 0.1869 -43.8658
v  -1.6544 14.5418 -37.0880
v  0.3739 14.6547 -43.5996
v  -9.0121 0.1869 -38.7302
v  -15.5243 18.2465 -38.5965
v  -8.3384 17.1489 -37.8151
v  -19.4153 0.1869 -36.3408
v  -22.3493 19.4023 -29.9100
v  -19.0068 19.1288 -35.6848
v  -29.1604 0.1869 -11.0590
v  -32.2710 20.9402 13.8002
v  -28.5681 20.7135 -8.4029
v  -24.1325 0.1869 29.0542
v  -12.7895 18.6455 49.9142
v  -23.6310 18.8779 33.7080
v  0.0505 0.1869 45.8882
v  13.6424 11.8195 45.4364
v  0.3166 13.5621 50.0944
v  23.9801 0.1869 18.3842
v  33.1719 8.3262 -7.0774
v  24.1485 8.1397 19.2802
v  33.2816 0.1869 -21.9602
v  33.6003 8.7681 -23.1672
v  14.1778 28.2098 -37.7564
v  1.7708 32.7993 -42.5886
v  -0.6768 33.3792 -34.6989
v  -6.5550 37.1463 -35.8347
v  -13.0828 39.5509 -35.9137
v  -15.4906 41.1376 -33.2036
v  -18.8658 41.8540 -27.9381
v  -23.1755 43.0596 -9.2856
v  -27.4715 45.8290 14.6776
v  -18.5960 42.7203 29.8037
v  -9.3235 40.1679 48.4369
v  2.2293 34.0227 44.3390
v  14.3460 28.3151 42.8511
v  22.5270 24.0049 16.0527
v  7.1701 30.9308 4.0537
v  16.3164 26.6008 -23.3084
v  6.9285 28.8425 4.4877
v  22.8797 21.6486 16.9510
v  32.2709 17.7155 -8.8049
v  31.1724 18.3834 -25.0270
v  14.2074 26.0163 -38.9405
v  16.4287 24.3450 -23.9334
# 82 vertices

vn 0.3940 0.9189 -0.0170
vn 0.3620 0.9320 -0.0205
vn 0.3918 0.9197 -0.0254
vn 0.4926 0.8589 -0.1399
vn 0.2388 0.9623 -0.1304
vn 0.3953 0.9140 -0.0909
vn 0.3953 0.9140 -0.0909
vn 0.2468 0.9685 -0.0322
vn 0.3519 0.9360 -0.0104
vn 0.3519 0.9360 -0.0104
vn 0.3511 0.9359 -0.0301
vn 0.4106 0.9116 -0.0192
vn 0.4106 0.9116 -0.0192
vn 0.4436 0.8960 -0.0215
vn 0.4193 0.9076 -0.0217
vn 0.4146 0.9100 -0.0054
vn 0.4030 0.9152 -0.0032
vn 0.3841 0.9230 0.0235
vn 0.3774 0.9248 0.0471
vn 0.3841 0.9230 0.0235
vn 0.3763 0.9262 0.0234
vn 0.3251 -0.0982 -0.9406
vn 0.3251 -0.0982 -0.9406
vn 0.3251 -0.0982 -0.9406
vn 0.6059 0.1555 -0.7802
vn 0.6059 0.1555 -0.7802
vn 0.6059 0.1555 -0.7802
vn -0.9523 -0.0662 -0.2978
vn -0.9523 -0.0662 -0.2978
vn -0.9523 -0.0662 -0.2978
vn -0.8340 -0.0051 -0.5518
vn -0.8340 -0.0051 -0.5518
vn -0.8340 -0.0051 -0.5518
vn 0.1154 0.0489 -0.9921
vn 0.1154 0.0489 -0.9921
vn 0.1154 0.0489 -0.9921
vn 0.1274 0.0503 -0.9906
vn 0.1274 0.0503 -0.9906
vn 0.1274 0.0503 -0.9906
vn -0.8642 0.0360 -0.5019
vn -0.8642 0.0360 -0.5019
vn -0.8642 0.0360 -0.5019
vn -0.6198 0.1154 -0.7762
vn -0.6198 0.1154 -0.7762
vn -0.6198 0.1154 -0.7762
vn -0.9851 0.0497 -0.1648
vn -0.9851 0.0497 -0.1648
vn -0.9851 0.0497 -0.1648
vn -0.9480 0.1454 -0.2830
vn -0.9480 0.1454 -0.2830
vn -0.9480 0.1454 -0.2830
vn -0.8264 -0.1151 0.5512
vn -0.8264 -0.1151 0.5512
vn -0.8264 -0.1151 0.5512
vn -0.8950 0.1819 0.4073
vn -0.8950 0.1819 0.4073
vn -0.8950 0.1819 0.4073
vn 0.2811 -0.2930 0.9139
vn 0.2811 -0.2930 0.9139
vn 0.2811 -0.2930 0.9139
vn 0.0711 0.2177 0.9734
vn 0.0711 0.2177 0.9734
vn 0.0711 0.2177 0.9734
vn 0.9447 -0.0564 0.3230
vn 0.9447 -0.0564 0.3230
vn 0.9447 -0.0564 0.3230
vn 0.9141 0.2283 0.3351
vn 0.9141 0.2283 0.3351
vn 0.9141 0.2283 0.3351
vn 0.9787 -0.0638 -0.1954
vn 0.9787 -0.0638 -0.1954
vn 0.9787 -0.0638 -0.1954
vn 0.9205 0.3891 0.0352
vn 0.9205 0.3891 0.0352
vn 0.9205 0.3891 0.0352
vn 0.3918 0.9197 -0.0254
vn 0.4244 0.9052 -0.0209
vn 0.4241 0.9054 -0.0177
vn 0.4241 0.9054 -0.0177
vn 0.3940 0.9189 -0.0170
vn 0.3918 0.9197 -0.0254
vn 0.3940 0.9189 -0.0170
vn 0.3625 0.9319 -0.0113
vn 0.3620 0.9320 -0.0205
vn 0.4231 0.9059 0.0163
vn 0.4926 0.8589 -0.1399
vn 0.3953 0.9140 -0.0909
vn 0.4231 0.9059 0.0163
vn 0.3953 0.9140 -0.0909
vn 0.3519 0.9360 -0.0104
vn 0.4231 0.9059 0.0163
vn 0.3519 0.9360 -0.0104
vn 0.4106 0.9116 -0.0192
vn 0.4231 0.9059 0.0163
vn 0.4106 0.9116 -0.0192
vn 0.4193 0.9076 -0.0217
vn 0.4231 0.9059 0.0163
vn 0.4193 0.9076 -0.0217
vn 0.3678 0.9299 0.0047
vn 0.4231 0.9059 0.0163
vn 0.3678 0.9299 0.0047
vn 0.3373 0.9401 0.0494
vn 0.4231 0.9059 0.0163
vn 0.3373 0.9401 0.0494
vn 0.3348 0.9416 0.0347
vn 0.4926 0.8589 -0.1399
vn 0.3386 0.9116 -0.2329
vn 0.2388 0.9623 -0.1304
vn 0.1814 0.9832 -0.0206
vn 0.2468 0.9685 -0.0322
vn 0.3953 0.9140 -0.0909
vn 0.3953 0.9140 -0.0909
vn 0.2388 0.9623 -0.1304
vn 0.1814 0.9832 -0.0206
vn 0.3356 0.9418 -0.0184
vn 0.3511 0.9359 -0.0301
vn 0.3519 0.9360 -0.0104
vn 0.3519 0.9360 -0.0104
vn 0.2468 0.9685 -0.0322
vn 0.3356 0.9418 -0.0184
vn 0.4221 0.9060 -0.0313
vn 0.4436 0.8960 -0.0215
vn 0.4106 0.9116 -0.0192
vn 0.4106 0.9116 -0.0192
vn 0.3511 0.9359 -0.0301
vn 0.4221 0.9060 -0.0313
vn 0.4237 0.9056 -0.0173
vn 0.4220 0.9064 -0.0169
vn 0.4193 0.9076 -0.0217
vn 0.4193 0.9076 -0.0217
vn 0.4436 0.8960 -0.0215
vn 0.4237 0.9056 -0.0173
vn 0.3831 0.9237 0.0036
vn 0.3763 0.9262 0.0234
vn 0.3841 0.9230 0.0235
vn 0.3841 0.9230 0.0235
vn 0.4030 0.9152 -0.0032
vn 0.3831 0.9237 0.0036
vn 0.5952 0.0763 -0.7999
vn 0.5952 0.0763 -0.7999
vn 0.5952 0.0763 -0.7999
vn 0.4868 -0.0887 -0.8690
vn 0.4868 -0.0887 -0.8690
vn 0.4868 -0.0887 -0.8690
vn 0.4466 0.0452 -0.8936
vn 0.4466 0.0452 -0.8936
vn 0.4466 0.0452 -0.8936
vn 0.4228 0.1221 -0.8979
vn 0.4228 0.1221 -0.8979
vn 0.4228 0.1221 -0.8979
vn 0.3344 0.0202 -0.9422
vn 0.3344 0.0202 -0.9422
vn 0.3344 0.0202 -0.9422
vn 0.5299 0.0315 -0.8475
vn 0.5299 0.0315 -0.8475
vn 0.5299 0.0315 -0.8475
vn -0.8336 0.0044 -0.5524
vn -0.8336 0.0044 -0.5524
vn -0.8336 0.0044 -0.5524
vn -0.8874 -0.0584 -0.4573
vn -0.8874 -0.0584 -0.4573
vn -0.8874 -0.0584 -0.4573
vn -0.8914 0.0202 -0.4528
vn -0.8914 0.0202 -0.4528
vn -0.8914 0.0202 -0.4528
vn -0.9550 0.0029 -0.2965
vn -0.9550 0.0029 -0.2965
vn -0.9550 0.0029 -0.2965
vn -0.9548 0.0034 -0.2973
vn -0.9548 0.0034 -0.2973
vn -0.9548 0.0034 -0.2973
vn -0.8428 -0.0131 -0.5381
vn -0.8428 -0.0131 -0.5381
vn -0.8428 -0.0131 -0.5381
vn 0.1078 -0.0010 -0.9942
vn 0.1078 -0.0010 -0.9942
vn 0.1078 -0.0010 -0.9942
vn 0.2243 0.0436 -0.9736
vn 0.2243 0.0436 -0.9736
vn 0.2243 0.0436 -0.9736
vn 0.1881 0.0751 -0.9793
vn 0.1881 0.0751 -0.9793
vn 0.1881 0.0751 -0.9793
vn 0.0312 0.0521 -0.9982
vn 0.0312 0.0521 -0.9982
vn 0.0312 0.0521 -0.9982
vn 0.1202 0.0827 -0.9893
vn 0.1202 0.0827 -0.9893
vn 0.1202 0.0827 -0.9893
vn 0.2443 0.0901 -0.9655
vn 0.2443 0.0901 -0.9655
vn 0.2443 0.0901 -0.9655
vn -0.6270 0.0820 -0.7747
vn -0.6270 0.0820 -0.7747
vn -0.6270 0.0820 -0.7747
vn -0.7431 0.0392 -0.6680
vn -0.7431 0.0392 -0.6680
vn -0.7431 0.0392 -0.6680
vn -0.7444 0.1069 -0.6591
vn -0.7444 0.1069 -0.6591
vn -0.7444 0.1069 -0.6591
vn -0.8290 0.1155 -0.5471
vn -0.8290 0.1155 -0.5471
vn -0.8290 0.1155 -0.5471
vn -0.8595 0.0962 -0.5020
vn -0.8595 0.0962 -0.5020
vn -0.8595 0.0962 -0.5020
vn -0.7192 0.0861 -0.6894
vn -0.7192 0.0861 -0.6894
vn -0.7192 0.0861 -0.6894
vn -0.9580 0.0593 -0.2806
vn -0.9580 0.0593 -0.2806
vn -0.9580 0.0593 -0.2806
vn -0.9565 0.0644 -0.2846
vn -0.9565 0.0644 -0.2846
vn -0.9565 0.0644 -0.2846
vn -0.9591 0.1465 -0.2423
vn -0.9591 0.1465 -0.2423
vn -0.9591 0.1465 -0.2423
vn -0.9694 0.1537 -0.1915
vn -0.9694 0.1537 -0.1915
vn -0.9694 0.1537 -0.1915
vn -0.9786 0.1234 -0.1645
vn -0.9786 0.1234 -0.1645
vn -0.9786 0.1234 -0.1645
vn -0.9693 0.0880 -0.2296
vn -0.9693 0.0880 -0.2296
vn -0.9693 0.0880 -0.2296
vn -0.9151 0.0393 0.4012
vn -0.9151 0.0393 0.4012
vn -0.9151 0.0393 0.4012
vn -0.8665 -0.0986 0.4893
vn -0.8665 -0.0986 0.4893
vn -0.8665 -0.0986 0.4893
vn -0.8771 -0.0039 0.4804
vn -0.8771 -0.0039 0.4804
vn -0.8771 -0.0039 0.4804
vn -0.8696 0.1843 0.4580
vn -0.8696 0.1843 0.4580
vn -0.8696 0.1843 0.4580
vn -0.8291 0.0626 0.5556
vn -0.8291 0.0626 0.5556
vn -0.8291 0.0626 0.5556
vn -0.8561 0.0558 0.5138
vn -0.8561 0.0558 0.5138
vn -0.8561 0.0558 0.5138
vn -0.0542 -0.1044 0.9931
vn -0.0542 -0.1044 0.9931
vn -0.0542 -0.1044 0.9931
vn 0.1383 -0.2996 0.9440
vn 0.1383 -0.2996 0.9440
vn 0.1383 -0.2996 0.9440
vn 0.0682 -0.0410 0.9968
vn 0.0682 -0.0410 0.9968
vn 0.0682 -0.0410 0.9968
vn 0.2149 0.2074 0.9544
vn 0.2149 0.2074 0.9544
vn 0.2149 0.2074 0.9544
vn 0.3355 0.0513 0.9406
vn 0.3355 0.0513 0.9406
vn 0.3355 0.0513 0.9406
vn 0.3025 -0.0653 0.9509
vn 0.3025 -0.0653 0.9509
vn 0.3025 -0.0653 0.9509
vn 0.9282 0.0054 0.3721
vn 0.9282 0.0054 0.3721
vn 0.9282 0.0054 0.3721
vn 0.9333 -0.0597 0.3540
vn 0.9333 -0.0597 0.3540
vn 0.9333 -0.0597 0.3540
vn 0.9194 0.1266 0.3724
vn 0.9194 0.1266 0.3724
vn 0.9194 0.1266 0.3724
vn 0.9261 0.2241 0.3035
vn 0.9261 0.2241 0.3035
vn 0.9261 0.2241 0.3035
vn 0.9089 0.2754 0.3131
vn 0.9089 0.2754 0.3131
vn 0.9089 0.2754 0.3131
vn 0.9571 0.0191 0.2891
vn 0.9571 0.0191 0.2891
vn 0.9571 0.0191 0.2891
vn 0.9848 0.1708 0.0309
vn 0.9848 0.1708 0.0309
vn 0.9848 0.1708 0.0309
vn 0.9944 -0.0501 -0.0935
vn 0.9944 -0.0501 -0.0935
vn 0.9944 -0.0501 -0.0935
vn 0.9879 0.1394 -0.0688
vn 0.9879 0.1394 -0.0688
vn 0.9879 0.1394 -0.0688
vn 0.9278 0.3645 -0.0795
vn 0.9278 0.3645 -0.0795
vn 0.9278 0.3645 -0.0795
vn 0.9618 0.2021 -0.1846
vn 0.9618 0.2021 -0.1846
vn 0.9618 0.2021 -0.1846
vn 0.9770 0.2052 -0.0577
vn 0.9770 0.2052 -0.0577
vn 0.9770 0.2052 -0.0577
vn 0.4156 0.1862 -0.8903
vn 0.4156 0.1862 -0.8903
vn 0.4156 0.1862 -0.8903
vn 0.4156 0.1862 -0.8903
vn 0.4156 0.1862 -0.8903
vn 0.4156 0.1862 -0.8903
vn -0.8720 0.3875 -0.2990
vn -0.8720 0.3875 -0.2990
vn -0.8720 0.3875 -0.2990
vn -0.8720 0.3875 -0.2990
vn -0.8720 0.3875 -0.2990
vn -0.8720 0.3875 -0.2990
vn 0.2882 0.1653 -0.9432
vn 0.2882 0.1653 -0.9432
vn 0.2882 0.1653 -0.9432
vn 0.2882 0.1653 -0.9432
vn 0.2882 0.1653 -0.9432
vn 0.2882 0.1653 -0.9432
vn 0.1035 0.2495 -0.9628
vn 0.1035 0.2495 -0.9628
vn 0.1035 0.2495 -0.9628
vn 0.1035 0.2495 -0.9628
vn 0.1035 0.2495 -0.9628
vn 0.1035 0.2495 -0.9628
vn -0.4987 0.4782 -0.7230
vn -0.4987 0.4782 -0.7230
vn -0.4987 0.4782 -0.7230
vn -0.4987 0.4782 -0.7230
vn -0.4987 0.4782 -0.7230
vn -0.4987 0.4782 -0.7230
vn -0.6864 0.5180 -0.5104
vn -0.6864 0.5180 -0.5104
vn -0.6864 0.5180 -0.5104
vn -0.6864 0.5180 -0.5104
vn -0.6864 0.5180 -0.5104
vn -0.6864 0.5180 -0.5104
vn -0.8191 0.5283 -0.2234
vn -0.8191 0.5283 -0.2234
vn -0.8191 0.5283 -0.2234
vn -0.8191 0.5283 -0.2234
vn -0.8191 0.5283 -0.2234
vn -0.8191 0.5283 -0.2234
vn -0.8221 0.5298 -0.2086
vn -0.8221 0.5298 -0.2086
vn -0.8221 0.5298 -0.2086
vn -0.8221 0.5298 -0.2086
vn -0.8221 0.5298 -0.2086
vn -0.8221 0.5298 -0.2086
vn -0.6450 0.5799 0.4977
vn -0.6450 0.5799 0.4977
vn -0.6450 0.5799 0.4977
vn -0.6450 0.5799 0.4977
vn -0.6450 0.5799 0.4977
vn -0.6450 0.5799 0.4977
vn -0.6951 0.5796 0.4253
vn -0.6951 0.5796 0.4253
vn -0.6951 0.5796 0.4253
vn -0.6951 0.5796 0.4253
vn -0.6951 0.5796 0.4253
vn -0.6951 0.5796 0.4253
vn 0.4540 0.2922 0.8417
vn 0.4540 0.2922 0.8417
vn 0.4540 0.2922 0.8417
vn 0.4540 0.2922 0.8417
vn 0.4540 0.2922 0.8417
vn 0.4540 0.2922 0.8417
vn 0.2828 0.3697 0.8851
vn 0.2828 0.3697 0.8851
vn 0.2828 0.3697 0.8851
vn 0.2828 0.3697 0.8851
vn 0.2828 0.3697 0.8851
vn 0.2828 0.3697 0.8851
vn 0.9542 -0.0362 0.2971
vn 0.9542 -0.0362 0.2971
vn 0.9542 -0.0362 0.2971
vn 0.9542 -0.0362 0.2971
vn 0.9542 -0.0362 0.2971
vn 0.9542 -0.0362 0.2971
vn 0.5339 -0.2272 -0.8145
vn 0.5339 -0.2272 -0.8145
vn 0.5339 -0.2272 -0.8145
vn 0.5339 -0.2272 -0.8145
vn 0.5339 -0.2272 -0.8145
vn 0.5339 -0.2272 -0.8145
vn 0.9182 -0.2043 0.3393
vn 0.9182 -0.2043 0.3393
vn 0.9182 -0.2043 0.3393
vn 0.9182 -0.2043 0.3393
vn 0.9182 -0.2043 0.3393
vn 0.9182 -0.2043 0.3393
vn 0.9777 -0.1363 -0.1599
vn 0.9777 -0.1363 -0.1599
vn 0.9777 -0.1363 -0.1599
vn 0.9777 -0.1363 -0.1599
vn 0.9777 -0.1363 -0.1599
vn 0.9777 -0.1363 -0.1599
vn -0.5355 0.2236 0.8144
vn -0.5355 0.2236 0.8144
vn -0.5355 0.2236 0.8144
vn -0.5355 0.2236 0.8144
vn -0.5355 0.2236 0.8144
vn -0.5355 0.2236 0.8144
vn 0.8539 -0.3685 0.3676
vn 0.8539 -0.3685 0.3676
vn 0.8539 -0.3685 0.3676
vn 0.8539 -0.3685 0.3676
vn 0.8539 -0.3685 0.3676
vn 0.8539 -0.3685 0.3676
vn 0.9166 -0.3922 -0.0782
vn 0.9166 -0.3922 -0.0782
vn 0.9166 -0.3922 -0.0782
vn 0.9166 -0.3922 -0.0782
vn 0.9166 -0.3922 -0.0782
vn 0.9166 -0.3922 -0.0782
vn 0.5527 -0.2311 -0.8007
vn 0.5527 -0.2311 -0.8007
vn 0.5527 -0.2311 -0.8007
vn 0.5527 -0.2311 -0.8007
vn 0.5527 -0.2311 -0.8007
vn 0.5527 -0.2311 -0.8007
vn -0.9051 0.3865 0.1770
vn -0.9051 0.3865 0.1770
vn -0.9051 0.3865 0.1770
vn -0.9051 0.3865 0.1770
vn -0.9051 0.3865 0.1770
vn -0.9051 0.3865 0.1770
vn -0.8613 0.3715 -0.3467
vn -0.8613 0.3715 -0.3467
vn -0.8613 0.3715 -0.3467
vn -0.8613 0.3715 -0.3467
vn -0.8613 0.3715 -0.3467
vn -0.8613 0.3715 -0.3467
vn 0.0000 -1.0000 -0.0000
vn 0.0000 -1.0000 -0.0000
vn 0.0000 -1.0000 -0.0000
vn 0.0000 -1.0000 -0.0000
vn 0.0000 -1.0000 -0.0000
vn 0.0000 -1.0000 -0.0000
vn 0.0000 -1.0000 -0.0000
vn 0.0000 -1.0000 -0.0000
vn 0.0000 -1.0000 -0.0000
vn 0.0000 -1.0000 -0.0000
vn 0.0000 -1.0000 -0.0000
vn 0.0000 -1.0000 -0.0000
vn 0.0000 -1.0000 -0.0000
vn 0.0000 -1.0000 -0.0000
vn 0.0000 -1.0000 -0.0000
vn 0.0000 -1.0000 -0.0000
vn 0.0000 -1.0000 -0.0000
vn 0.0000 -1.0000 -0.0000
vn 0.0000 -1.0000 -0.0000
vn 0.0000 -1.0000 -0.0000
vn 0.0000 -1.0000 -0.0000
vn 0.0000 -1.0000 -0.0000
vn 0.0000 -1.0000 -0.0000
vn 0.0000 -1.0000 -0.0000
vn 0.0000 -1.0000 -0.0000
vn 0.0000 -1.0000 -0.0000
vn 0.0000 -1.0000 -0.0000
vn 0.0000 -1.0000 -0.0000
vn 0.0000 -1.0000 -0.0000
vn 0.0000 -1.0000 -0.0000
vn 0.0000 -1.0000 -0.0000
vn 0.0000 -1.0000 -0.0000
vn 0.0000 -1.0000 -0.0000
vn 0.0000 -1.0000 -0.0000
vn 0.0000 -1.0000 -0.0000
vn 0.0000 -1.0000 -0.0000
vn 0.0000 -1.0000 -0.0000
vn 0.0000 -1.0000 -0.0000
vn 0.0000 -1.0000 -0.0000
vn 0.0000 -1.0000 -0.0000
vn 0.0000 -1.0000 -0.0000
vn 0.0000 -1.0000 -0.0000
vn 0.0000 -1.0000 -0.0000
vn 0.0000 -1.0000 -0.0000
vn 0.0000 -1.0000 -0.0000
vn 0.0000 -1.0000 -0.0000
vn 0.0000 -1.0000 -0.0000
vn 0.0000 -1.0000 -0.0000
# 480 vertex normals

o Line002
g Line002
s 1
f 19//1 20//2 21//3 
f 64//4 66//5 24//6 
f 24//7 68//8 26//9 
f 26//10 70//11 28//12 
f 28//13 72//14 75//15 
f 77//16 78//17 82//18 
f 81//19 82//20 80//21 
s off
f 34//22 35//23 36//24 
f 19//25 37//26 36//27 
f 38//28 39//29 40//30 
f 20//31 35//32 40//33 
f 41//34 42//35 43//36 
f 22//37 39//38 43//39 
f 44//40 45//41 46//42 
f 23//43 42//44 46//45 
f 47//46 48//47 49//48 
f 25//49 45//50 49//51 
f 50//52 51//53 52//54 
f 27//55 48//56 52//57 
f 53//58 54//59 55//60 
f 29//61 51//62 55//63 
f 56//64 57//65 58//66 
f 31//67 54//68 58//69 
f 59//70 37//71 60//72 
f 33//73 57//74 60//75 
s 1
f 21//76 33//77 10//78 
f 10//79 19//80 21//81 
f 19//82 11//83 20//84 
f 63//85 64//86 24//87 
f 63//88 24//89 26//90 
f 63//91 26//92 28//93 
f 63//94 28//95 75//96 
f 63//97 75//98 76//99 
f 63//100 76//101 61//102 
f 63//103 61//104 62//105 
f 64//106 65//107 66//108 
f 67//109 68//110 24//111 
f 24//112 66//113 67//114 
f 69//115 70//116 26//117 
f 26//118 68//119 69//120 
f 71//121 72//122 28//123 
f 28//124 70//125 71//126 
f 73//127 74//128 75//129 
f 75//130 72//131 73//132 
f 79//133 80//134 82//135 
f 82//136 78//137 79//138 
s off
f 36//139 37//140 9//141 
f 9//142 34//143 36//144 
f 34//145 1//146 35//147 
f 11//148 19//149 36//150 
f 36//151 35//152 11//153 
f 19//154 10//155 37//156 
f 40//157 35//158 1//159 
f 1//160 38//161 40//162 
f 38//163 2//164 39//165 
f 12//166 20//167 40//168 
f 40//169 39//170 12//171 
f 20//172 11//173 35//174 
f 43//175 39//176 2//177 
f 2//178 41//179 43//180 
f 41//181 3//182 42//183 
f 13//184 22//185 43//186 
f 43//187 42//188 13//189 
f 22//190 12//191 39//192 
f 46//193 42//194 3//195 
f 3//196 44//197 46//198 
f 44//199 4//200 45//201 
f 14//202 23//203 46//204 
f 46//205 45//206 14//207 
f 23//208 13//209 42//210 
f 49//211 45//212 4//213 
f 4//214 47//215 49//216 
f 47//217 5//218 48//219 
f 15//220 25//221 49//222 
f 49//223 48//224 15//225 
f 25//226 14//227 45//228 
f 52//229 48//230 5//231 
f 5//232 50//233 52//234 
f 50//235 6//236 51//237 
f 16//238 27//239 52//240 
f 52//241 51//242 16//243 
f 27//244 15//245 48//246 
f 55//247 51//248 6//249 
f 6//250 53//251 55//252 
f 53//253 7//254 54//255 
f 17//256 29//257 55//258 
f 55//259 54//260 17//261 
f 29//262 16//263 51//264 
f 58//265 54//266 7//267 
f 7//268 56//269 58//270 
f 56//271 8//272 57//273 
f 18//274 31//275 58//276 
f 58//277 57//278 18//279 
f 31//280 17//281 54//282 
f 60//283 57//284 8//285 
f 8//286 59//287 60//288 
f 59//289 9//290 37//291 
f 10//292 33//293 60//294 
f 60//295 37//296 10//297 
f 33//298 18//299 57//300 
f 21//301 20//302 62//303 
f 62//304 61//305 21//306 
f 20//307 12//308 63//309 
f 63//310 62//311 20//312 
f 12//313 22//314 64//315 
f 64//316 63//317 12//318 
f 22//319 13//320 65//321 
f 65//322 64//323 22//324 
f 13//325 23//326 66//327 
f 66//328 65//329 13//330 
f 23//331 14//332 67//333 
f 67//334 66//335 23//336 
f 14//337 25//338 68//339 
f 68//340 67//341 14//342 
f 25//343 15//344 69//345 
f 69//346 68//347 25//348 
f 15//349 27//350 70//351 
f 70//352 69//353 15//354 
f 27//355 16//356 71//357 
f 71//358 70//359 27//360 
f 16//361 29//362 72//363 
f 72//364 71//365 16//366 
f 29//367 17//368 73//369 
f 73//370 72//371 29//372 
f 17//373 31//374 74//375 
f 74//376 73//377 17//378 
f 31//379 30//380 75//381 
f 75//382 74//383 31//384 
f 30//385 32//386 76//387 
f 76//388 75//389 30//390 
f 32//391 21//392 61//393 
f 61//394 76//395 32//396 
f 30//397 31//398 78//399 
f 78//400 77//401 30//402 
f 31//403 18//404 79//405 
f 79//406 78//407 31//408 
f 18//409 33//410 80//411 
f 80//412 79//413 18//414 
f 33//415 21//416 81//417 
f 81//418 80//419 33//420 
f 21//421 32//422 82//423 
f 82//424 81//425 21//426 
f 32//427 30//428 77//429 
f 77//430 82//431 32//432 
f 59//433 8//434 56//435 
f 56//436 7//437 53//438 
f 59//439 56//440 53//441 
f 53//442 6//443 50//444 
f 50//445 5//446 47//447 
f 53//448 50//449 47//450 
f 59//451 53//452 47//453 
f 47//454 4//455 44//456 
f 44//457 3//458 41//459 
f 47//460 44//461 41//462 
f 47//463 41//464 2//465 
f 59//466 47//467 2//468 
f 2//469 38//470 1//471 
f 59//472 2//473 1//474 
f 9//475 59//476 1//477 
f 9//478 1//479 34//480 
# 160 faces

