# 3ds Max Wavefront OBJ Exporter v0.97b - (c)2007 guruware
# File Created: 05.02.2019 16:09:55

#
# object mountain
#

v  0.0000 1.0000 -0.0000
v  -0.5000 0.0000 0.5000
v  0.5000 0.0000 0.5000
v  0.5000 0.0000 -0.5000
v  -0.5000 0.0000 -0.5000
v  0.0000 0.0000 -0.0000
# 6 vertices

vn 0.0000 1.0000 -0.0000
vn -0.6626 -0.3491 0.6626
vn 0.6626 -0.3491 0.6626
vn 0.0000 1.0000 -0.0000
vn 0.6626 -0.3491 0.6626
vn 0.6626 -0.3491 -0.6626
vn 0.0000 1.0000 -0.0000
vn 0.6626 -0.3491 -0.6626
vn -0.6626 -0.3491 -0.6626
vn 0.0000 1.0000 -0.0000
vn -0.6626 -0.3491 -0.6626
vn -0.6626 -0.3491 0.6626
vn -0.6626 -0.3491 0.6626
vn 0.0000 -1.0000 -0.0000
vn 0.6626 -0.3491 0.6626
vn 0.6626 -0.3491 0.6626
vn 0.0000 -1.0000 -0.0000
vn 0.6626 -0.3491 -0.6626
vn 0.6626 -0.3491 -0.6626
vn 0.0000 -1.0000 -0.0000
vn -0.6626 -0.3491 -0.6626
vn -0.6626 -0.3491 -0.6626
vn 0.0000 -1.0000 -0.0000
vn -0.6626 -0.3491 0.6626
# 24 vertex normals

vt 0.5000 1.0000 0.0000
vt 0.0000 0.0000 0.0000
vt 1.0000 0.0000 0.0000
vt 0.0000 0.0000 0.0000
vt 1.0000 0.0000 0.0000
vt 0.0000 1.0000 0.0000
vt 1.0000 1.0000 0.0000
vt 1.0000 0.0000 0.0000
vt 0.0000 0.0000 0.0000
vt 0.5000 0.5000 0.0000
vt 0.5000 1.0000 0.0000
# 11 texture coords

o mountain
g mountain
s 4
f 1/1/1 2/2/2 3/3/3 
s 2
f 1/11/4 3/4/5 4/5/6 
s 16
f 1/1/7 4/2/8 5/3/9 
s 32
f 1/11/10 5/4/11 2/5/12 
s 8
f 2/6/13 6/10/14 3/7/15 
f 3/7/16 6/10/17 4/8/18 
f 4/8/19 6/10/20 5/9/21 
f 5/9/22 6/10/23 2/6/24 
# 0 polygons - 8 triangles

