# 3ds Max Wavefront OBJ Exporter v0.97b - (c)2007 guruware
# File Created: 05.02.2019 19:09:44

#
# object mountain_small
#

v  0.0000 1.0000 -0.0000
v  -0.5000 0.0000 0.5000
v  0.5000 0.0000 0.5000
v  0.5000 0.0000 -0.5000
v  -0.6577 0.0000 -0.1973
v  -0.1387 0.7226 -0.1387
v  -0.3116 0.6149 -0.0414
# 7 vertices

vn 0.0000 1.0000 -0.0000
vn -0.5187 0.5579 0.6478
vn 0.5774 0.5774 0.5774
vn 0.0000 1.0000 -0.0000
vn 0.5774 0.5774 0.5774
vn 0.5206 0.5670 -0.6383
vn 0.0000 1.0000 -0.0000
vn 0.5206 0.5670 -0.6383
vn -0.5889 0.4670 -0.6596
vn 0.0000 1.0000 -0.0000
vn -0.5889 0.4670 -0.6596
vn -0.5187 0.5579 0.6478
vn -0.5401 0.8409 -0.0345
vn -0.7375 0.5232 -0.4271
vn -0.5187 0.5579 0.6478
vn -0.5889 0.4670 -0.6596
vn -0.5401 0.8409 -0.0345
vn -0.5187 0.5579 0.6478
vn 0.5206 0.5670 -0.6383
vn -0.7375 0.5232 -0.4271
vn -0.5401 0.8409 -0.0345
vn -0.5401 0.8409 -0.0345
vn -0.5889 0.4670 -0.6596
vn 0.5206 0.5670 -0.6383
# 24 vertex normals

vt 0.5000 1.0000 0.0000
vt 0.0000 0.0000 0.0000
vt 1.0000 0.0000 0.0000
vt 0.0000 0.0000 0.0000
vt 1.0000 0.0000 0.0000
vt 0.5000 1.0000 0.0000
vt 0.7503 0.4994 0.0000
vt 0.2497 0.4994 0.0000
vt 0.8069 0.3862 0.0000
vt 0.1931 0.3862 0.0000
# 10 texture coords

o mountain_small
g mountain_small
s off
f 1/1/1 2/2/2 3/3/3 
f 1/6/4 3/4/5 4/5/6 
f 1/1/7 4/2/8 6/7/9 
f 1/6/10 6/8/11 2/5/12 
f 7/10/13 5/4/14 2/5/15 
f 6/8/16 7/10/17 2/5/18 
f 4/2/19 5/3/20 7/9/21 
f 7/9/22 6/7/23 4/2/24 
# 0 polygons - 8 triangles

