# 3ds Max Wavefront OBJ Exporter v0.97b - (c)2007 guruware
# File Created: 07.02.2019 17:00:45

#
# object sky_rotated
#

v  0.2828 -0.0046 0.4243
v  0.3536 0.0006 0.3536
v  0.1414 -0.0035 0.4243
v  0.2121 -0.0051 0.3536
v  0.2828 0.0034 0.2828
v  0.3536 -0.0064 0.2121
v  -0.0000 -0.0013 0.4243
v  0.0707 0.0078 0.3536
v  0.1414 0.0026 0.2828
v  0.2121 0.0093 0.2121
v  0.2828 0.0009 0.1414
v  0.3536 -0.0002 0.0707
v  -0.1414 0.0078 0.4243
v  -0.0707 -0.0028 0.3536
v  -0.0000 -0.0096 0.2828
v  0.0707 -0.0019 0.2121
v  0.1414 0.0065 0.1414
v  0.2121 -0.0051 0.0707
v  0.2828 -0.0052 0.0000
v  0.3536 -0.0065 -0.0707
v  -0.2828 0.0032 0.4243
v  -0.2121 -0.0039 0.3536
v  -0.1414 0.0017 0.2828
v  -0.0707 0.0009 0.2121
v  -0.0000 0.0016 0.1414
v  0.0707 0.0025 0.0707
v  0.1414 0.0013 0.0000
v  0.2121 0.0092 -0.0707
v  0.2828 -0.0055 -0.1414
v  0.3536 -0.0007 -0.2121
v  -0.3536 -0.0088 0.3536
v  -0.2828 -0.0033 0.2828
v  -0.2121 0.0063 0.2121
v  -0.1414 -0.0043 0.1414
v  -0.0707 -0.0086 0.0707
v  -0.0000 -0.0002 0.0000
v  0.0707 0.0029 -0.0707
v  0.1414 -0.0036 -0.1414
v  0.2121 -0.0007 -0.2121
v  0.2828 0.0010 -0.2828
v  0.3536 0.0072 -0.3536
v  -0.3536 0.0035 0.2121
v  -0.2828 -0.0051 0.1414
v  -0.2121 0.0003 0.0707
v  -0.1414 0.0069 0.0000
v  -0.0707 -0.0031 -0.0707
v  0.0000 0.0006 -0.1414
v  0.0707 -0.0014 -0.2121
v  0.1414 0.0060 -0.2828
v  0.2121 -0.0040 -0.3536
v  0.2828 -0.0000 -0.4243
v  -0.3536 0.0023 0.0707
v  -0.2828 -0.0066 -0.0000
v  -0.2121 0.0029 -0.0707
v  -0.1414 -0.0028 -0.1414
v  -0.0707 0.0049 -0.2121
v  0.0000 0.0064 -0.2828
v  0.0707 0.0050 -0.3536
v  0.1414 0.0109 -0.4243
v  -0.3536 0.0034 -0.0707
v  -0.2828 0.0050 -0.1414
v  -0.2121 -0.0069 -0.2121
v  -0.1414 -0.0029 -0.2828
v  -0.0707 -0.0092 -0.3536
v  0.0000 -0.0071 -0.4243
v  -0.3536 0.0010 -0.2121
v  -0.2828 0.0048 -0.2828
v  -0.2121 0.0079 -0.3536
v  -0.1414 -0.0009 -0.4243
v  -0.3536 -0.0079 -0.3536
v  -0.2828 0.0022 -0.4243
# 71 vertices

vn -0.0011 0.9975 0.0713
vn -0.0408 0.9986 0.0329
vn -0.0175 0.9983 0.0562
vn 0.0175 0.9985 0.0516
vn -0.0513 0.9970 -0.0580
vn 0.0910 0.9935 0.0683
vn -0.0011 0.9975 0.0713
vn 0.0062 0.9998 0.0170
vn 0.0062 0.9998 0.0170
vn -0.0011 0.9975 0.0713
vn 0.0175 0.9985 0.0516
vn 0.0171 0.9998 0.0048
vn 0.0171 0.9998 0.0048
vn 0.0175 0.9985 0.0516
vn 0.1197 0.9927 -0.0175
vn 0.0315 0.9981 -0.0532
vn 0.0745 0.9964 -0.0393
vn -0.0749 0.9958 0.0532
vn -0.0513 0.9970 -0.0580
vn -0.0273 0.9994 -0.0205
vn -0.0273 0.9994 -0.0205
vn -0.0513 0.9970 -0.0580
vn 0.0062 0.9998 0.0170
vn -0.0604 0.9968 0.0530
vn -0.0604 0.9968 0.0530
vn 0.0062 0.9998 0.0170
vn 0.0171 0.9998 0.0048
vn -0.0128 0.9993 -0.0353
vn -0.0128 0.9993 -0.0353
vn 0.0171 0.9998 0.0048
vn 0.0315 0.9981 -0.0532
vn 0.0426 0.9983 -0.0396
vn 0.0426 0.9983 -0.0396
vn 0.0315 0.9981 -0.0532
vn -0.0279 0.9987 -0.0431
vn 0.0596 0.9969 0.0522
vn -0.0344 0.9993 -0.0151
vn -0.0076 0.9877 -0.1564
vn 0.0745 0.9964 -0.0393
vn 0.0154 0.9987 0.0492
vn 0.0154 0.9987 0.0492
vn 0.0745 0.9964 -0.0393
vn -0.0273 0.9994 -0.0205
vn 0.0191 0.9997 0.0182
vn 0.0191 0.9997 0.0182
vn -0.0273 0.9994 -0.0205
vn -0.0604 0.9968 0.0530
vn -0.0298 0.9994 -0.0180
vn -0.0298 0.9994 -0.0180
vn -0.0604 0.9968 0.0530
vn -0.0128 0.9993 -0.0353
vn -0.0228 0.9994 -0.0246
vn -0.0228 0.9994 -0.0246
vn -0.0128 0.9993 -0.0353
vn 0.0426 0.9983 -0.0396
vn 0.0047 0.9986 0.0519
vn 0.0047 0.9986 0.0519
vn 0.0426 0.9983 -0.0396
vn 0.0596 0.9969 0.0522
vn 0.0290 0.9994 -0.0179
vn 0.0290 0.9994 -0.0179
vn 0.0596 0.9969 0.0522
vn 0.0164 0.9999 -0.0017
vn 0.0826 0.9961 -0.0325
vn -0.1225 0.9914 -0.0458
vn -0.0343 0.9904 -0.1339
vn -0.0344 0.9993 -0.0151
vn -0.0395 0.9963 0.0768
vn -0.0395 0.9963 0.0768
vn -0.0344 0.9993 -0.0151
vn 0.0154 0.9987 0.0492
vn -0.0204 0.9994 -0.0272
vn -0.0204 0.9994 -0.0272
vn 0.0154 0.9987 0.0492
vn 0.0191 0.9997 0.0182
vn 0.0506 0.9972 -0.0547
vn 0.0506 0.9972 -0.0547
vn 0.0191 0.9997 0.0182
vn -0.0298 0.9994 -0.0180
vn 0.0039 0.9995 0.0326
vn 0.0039 0.9995 0.0326
vn -0.0298 0.9994 -0.0180
vn -0.0228 0.9994 -0.0246
vn -0.0608 0.9979 0.0209
vn -0.0608 0.9979 0.0209
vn -0.0228 0.9994 -0.0246
vn 0.0047 0.9986 0.0519
vn 0.0093 0.9999 -0.0145
vn 0.0093 0.9999 -0.0145
vn 0.0047 0.9986 0.0519
vn 0.0290 0.9994 -0.0179
vn -0.0244 0.9985 -0.0497
vn -0.0244 0.9985 -0.0497
vn 0.0290 0.9994 -0.0179
vn 0.0826 0.9961 -0.0325
vn 0.0241 0.9981 0.0568
vn 0.0241 0.9981 0.0568
vn 0.0826 0.9961 -0.0325
vn -0.0219 0.9987 0.0458
vn -0.0422 0.9991 0.0027
vn 0.1082 0.9941 -0.0125
vn -0.0395 0.9963 0.0768
vn -0.0204 0.9994 -0.0272
vn -0.0414 0.9987 -0.0307
vn -0.0414 0.9987 -0.0307
vn -0.0204 0.9994 -0.0272
vn 0.0506 0.9972 -0.0547
vn -0.0503 0.9981 0.0342
vn -0.0503 0.9981 0.0342
vn 0.0506 0.9972 -0.0547
vn 0.0039 0.9995 0.0326
vn 0.0521 0.9982 0.0283
vn 0.0521 0.9982 0.0283
vn 0.0039 0.9995 0.0326
vn -0.0608 0.9979 0.0209
vn 0.0132 0.9994 -0.0310
vn 0.0132 0.9994 -0.0310
vn -0.0608 0.9979 0.0209
vn 0.0093 0.9999 -0.0145
vn 0.0007 0.9999 0.0132
vn 0.0007 0.9999 0.0132
vn 0.0093 0.9999 -0.0145
vn -0.0244 0.9985 -0.0497
vn 0.0161 0.9984 0.0543
vn 0.0161 0.9984 0.0543
vn -0.0244 0.9985 -0.0497
vn 0.0241 0.9981 0.0568
vn 0.0293 0.9995 0.0106
vn 0.0293 0.9995 0.0106
vn 0.0241 0.9981 0.0568
vn -0.0422 0.9991 0.0027
vn 0.0482 0.9985 -0.0266
vn 0.0482 0.9985 -0.0266
vn -0.0422 0.9991 0.0027
vn -0.0943 0.9955 -0.0072
vn -0.0791 0.9966 -0.0224
vn 0.1150 0.9933 -0.0104
vn -0.0414 0.9987 -0.0307
vn -0.0503 0.9981 0.0342
vn -0.0327 0.9994 0.0147
vn -0.0327 0.9994 0.0147
vn -0.0503 0.9981 0.0342
vn 0.0521 0.9982 0.0283
vn -0.0200 0.9998 0.0071
vn -0.0200 0.9998 0.0071
vn 0.0521 0.9982 0.0283
vn 0.0132 0.9994 -0.0310
vn -0.0202 0.9998 -0.0062
vn -0.0202 0.9998 -0.0062
vn 0.0132 0.9994 -0.0310
vn 0.0007 0.9999 0.0132
vn -0.0442 0.9988 0.0201
vn -0.0442 0.9988 0.0201
vn 0.0007 0.9999 0.0132
vn 0.0161 0.9984 0.0543
vn -0.0275 0.9993 -0.0268
vn -0.0275 0.9993 -0.0268
vn 0.0161 0.9984 0.0543
vn 0.0293 0.9995 0.0106
vn -0.0405 0.9989 -0.0256
vn -0.0405 0.9989 -0.0256
vn 0.0293 0.9995 0.0106
vn 0.0482 0.9985 -0.0266
vn 0.0631 0.9874 0.1451
vn 0.0590 0.9949 0.0819
vn -0.0327 0.9994 0.0147
vn -0.0200 0.9998 0.0071
vn 0.0524 0.9973 -0.0515
vn 0.0524 0.9973 -0.0515
vn -0.0200 0.9998 0.0071
vn -0.0202 0.9998 -0.0062
vn 0.0539 0.9985 -0.0013
vn 0.0539 0.9985 -0.0013
vn -0.0202 0.9998 -0.0062
vn -0.0442 0.9988 0.0201
vn 0.0184 0.9998 0.0023
vn 0.0184 0.9998 0.0023
vn -0.0442 0.9988 0.0201
vn -0.0275 0.9993 -0.0268
vn -0.0283 0.9966 -0.0779
vn -0.0283 0.9966 -0.0779
vn -0.0275 0.9993 -0.0268
vn -0.0405 0.9989 -0.0256
vn -0.0994 0.9925 -0.0707
vn -0.0558 0.9984 -0.0019
vn 0.0524 0.9973 -0.0515
vn 0.0539 0.9985 -0.0013
vn 0.0015 0.9988 0.0485
vn 0.0015 0.9988 0.0485
vn 0.0539 0.9985 -0.0013
vn 0.0184 0.9998 0.0023
vn 0.0426 0.9986 0.0310
vn 0.0426 0.9986 0.0310
vn 0.0184 0.9998 0.0023
vn -0.0283 0.9966 -0.0779
vn 0.1194 0.9928 -0.0030
vn -0.1582 0.9872 -0.0181
vn 0.0015 0.9988 0.0485
vn 0.0426 0.9986 0.0310
vn -0.1104 0.9934 0.0306
# 200 vertex normals

vt 0.4000 0.0000 0.0000
vt 0.5000 0.0000 0.0000
vt 0.3000 0.1000 0.0000
vt 0.4000 0.1000 0.0000
vt 0.5000 0.1000 0.0000
vt 0.6000 0.1000 0.0000
vt 0.2000 0.2000 0.0000
vt 0.3000 0.2000 0.0000
vt 0.4000 0.2000 0.0000
vt 0.5000 0.2000 0.0000
vt 0.6000 0.2000 0.0000
vt 0.7000 0.2000 0.0000
vt 0.1000 0.3000 0.0000
vt 0.2000 0.3000 0.0000
vt 0.3000 0.3000 0.0000
vt 0.4000 0.3000 0.0000
vt 0.5000 0.3000 0.0000
vt 0.6000 0.3000 0.0000
vt 0.7000 0.3000 0.0000
vt 0.8000 0.3000 0.0000
vt 0.0000 0.4000 0.0000
vt 0.1000 0.4000 0.0000
vt 0.2000 0.4000 0.0000
vt 0.3000 0.4000 0.0000
vt 0.4000 0.4000 0.0000
vt 0.5000 0.4000 0.0000
vt 0.6000 0.4000 0.0000
vt 0.7000 0.4000 0.0000
vt 0.8000 0.4000 0.0000
vt 0.9000 0.4000 0.0000
vt 0.0000 0.5000 0.0000
vt 0.1000 0.5000 0.0000
vt 0.2000 0.5000 0.0000
vt 0.3000 0.5000 0.0000
vt 0.4000 0.5000 0.0000
vt 0.5000 0.5000 0.0000
vt 0.6000 0.5000 0.0000
vt 0.7000 0.5000 0.0000
vt 0.8000 0.5000 0.0000
vt 0.9000 0.5000 0.0000
vt 1.0000 0.5000 0.0000
vt 0.1000 0.6000 0.0000
vt 0.2000 0.6000 0.0000
vt 0.3000 0.6000 0.0000
vt 0.4000 0.6000 0.0000
vt 0.5000 0.6000 0.0000
vt 0.6000 0.6000 0.0000
vt 0.7000 0.6000 0.0000
vt 0.8000 0.6000 0.0000
vt 0.9000 0.6000 0.0000
vt 1.0000 0.6000 0.0000
vt 0.2000 0.7000 0.0000
vt 0.3000 0.7000 0.0000
vt 0.4000 0.7000 0.0000
vt 0.5000 0.7000 0.0000
vt 0.6000 0.7000 0.0000
vt 0.7000 0.7000 0.0000
vt 0.8000 0.7000 0.0000
vt 0.9000 0.7000 0.0000
vt 0.3000 0.8000 0.0000
vt 0.4000 0.8000 0.0000
vt 0.5000 0.8000 0.0000
vt 0.6000 0.8000 0.0000
vt 0.7000 0.8000 0.0000
vt 0.8000 0.8000 0.0000
vt 0.4000 0.9000 0.0000
vt 0.5000 0.9000 0.0000
vt 0.6000 0.9000 0.0000
vt 0.7000 0.9000 0.0000
vt 0.5000 1.0000 0.0000
vt 0.6000 1.0000 0.0000
# 71 texture coords

o sky_rotated
g sky_rotated
s off
f 4/4/1 1/1/2 2/2/3 5/5/4 
f 8/8/5 3/3/6 4/4/7 9/9/8 
f 9/9/9 4/4/10 5/5/11 10/10/12 
f 10/10/13 5/5/14 6/6/15 11/11/16 
f 14/14/17 7/7/18 8/8/19 15/15/20 
f 15/15/21 8/8/22 9/9/23 16/16/24 
f 16/16/25 9/9/26 10/10/27 17/17/28 
f 17/17/29 10/10/30 11/11/31 18/18/32 
f 18/18/33 11/11/34 12/12/35 19/19/36 
f 22/22/37 13/13/38 14/14/39 23/23/40 
f 23/23/41 14/14/42 15/15/43 24/24/44 
f 24/24/45 15/15/46 16/16/47 25/25/48 
f 25/25/49 16/16/50 17/17/51 26/26/52 
f 26/26/53 17/17/54 18/18/55 27/27/56 
f 27/27/57 18/18/58 19/19/59 28/28/60 
f 28/28/61 19/19/62 20/20/63 29/29/64 
f 31/31/65 21/21/66 22/22/67 32/32/68 
f 32/32/69 22/22/70 23/23/71 33/33/72 
f 33/33/73 23/23/74 24/24/75 34/34/76 
f 34/34/77 24/24/78 25/25/79 35/35/80 
f 35/35/81 25/25/82 26/26/83 36/36/84 
f 36/36/85 26/26/86 27/27/87 37/37/88 
f 37/37/89 27/27/90 28/28/91 38/38/92 
f 38/38/93 28/28/94 29/29/95 39/39/96 
f 39/39/97 29/29/98 30/30/99 40/40/100 
f 42/42/101 32/32/102 33/33/103 43/43/104 
f 43/43/105 33/33/106 34/34/107 44/44/108 
f 44/44/109 34/34/110 35/35/111 45/45/112 
f 45/45/113 35/35/114 36/36/115 46/46/116 
f 46/46/117 36/36/118 37/37/119 47/47/120 
f 47/47/121 37/37/122 38/38/123 48/48/124 
f 48/48/125 38/38/126 39/39/127 49/49/128 
f 49/49/129 39/39/130 40/40/131 50/50/132 
f 50/50/133 40/40/134 41/41/135 51/51/136 
f 52/52/137 43/43/138 44/44/139 53/53/140 
f 53/53/141 44/44/142 45/45/143 54/54/144 
f 54/54/145 45/45/146 46/46/147 55/55/148 
f 55/55/149 46/46/150 47/47/151 56/56/152 
f 56/56/153 47/47/154 48/48/155 57/57/156 
f 57/57/157 48/48/158 49/49/159 58/58/160 
f 58/58/161 49/49/162 50/50/163 59/59/164 
f 60/60/165 53/53/166 54/54/167 61/61/168 
f 61/61/169 54/54/170 55/55/171 62/62/172 
f 62/62/173 55/55/174 56/56/175 63/63/176 
f 63/63/177 56/56/178 57/57/179 64/64/180 
f 64/64/181 57/57/182 58/58/183 65/65/184 
f 66/66/185 61/61/186 62/62/187 67/67/188 
f 67/67/189 62/62/190 63/63/191 68/68/192 
f 68/68/193 63/63/194 64/64/195 69/69/196 
f 70/70/197 67/67/198 68/68/199 71/71/200 
# 50 polygons

