# This file was created with Minddesk Qubicle 3.0
# Get Qubicle at www.getqubicle.com

mtllib w1_tree.mtl

vn 0.0 0.0 1.0
vn 0.0 0.0 -1.0
vn -1.0 0.0 0.0
vn 1.0 0.0 0.0
vn 0.0 1.0 0.0
vn 0.0 -1.0 0.0

v 1.00000 16.00000 -6.00000
v 1.00000 8.00000 -6.00000
v -6.00000 8.00000 -6.00000
v -6.00000 16.00000 -6.00000
v 4.00000 16.00000 -4.00000
v 4.00000 8.00000 -4.00000
v 1.00000 8.00000 -4.00000
v 1.00000 16.00000 -4.00000
v 6.00000 13.00000 -1.00000
v 6.00000 6.00000 -1.00000
v 4.00000 6.00000 -1.00000
v 4.00000 13.00000 -1.00000
v 4.00000 20.00000 -4.00000
v -4.00000 16.00000 -4.00000
v -4.00000 20.00000 -4.00000
v 2.00000 6.00000 -2.00000
v 2.00000 2.00000 -2.00000
v -2.00000 2.00000 -2.00000
v -2.00000 6.00000 -2.00000
v 3.00000 3.00000 0.00000
v 3.00000 0.00000 0.00000
v 2.00000 0.00000 0.00000
v 2.00000 3.00000 0.00000
v 4.00000 6.00000 -4.00000
v -4.00000 6.00000 -4.00000
v -4.00000 8.00000 -4.00000
v 2.00000 0.00000 -2.00000
v -1.00000 0.00000 -2.00000
v -1.00000 2.00000 -2.00000
v 6.00000 5.00000 -1.00000
v 2.00000 5.00000 -1.00000
v 2.00000 6.00000 -1.00000
v -1.00000 1.00000 -3.00000
v -1.00000 0.00000 -3.00000
v -3.00000 0.00000 -3.00000
v -3.00000 1.00000 -3.00000
v -1.00000 2.00000 -3.00000
v -2.00000 1.00000 -3.00000
v -2.00000 2.00000 -3.00000
v -4.00000 20.00000 4.00000
v -4.00000 13.00000 4.00000
v 4.00000 13.00000 4.00000
v 4.00000 20.00000 4.00000
v -1.00000 13.00000 6.00000
v -1.00000 5.00000 6.00000
v 6.00000 5.00000 6.00000
v 6.00000 13.00000 6.00000
v -4.00000 6.00000 4.00000
v -1.00000 6.00000 4.00000
v -1.00000 13.00000 4.00000
v -6.00000 16.00000 1.00000
v -6.00000 8.00000 1.00000
v -4.00000 8.00000 1.00000
v -4.00000 16.00000 1.00000
v -2.00000 5.00000 2.00000
v -2.00000 1.00000 2.00000
v 2.00000 1.00000 2.00000
v 2.00000 5.00000 2.00000
v 2.00000 3.00000 1.00000
v 2.00000 1.00000 1.00000
v 3.00000 1.00000 1.00000
v 3.00000 3.00000 1.00000
v -2.00000 0.00000 2.00000
v 3.00000 0.00000 2.00000
v 3.00000 1.00000 2.00000
v -3.00000 1.00000 -1.00000
v -3.00000 0.00000 -1.00000
v -2.00000 0.00000 -1.00000
v -2.00000 1.00000 -1.00000
v -2.00000 6.00000 2.00000
v -1.00000 5.00000 2.00000
v -1.00000 6.00000 2.00000
v -4.00000 8.00000 4.00000
v -4.00000 16.00000 4.00000
v -1.00000 6.00000 6.00000
v -2.00000 2.00000 2.00000
v 4.00000 13.00000 -4.00000
v 2.00000 3.00000 -2.00000
v 2.00000 3.00000 2.00000
v 2.00000 5.00000 -2.00000
v 3.00000 1.00000 0.00000
v -6.00000 16.00000 -4.00000
v 6.00000 13.00000 4.00000
v -6.00000 8.00000 -4.00000
v 6.00000 5.00000 2.00000
v -4.00000 6.00000 2.00000
v -4.00000 6.00000 -2.00000
v 4.00000 6.00000 -2.00000
v -2.00000 0.00000 0.00000
v -3.00000 0.00000 -2.00000
v 2.00000 0.00000 -1.00000

vt 0.01563 0.14063
vt 0.01563 0.01563
vt 0.14063 0.01563
vt 0.14063 0.14063
vt 0.17188 0.14063
vt 0.17188 0.01563
vt 0.28125 0.01563
vt 0.28125 0.14063
vt 0.31250 0.14063
vt 0.31250 0.01563
vt 0.42188 0.01563
vt 0.42188 0.14063
vt 0.45313 0.14063
vt 0.45313 0.01563
vt 0.56250 0.01563
vt 0.56250 0.14063
vt 0.59375 0.14063
vt 0.59375 0.01563
vt 0.70313 0.01563
vt 0.70313 0.14063
vt 0.73438 0.14063
vt 0.73438 0.01563
vt 0.78125 0.01563
vt 0.78125 0.14063
vt 0.81250 0.14063
vt 0.81250 0.01563
vt 0.85938 0.01563
vt 0.85938 0.14063
vt 0.89063 0.14063
vt 0.89063 0.01563
vt 0.92188 0.01563
vt 0.92188 0.14063
vt 0.95313 0.14063
vt 0.95313 0.01563
vt 0.98438 0.01563
vt 0.98438 0.14063
vt 0.01563 0.28125
vt 0.01563 0.17188
vt 0.14063 0.17188
vt 0.14063 0.28125
vt 0.17188 0.28125
vt 0.17188 0.17188
vt 0.29688 0.17188
vt 0.29688 0.28125
vt 0.32813 0.28125
vt 0.32813 0.17188
vt 0.37500 0.17188
vt 0.37500 0.28125
vt 0.40625 0.28125
vt 0.40625 0.17188
vt 0.45313 0.17188
vt 0.45313 0.28125
vt 0.48438 0.28125
vt 0.48438 0.17188
vt 0.51563 0.17188
vt 0.51563 0.28125
vt 0.54688 0.28125
vt 0.54688 0.17188
vt 0.57813 0.17188
vt 0.57813 0.28125
vt 0.60938 0.25000
vt 0.60938 0.17188
vt 0.64063 0.17188
vt 0.64063 0.25000
vt 0.67188 0.25000
vt 0.67188 0.17188
vt 0.70313 0.17188
vt 0.70313 0.25000
vt 0.73438 0.25000
vt 0.73438 0.17188
vt 0.76563 0.17188
vt 0.76563 0.25000
vt 0.79688 0.23438
vt 0.79688 0.17188
vt 0.92188 0.17188
vt 0.92188 0.23438
vt 0.01563 0.37500
vt 0.01563 0.31250
vt 0.14063 0.31250
vt 0.14063 0.37500
vt 0.17188 0.37500
vt 0.17188 0.31250
vt 0.28125 0.31250
vt 0.28125 0.37500
vt 0.31250 0.37500
vt 0.31250 0.31250
vt 0.37500 0.31250
vt 0.37500 0.37500
vt 0.40625 0.37500
vt 0.40625 0.31250
vt 0.46875 0.31250
vt 0.46875 0.37500
vt 0.50000 0.37500
vt 0.50000 0.31250
vt 0.56250 0.31250
vt 0.56250 0.37500
vt 0.95313 0.23438
vt 0.95313 0.17188
vt 0.98438 0.17188
vt 0.98438 0.23438
vt 0.59375 0.35938
vt 0.59375 0.31250
vt 0.65625 0.31250
vt 0.65625 0.35938
vt 0.68750 0.35938
vt 0.68750 0.31250
vt 0.71875 0.31250
vt 0.71875 0.35938
vt 0.75000 0.35938
vt 0.75000 0.31250
vt 0.76563 0.31250
vt 0.76563 0.35938
vt 0.79688 0.34375
vt 0.79688 0.31250
vt 0.92188 0.31250
vt 0.92188 0.34375
vt 0.01563 0.43750
vt 0.01563 0.40625
vt 0.14063 0.40625
vt 0.14063 0.43750
vt 0.17188 0.43750
vt 0.17188 0.40625
vt 0.29688 0.40625
vt 0.29688 0.43750
vt 0.32813 0.43750
vt 0.32813 0.40625
vt 0.43750 0.40625
vt 0.43750 0.43750
vt 0.46875 0.43750
vt 0.46875 0.40625
vt 0.57813 0.40625
vt 0.57813 0.43750
vt 0.60938 0.43750
vt 0.60938 0.40625
vt 0.71875 0.40625
vt 0.71875 0.43750
vt 0.75000 0.43750
vt 0.75000 0.40625
vt 0.82813 0.40625
vt 0.82813 0.43750
vt 0.85938 0.43750
vt 0.85938 0.40625
vt 0.92188 0.40625
vt 0.92188 0.43750
vt 0.01563 0.50000
vt 0.01563 0.46875
vt 0.06250 0.46875
vt 0.06250 0.50000
vt 0.09375 0.50000
vt 0.09375 0.46875
vt 0.14063 0.46875
vt 0.14063 0.50000
vt 0.95313 0.34375
vt 0.95313 0.31250
vt 0.96875 0.31250
vt 0.96875 0.34375
vt 0.95313 0.43750
vt 0.95313 0.40625
vt 0.96875 0.40625
vt 0.96875 0.43750
vt 0.17188 0.50000
vt 0.17188 0.46875
vt 0.18750 0.46875
vt 0.18750 0.50000
vt 0.21875 0.50000
vt 0.21875 0.46875
vt 0.23438 0.46875
vt 0.23438 0.50000
vt 0.26563 0.50000
vt 0.26563 0.46875
vt 0.28125 0.46875
vt 0.28125 0.50000
vt 0.31250 0.48438
vt 0.31250 0.46875
vt 0.39063 0.46875
vt 0.39063 0.48438
vt 0.42188 0.48438
vt 0.42188 0.46875
vt 0.50000 0.46875
vt 0.50000 0.48438
vt 0.53125 0.48438
vt 0.53125 0.46875
vt 0.60938 0.46875
vt 0.60938 0.48438
vt 0.64063 0.48438
vt 0.64063 0.46875
vt 0.70313 0.46875
vt 0.70313 0.48438
vt 0.73438 0.48438
vt 0.73438 0.46875
vt 0.79688 0.46875
vt 0.79688 0.48438
vt 0.82813 0.48438
vt 0.82813 0.46875
vt 0.89063 0.46875
vt 0.89063 0.48438
vt 0.92188 0.48438
vt 0.92188 0.46875
vt 0.96875 0.46875
vt 0.96875 0.48438
vt 0.01563 0.54688
vt 0.01563 0.53125
vt 0.04688 0.53125
vt 0.04688 0.54688
vt 0.07813 0.54688
vt 0.07813 0.53125
vt 0.10938 0.53125
vt 0.10938 0.54688
vt 0.14063 0.54688
vt 0.14063 0.53125
vt 0.17188 0.53125
vt 0.17188 0.54688
vt 0.20313 0.54688
vt 0.20313 0.53125
vt 0.23438 0.53125
vt 0.23438 0.54688
vt 0.26563 0.54688
vt 0.26563 0.53125
vt 0.29688 0.53125
vt 0.29688 0.54688
vt 0.32813 0.54688
vt 0.32813 0.53125
vt 0.34375 0.53125
vt 0.34375 0.54688
vt 0.37500 0.54688
vt 0.37500 0.53125
vt 0.39063 0.53125
vt 0.39063 0.54688
vt 0.42188 0.54688
vt 0.42188 0.53125
vt 0.43750 0.53125
vt 0.43750 0.54688
vt 0.46875 0.54688
vt 0.46875 0.53125
vt 0.48438 0.53125
vt 0.48438 0.54688
vt 0.51563 0.54688
vt 0.51563 0.53125
vt 0.53125 0.53125
vt 0.53125 0.54688
vt 0.56250 0.54688
vt 0.56250 0.53125
vt 0.57813 0.53125
vt 0.57813 0.54688
vt 0.60938 0.54688
vt 0.60938 0.53125
vt 0.62500 0.53125
vt 0.62500 0.54688

g w1_tree
usemtl w1_tree_Material
f 1/17/2 2/18/2 3/19/2 4/20/2
f 5/21/2 6/22/2 7/23/2 8/24/2
f 9/53/2 10/54/2 11/55/2 12/56/2
f 13/73/2 5/74/2 14/75/2 15/76/2
f 16/89/2 17/90/2 18/91/2 19/92/2
f 20/109/2 21/110/2 22/111/2 23/112/2
f 6/117/2 24/118/2 25/119/2 26/120/2
f 17/145/2 27/146/2 28/147/2 29/148/2
f 10/189/2 30/190/2 31/191/2 32/192/2
f 33/201/2 34/202/2 35/203/2 36/204/2
f 37/241/2 33/242/2 38/243/2 39/244/2
f 40/37/1 41/38/1 42/39/1 43/40/1
f 44/13/1 45/14/1 46/15/1 47/16/1
f 41/49/1 48/50/1 49/51/1 50/52/1
f 51/29/1 52/30/1 53/31/1 54/32/1
f 55/93/1 56/94/1 57/95/1 58/96/1
f 59/153/1 60/154/1 61/155/1 62/156/1
f 56/177/1 63/178/1 64/179/1 65/180/1
f 66/233/1 67/234/1 68/235/1 69/236/1
f 70/237/1 55/238/1 71/239/1 72/240/1
f 4/5/3 3/6/3 52/7/3 51/8/3
f 54/25/3 53/26/3 73/27/3 74/28/3
f 50/57/3 49/58/3 75/59/3 44/60/3
f 15/77/3 14/78/3 74/79/3 40/80/3
f 19/85/3 18/86/3 76/87/3 70/88/3
f 26/121/3 25/122/3 48/123/3 73/124/3
f 39/181/3 38/182/3 56/183/3 76/184/3
f 69/197/3 68/198/3 63/199/3 56/200/3
f 72/193/3 71/194/3 45/195/3 75/196/3
f 36/217/3 35/218/3 67/219/3 66/220/3
f 43/41/4 42/42/4 77/43/4 13/44/4
f 47/9/4 46/10/4 30/11/4 9/12/4
f 12/45/4 11/46/4 24/47/4 77/48/4
f 8/33/4 7/34/4 2/35/4 1/36/4
f 23/105/4 22/106/4 27/107/4 78/108/4
f 58/141/4 79/142/4 78/143/4 80/144/4
f 29/165/4 28/166/4 34/167/4 37/168/4
f 62/169/4 61/170/4 81/171/4 20/172/4
f 79/157/4 57/158/4 60/159/4 59/160/4
f 65/209/4 64/210/4 21/211/4 81/212/4
f 32/245/4 31/246/4 80/247/4 16/248/4
f 15/1/5 40/2/5 43/3/5 13/4/5
f 82/69/5 51/70/5 54/71/5 14/72/5
f 12/65/5 42/66/5 83/67/5 9/68/5
f 4/129/5 82/130/5 8/131/5 1/132/5
f 50/125/5 44/126/5 47/127/5 83/128/5
f 36/161/5 66/162/5 69/163/5 38/164/5
f 39/229/5 18/230/5 29/231/5 37/232/5
f 23/225/5 59/226/5 62/227/5 20/228/5
f 60/221/5 57/222/5 65/223/5 61/224/5
f 52/61/6 84/62/6 26/63/6 53/64/6
f 45/81/6 71/82/6 85/83/6 46/84/6
f 58/101/6 31/102/6 30/103/6 85/104/6
f 86/97/6 87/98/6 19/99/6 70/100/6
f 84/133/6 3/134/6 2/135/6 7/136/6
f 87/113/6 25/114/6 24/115/6 88/116/6
f 63/137/6 89/138/6 21/139/6 64/140/6
f 48/149/6 86/150/6 72/151/6 49/152/6
f 67/173/6 90/174/6 27/175/6 91/176/6
f 89/185/6 68/186/6 91/187/6 22/188/6
f 90/205/6 35/206/6 34/207/6 28/208/6
f 32/213/6 16/214/6 88/215/6 11/216/6
