# 3ds Max Wavefront OBJ Exporter v0.97b - (c)2007 guruware
# File Created: 10.05.2019 19:09:01

#
# object stone_5
#

v  -0.8675 3.4365 -0.0239
v  -0.3939 3.7983 0.3202
v  -0.1569 3.2056 -0.5726
v  -0.0583 2.5923 -1.4487
v  -1.2820 3.1199 0.5186
v  -1.4063 3.0249 1.4476
v  -1.2385 3.1530 1.4235
v  -0.3939 3.7983 0.8099
v  -0.2194 3.3619 1.4671
v  0.7582 0.9179 -2.7459
v  0.6017 1.0523 -2.8237
v  1.0068 -3.1317 1.3379
v  1.7509 -2.5632 0.3396
v  1.9849 -2.1489 0.1669
v  1.8231 -1.7443 0.7010
v  0.9993 -3.1173 1.3601
v  0.2781 2.1181 1.9370
v  -1.9849 0.7654 2.1364
v  -0.8303 -0.9115 2.8237
v  -0.0864 -1.7331 -2.4879
v  -0.7758 -2.5066 -1.6473
v  -1.0651 -2.5211 -1.2170
v  -1.9849 0.1071 0.8199
v  0.4167 -1.7331 -2.3245
v  1.4124 -0.7176 -2.2049
v  0.7958 -3.2929 -0.0545
v  -0.3644 -3.3294 -0.3812
v  0.1342 -3.7983 0.4261
v  0.1988 -3.7489 0.7508
v  0.0420 -2.7869 2.1259
# 30 vertices

vn -0.1876 0.7947 -0.5774
vn -0.6071 0.7947 0.0000
vn -0.1876 0.7947 0.5774
vn 0.7044 0.6163 -0.3522
vn 0.8393 -0.2798 0.4663
vn -0.1048 0.3145 0.9435
vn -0.8242 0.1374 -0.5494
vn 0.3035 -0.1876 -0.9342
vn 0.9285 0.3714 0.0000
vn 0.6462 -0.5744 -0.5026
vn 0.1876 -0.7947 -0.5774
vn -0.4911 -0.7947 -0.3568
vn 0.1876 -0.7947 0.5774
vn 0.6071 -0.7947 -0.0000
vn 0.6247 0.0000 0.7809
vn -0.9705 0.2157 -0.1078
vn -0.8427 -0.4815 0.2408
# 17 vertex normals

o stone_5
g stone_5
f 1//1 2//1 3//1 4//1 
f 2//2 1//2 5//2 6//2 7//2 8//2 
f 8//3 7//3 9//3 
f 10//4 11//4 4//4 3//4 
f 12//5 13//5 14//5 15//5 16//5 
f 17//6 9//6 7//6 6//6 18//6 19//6 
f 5//7 1//7 4//7 11//7 20//7 21//7 22//7 23//7 
f 24//8 20//8 11//8 10//8 25//8 
f 25//9 10//9 3//9 2//9 8//9 9//9 17//9 15//9 14//9 
f 24//10 25//10 14//10 13//10 26//10 
f 27//11 21//11 20//11 24//11 26//11 28//11 
f 22//12 21//12 27//12 
f 29//13 12//13 16//13 30//13 
f 28//14 26//14 13//14 12//14 29//14 
f 30//15 16//15 15//15 17//15 19//15 
f 18//16 6//16 5//16 23//16 
f 28//17 29//17 30//17 19//17 18//17 23//17 22//17 27//17 
# 15 polygons - 2 triangles

