# 3ds Max Wavefront OBJ Exporter v0.97b - (c)2007 guruware
# File Created: 10.05.2019 19:09:03

#
# object stone_9
#

v  0.7145 1.2548 2.6634
v  -0.0082 0.0856 2.6634
v  0.6334 -0.9779 2.2414
v  1.8728 -1.0618 1.8218
v  2.7032 -1.2764 0.7486
v  2.8407 -0.5564 0.3254
v  1.6617 1.2548 1.3596
v  -2.2367 -1.6954 -1.3462
v  -1.9248 -1.8789 -2.2638
v  -1.2311 -1.8940 -2.3392
v  2.6548 -1.5297 -0.5177
v  2.7960 -0.7902 -0.6936
v  -1.6119 1.2548 1.9075
v  -1.7977 1.0917 1.8799
v  -2.8407 -0.1252 -0.3799
v  -2.2618 0.0762 -2.4436
v  0.3949 1.8940 1.6798
v  1.1412 1.7890 0.8865
v  1.0832 0.9971 -2.1458
v  1.0648 1.0253 -2.1300
v  0.1436 0.8048 -2.5515
v  -0.4532 0.2453 -2.6634
v  -1.4373 0.5968 -2.5931
v  -1.6585 0.5758 -2.5662
v  0.7803 0.9517 -2.2821
v  -1.0613 1.6706 1.5142
# 26 vertices

vn 0.3035 -0.1876 0.9342
vn 0.7947 0.1876 0.5774
vn -0.0000 -0.9806 0.1961
vn 0.9822 -0.1876 -0.0000
vn -0.3035 0.1876 0.9342
vn -0.5774 -0.5774 0.5774
vn -0.9407 -0.1881 -0.2822
vn 0.4911 0.7947 0.3568
vn 0.7775 0.6047 -0.1728
vn -0.0000 0.1961 -0.9806
vn -0.1098 -0.1098 -0.9879
vn -0.1204 0.9631 -0.2408
vn -0.1876 0.7947 0.5774
vn -0.6470 0.7548 -0.1078
vn 0.4286 -0.2857 -0.8571
vn 0.2545 0.5937 -0.7634
# 16 vertex normals

o stone_9
g stone_9
f 1//1 2//1 3//1 4//1 
f 5//2 6//2 7//2 1//2 4//2 
f 5//3 4//3 3//3 8//3 9//3 10//3 11//3 
f 6//4 5//4 11//4 12//4 
f 2//5 1//5 13//5 14//5 
f 8//6 3//6 2//6 14//6 15//6 
f 8//7 15//7 16//7 9//7 
f 17//8 1//8 7//8 18//8 
f 18//9 7//9 6//9 12//9 19//9 20//9 
f 21//10 22//10 23//10 
f 23//11 22//11 10//11 9//11 16//11 24//11 
f 17//12 18//12 20//12 25//12 21//12 23//12 24//12 26//12 
f 13//13 1//13 17//13 26//13 
f 13//14 26//14 24//14 16//14 15//14 14//14 
f 19//15 12//15 11//15 10//15 22//15 21//15 25//15 
f 19//16 25//16 20//16 
# 14 polygons - 2 triangles

