# 3ds Max Wavefront OBJ Exporter v0.97b - (c)2007 guruware
# File Created: 10.05.2019 19:08:59

#
# object stone_1
#

v  2.1080 -0.8043 -1.2794
v  1.2466 0.9184 -1.9052
v  2.0031 2.0406 -0.4993
v  2.4550 1.0128 -0.2113
v  -1.8920 -0.8043 -2.5791
v  -2.4380 0.2875 -2.1824
v  -2.4550 0.4223 -2.1498
v  -1.4150 1.5630 -2.2587
v  -0.7752 1.0027 -2.5791
v  1.1469 2.5401 -0.3209
v  -1.3865 2.1178 1.1569
v  -1.3865 -0.7266 2.5791
v  -1.1927 -0.8056 2.5217
v  2.3042 0.2229 0.2590
v  1.3278 -1.4004 -0.7125
v  2.1080 -0.8043 -0.7775
v  -0.8847 -2.5381 0.1346
v  -2.0453 2.0080 0.8823
v  -2.1465 1.7045 0.9835
v  -1.4806 -0.7371 2.5372
v  -1.2803 2.1355 -1.6357
v  -1.0242 -2.5401 0.0919
v  -1.5963 -2.2799 0.3001
v  -2.2418 -0.8043 -2.0976
v  -2.2788 1.9691 0.4543
v  -2.3560 1.9563 -0.0221
# 26 vertices

vn 0.7947 0.1876 -0.5774
vn -0.3035 0.1876 -0.9342
vn 0.4082 0.4082 0.8165
vn 0.6071 -0.7947 -0.0000
vn 0.9822 -0.1876 -0.0000
vn 0.5392 -0.6470 0.5392
vn -0.4082 0.4082 0.8165
vn 0.3035 -0.1876 -0.9342
vn 0.2563 0.6835 -0.6835
vn 0.1876 -0.7947 -0.5774
vn -0.1617 -0.8085 0.5659
vn -0.7947 -0.1876 -0.5774
vn -0.8165 0.4082 0.4082
vn -0.4911 -0.7947 -0.3568
vn -0.9733 -0.1622 0.1622
vn -0.1644 0.9864 0.0000
vn -0.6965 0.5970 -0.3980
# 17 vertex normals

o stone_1
g stone_1
f 1//1 2//1 3//1 4//1 
f 5//2 6//2 7//2 8//2 9//2 
f 4//3 3//3 10//3 11//3 12//3 13//3 14//3 
f 15//4 1//4 16//4 
f 16//5 1//5 4//5 14//5 
f 15//6 16//6 14//6 13//6 17//6 
f 11//7 18//7 19//7 20//7 12//7 
f 2//8 1//8 5//8 9//8 
f 2//9 9//9 8//9 21//9 10//9 3//9 
f 22//10 5//10 1//10 15//10 17//10 
f 12//11 20//11 23//11 22//11 17//11 13//11 
f 6//12 5//12 24//12 
f 19//13 18//13 25//13 
f 24//14 5//14 22//14 23//14 
f 6//15 24//15 23//15 20//15 19//15 25//15 26//15 7//15 
f 26//16 25//16 18//16 11//16 10//16 21//16 
f 7//17 26//17 21//17 8//17 
# 14 polygons - 3 triangles

