# 3ds Max Wavefront OBJ Exporter v0.97b - (c)2007 guruware
# File Created: 11.02.2019 18:05:37

#
# object moon
#

v  1.0000 -0.0001 -0.0000
v  0.9659 -0.0001 -0.2588
v  0.8660 -0.0001 -0.5000
v  0.7071 -0.0001 -0.7071
v  0.5000 -0.0001 -0.8660
v  0.2588 -0.0001 -0.9659
v  0.0000 -0.0001 -1.0000
v  -0.2588 -0.0001 -0.9659
v  -0.5000 -0.0001 -0.8660
v  -0.7071 -0.0001 -0.7071
v  -0.8660 -0.0001 -0.5000
v  -0.9659 -0.0001 -0.2588
v  -1.0000 -0.0001 -0.0000
v  -0.9659 -0.0001 0.2588
v  -0.8660 -0.0001 0.5000
v  -0.7071 -0.0001 0.7071
v  -0.5000 -0.0001 0.8660
v  -0.2588 -0.0001 0.9659
v  -0.0000 -0.0001 1.0000
v  0.2588 -0.0001 0.9659
v  0.5000 -0.0001 0.8660
v  0.7071 -0.0001 0.7071
v  0.8660 -0.0001 0.5000
v  0.9659 -0.0001 0.2588
# 24 vertices

vn 0.0000 1.0000 -0.0000
vn 0.0000 1.0000 -0.0000
vn 0.0000 1.0000 -0.0000
vn 0.0000 1.0000 -0.0000
vn 0.0000 1.0000 -0.0000
vn 0.0000 1.0000 -0.0000
vn 0.0000 1.0000 -0.0000
vn 0.0000 1.0000 -0.0000
vn 0.0000 1.0000 -0.0000
vn 0.0000 1.0000 -0.0000
vn 0.0000 1.0000 -0.0000
vn 0.0000 1.0000 -0.0000
vn 0.0000 1.0000 -0.0000
vn 0.0000 1.0000 -0.0000
vn 0.0000 1.0000 -0.0000
vn 0.0000 1.0000 -0.0000
vn 0.0000 1.0000 -0.0000
vn 0.0000 1.0000 -0.0000
vn 0.0000 1.0000 -0.0000
vn 0.0000 1.0000 -0.0000
vn 0.0000 1.0000 -0.0000
vn 0.0000 1.0000 -0.0000
vn 0.0000 1.0000 -0.0000
vn 0.0000 1.0000 -0.0000
# 24 vertex normals

vt 0.7500 1.0000 1.0000
vt 0.7917 1.0000 1.0000
vt 0.8333 1.0000 1.0000
vt 0.8750 1.0000 1.0000
vt 0.9167 1.0000 1.0000
vt 0.9583 1.0000 1.0000
vt 1.0000 1.0000 1.0000
vt 0.7083 1.0000 1.0000
vt 1.0076 1.0000 0.9319
vt 0.9806 1.0000 0.8002
vt 0.9208 1.0000 0.6140
vt 0.8324 1.0000 0.3860
vt 0.7213 1.0000 0.1317
vt 0.5952 1.0000 -0.1317
vt 0.4625 1.0000 -0.3860
vt 0.3324 1.0000 -0.6140
vt 0.2137 1.0000 -0.8002
vt 0.1146 1.0000 -0.9319
vt 0.0417 1.0000 -1.0000
vt 0.0000 1.0000 -1.0000
vt -0.0076 1.0000 -0.9319
vt 0.0194 1.0000 -0.8002
vt 0.0792 1.0000 -0.6140
vt 0.1676 1.0000 -0.3860
# 24 texture coords

o moon
g moon
f 24/8/1 1/1/2 2/2/3 3/3/4 4/4/5 5/5/6 6/6/7 7/7/8 8/9/9 9/10/10 10/11/11 11/12/12 12/13/13 13/14/14 14/15/15 15/16/16 16/17/17 17/18/18 18/19/19 19/20/20 20/21/21 21/22/22 22/23/23 23/24/24 
# 1 polygons

