# 3ds Max Wavefront OBJ Exporter v0.97b - (c)2007 guruware
# File Created: 27.05.2019 22:19:37

#
# object rock
#

v  5.8364 3.3669 3.4739
v  4.0292 -1.6268 5.9757
v  3.7370 -2.9118 6.0827
v  4.1103 -4.1277 4.1649
v  5.8293 -0.7722 0.9158
v  4.8598 3.3669 0.4962
v  4.1101 0.3481 -3.6398
v  -0.0373 5.0891 -2.3600
v  1.4835 5.6402 -0.2493
v  3.4305 3.3669 5.2320
v  2.6906 5.4094 2.4613
v  2.7340 3.7955 5.0461
v  -5.6169 -0.7724 -4.1559
v  -5.4765 -2.2191 -1.6410
v  -1.1355 -0.9907 4.9180
v  4.3862 -0.7019 -3.4413
v  4.1546 -0.0669 -3.7582
v  -0.4926 -5.3328 -2.6070
v  0.6979 -5.6402 -2.0182
v  1.9527 -3.0904 -4.6364
v  1.9182 -3.0704 -4.6660
v  -1.3647 -3.4964 -4.8540
v  -5.6181 1.2342 -12.4805
v  -7.2975 0.6015 -11.4466
v  -8.3257 0.2217 -10.3326
v  -7.7165 0.4998 -7.5685
v  -5.6390 1.2799 -9.0115
v  -5.9350 0.7127 -12.6733
v  -4.5725 -0.4457 -13.0922
v  0.1934 -0.9210 -8.8166
v  1.9963 -3.5137 -9.5724
v  0.3390 -5.0898 -12.7719
v  -2.8361 -2.4219 -13.3077
v  0.7734 -1.1191 -6.8899
v  -2.8361 -11.0646 -7.8075
v  2.9094 -3.3141 -4.7944
v  1.0279 -6.2715 0.1120
v  0.1097 -7.9038 2.5109
v  0.5340 -8.5884 1.4351
v  2.9414 -3.3800 -4.8753
v  2.4900 -2.7956 -4.9071
v  -5.6285 -16.7516 -1.8191
v  -8.3257 -10.1186 -3.7520
v  -6.7047 -7.8338 2.6208
v  -6.6526 -6.7859 2.2051
v  -7.9115 -13.5667 0.4418
v  -7.8831 -13.4993 0.5365
v  -5.7152 -17.1034 -0.9750
v  -5.7543 -17.0875 -0.8742
v  -1.3576 -7.8135 2.6528
v  -0.0386 -7.9545 2.6071
v  -5.2471 -16.5274 -0.5626
v  -5.6575 -17.0748 -0.7653
v  -5.6944 -17.1098 -0.8364
v  -7.9556 -4.2589 3.0429
v  -10.2021 -2.7346 3.0742
v  -10.3989 -2.3084 2.7566
v  -10.2701 -2.2749 2.6225
v  -7.9991 -4.0158 2.8098
v  -7.5785 -3.9710 2.9148
v  -9.6155 2.0764 3.6050
v  -9.7891 2.0012 3.7739
v  -8.2262 2.0433 6.1136
v  -7.9288 2.1188 6.1485
v  -7.1561 2.3983 5.7330
v  -6.5507 2.6919 4.9536
v  -6.7069 2.7406 4.3986
v  -9.2649 -3.0506 6.1658
v  -6.6296 -3.5096 4.5372
v  -7.5508 -3.9524 2.9247
v  -6.5222 -3.3115 3.6420
v  -6.1402 -3.1270 4.3048
v  -8.1968 1.8789 6.2712
v  -5.7106 -2.5129 4.1424
v  -5.8665 2.2277 4.9441
v  -5.1797 -0.4826 4.1320
v  -5.2357 0.6208 4.3302
v  -5.7152 2.1143 4.8375
v  -9.5615 -1.5560 6.5651
v  -9.2817 -3.0381 6.1776
v  -6.0437 2.2985 4.4660
v  -10.6529 -0.1154 3.9204
v  -3.4885 1.7827 -7.6321
v  -2.8969 0.6463 -8.0105
v  -3.2694 -0.4707 -7.2208
v  -3.4176 -0.5986 -7.0019
v  -3.9947 -0.4620 -6.3404
v  -2.2814 1.7827 -7.9465
v  -1.7430 0.6463 -8.3111
v  -2.0557 2.9287 -6.4552
v  -3.5436 1.7827 -6.7043
v  0.8534 -1.5476 -7.6272
v  -3.8669 0.5651 -5.1834
v  -3.9950 -0.4622 -6.3359
v  -1.5126 3.2350 -6.1823
v  -3.5230 0.6461 -4.8267
v  -0.3862 3.4864 -4.9917
v  -0.0602 3.3362 -4.8127
v  0.5573 2.8720 -4.6073
v  0.9349 2.0776 -4.8610
v  1.2638 -1.8206 -7.4643
v  1.4362 -2.3041 -4.1513
v  1.4444 -2.2851 -3.8691
v  1.4124 -2.3119 -3.9219
v  1.3000 -2.0607 -7.1849
v  0.4705 2.8246 -4.4039
v  1.4066 -1.7729 -3.3753
v  1.3461 -1.6705 -3.3188
v  -1.5748 0.0465 -3.8887
v  0.6719 0.3445 -3.2424
v  -8.3956 -4.8417 8.8226
v  -8.4214 -6.1703 8.3427
v  -6.9144 -5.7419 8.6747
v  0.4606 -1.5872 5.3788
v  0.5491 -4.3357 6.1685
v  2.1737 -2.4858 2.9191
v  1.5776 -1.6732 3.6054
v  -9.4478 -1.2169 -3.9852
v  -9.7037 -3.5926 -7.4825
v  -9.9408 -4.0200 -7.5416
v  -11.5411 -5.4046 -5.2498
v  -12.2577 -5.8649 -3.9372
v  -12.4373 -3.7086 0.4659
v  -10.8408 -1.0753 0.4253
v  -4.1547 -1.5376 -6.8351
v  -4.6782 -1.7921 -6.9885
v  -8.8089 -1.1243 4.0620
v  -2.1028 -1.4429 6.0537
v  -10.7124 -5.7936 5.7692
v  2.8156 -3.6016 -1.2853
v  1.2799 -1.7642 -3.2054
v  -2.3773 -1.6275 -6.6571
v  -4.9859 -7.3306 -7.5855
v  -4.6812 -8.0480 -7.1112
v  -11.8213 -6.8407 -3.7406
v  -12.0884 -6.3198 -4.0560
v  -9.8008 -7.8435 6.1502
v  -9.3999 -10.2028 2.5928
v  -0.5312 -11.7558 -1.4585
v  -0.3613 -6.0428 6.9293
v  -0.2992 -11.5922 -2.0817
v  -2.8230 -2.2106 -6.9192
v  -7.3818 1.6544 -9.9679
v  -7.2199 2.9042 -9.1070
v  -4.3589 2.7092 -10.3832
v  -2.6820 2.8653 -10.4446
v  -1.5218 0.9760 -9.7008
v  -0.8687 -1.4548 -8.7438
v  -1.7277 -3.0533 -8.1145
v  -2.1488 -3.3527 -7.9966
v  -2.3350 -3.3700 -7.9898
v  -7.7649 -0.2122 -9.2330
v  -6.1990 -0.5859 -5.7661
v  -7.0685 -1.0244 -6.8798
v  -5.7777 -1.7733 -6.5940
v  -1.9338 -3.1252 -7.8671
v  -0.9247 0.4959 -8.0679
v  -2.6820 3.4480 -8.9644
v  -1.1853 1.2067 -7.5075
v  -2.7246 -0.4188 -5.9968
v  -7.3827 2.6154 -7.5138
v  -7.8821 -0.3805 -7.9860
v  -6.0246 -0.2461 -5.5582
v  -7.2199 3.3108 -8.0743
v  6.0565 5.4981 1.8727
v  6.1652 3.6264 2.5005
v  4.3153 1.5182 1.0748
v  4.3389 3.3774 0.5936
v  6.2605 4.7819 5.4383
v  6.2747 4.6199 5.5921
v  -3.6763 -4.2322 6.5340
v  -4.4460 -3.3647 6.1501
v  -4.8829 -2.5830 5.6314
v  -2.2809 -2.2597 3.5457
v  -1.2151 -2.8643 3.4574
v  -3.7679 -4.1945 6.9552
v  -1.7049 -0.6829 9.4044
v  2.2355 3.0044 10.6482
v  -0.0392 4.1592 11.3820
v  2.8135 2.8207 10.3495
v  -2.6280 -2.7583 8.3085
v  -3.1743 8.0031 7.6599
v  -1.6861 7.4243 9.4267
v  3.3140 3.6305 0.7625
v  4.0772 3.6055 0.5949
v  4.3822 5.8427 1.4843
v  -2.7622 8.3483 7.4259
v  0.0800 9.1601 5.2978
v  2.8445 6.6793 2.1566
v  3.5788 7.7214 4.6879
v  0.3009 9.3390 5.7930
v  -1.2553 8.9838 7.4673
v  -4.2620 3.5409 12.4267
v  -7.1338 -1.3437 11.4958
v  -0.7618 1.5297 12.0401
v  -1.5224 2.8239 12.2878
v  -4.9687 -1.4307 0.5657
v  -2.6500 1.3998 1.0094
v  -1.7549 -1.3473 4.1874
v  -5.5544 -3.7372 1.6996
v  -5.7524 -3.2932 1.1249
v  -7.6339 5.5130 9.5152
v  -8.4559 5.5130 8.9188
v  -9.3921 2.6684 8.9108
v  -7.7887 -1.7409 11.1144
v  -7.6231 -4.0073 3.6422
v  -7.9285 -3.8089 3.5432
v  -6.1638 -3.1735 1.2304
v  -8.0470 -2.1839 10.0483
v  -9.2599 -2.1839 6.3244
v  0.2395 1.7131 11.2682
v  -1.9652 5.3696 3.4407
v  -7.5960 6.0334 7.8957
v  -7.6815 6.0507 8.0315
v  -1.5893 5.4978 4.7756
v  -8.0088 5.9820 8.4846
v  0.1804 2.7822 11.0587
v  -5.2555 -1.5569 0.6752
# 218 vertices

vn 0.9822 -0.1876 -0.0000
vn 0.3484 0.6271 -0.6967
vn 0.7947 0.1876 0.5774
vn 0.4911 0.7947 -0.3568
vn 0.4911 0.7947 0.3568
vn -0.5773 0.5774 0.5774
vn 0.7947 0.1876 -0.5774
vn 0.1231 0.1231 0.9847
vn -0.2673 -0.8018 0.5345
vn 0.3035 -0.1876 -0.9342
vn 0.6247 -0.6247 -0.4685
vn -0.6360 -0.7420 -0.2120
vn -0.2762 0.2762 -0.9206
vn -0.0741 -0.7412 -0.6671
vn -0.3474 0.9327 0.0966
vn -0.7286 0.5675 -0.3836
vn -0.2835 0.3445 -0.8949
vn 0.3727 0.5719 -0.7308
vn 0.3332 0.9354 -0.1180
vn -0.5278 -0.5130 -0.6769
vn 0.9982 0.0083 0.0594
vn 0.6926 0.5959 -0.4064
vn -0.7642 -0.4366 -0.4747
vn -0.8628 0.1280 0.4890
vn -0.9033 -0.4288 0.0099
vn 0.7198 0.5871 0.3704
vn 0.2781 0.3691 0.8868
vn 0.2809 0.8027 0.5261
vn 0.2835 -0.3445 0.8949
vn -0.3727 -0.5719 0.7308
vn -0.3332 -0.9354 0.1180
vn 0.7286 -0.5675 0.3836
vn 0.7320 -0.5574 -0.3916
vn -0.6167 -0.6576 -0.4327
vn 0.0160 -0.6468 -0.7625
vn -0.1998 0.9527 0.2290
vn 0.1957 -0.9178 0.3455
vn 0.5181 -0.8076 -0.2816
vn -0.0160 0.6468 0.7625
vn 0.6361 -0.5987 -0.4867
vn 0.6167 0.6576 0.4327
vn 0.7424 -0.1277 0.6577
vn 0.5057 0.8251 -0.2521
vn 0.5898 0.4118 -0.6947
vn -0.5057 -0.8251 0.2521
vn -0.8134 -0.2431 0.5285
vn -0.8886 0.2533 -0.3824
vn -0.5852 0.3542 0.7294
vn -0.0846 0.1833 -0.9794
vn 0.3706 -0.1693 -0.9132
vn -0.9135 -0.1876 -0.3609
vn -0.5270 0.1876 -0.8289
vn -0.5879 0.7947 0.1514
vn -0.4600 -0.5145 -0.7236
vn -0.9512 0.1876 0.2450
vn -0.3257 0.7947 -0.5123
vn -0.4393 0.6835 0.5830
vn 0.3538 0.4851 -0.7997
vn 0.5879 -0.7947 -0.1514
vn -0.4308 -0.7493 -0.5030
vn -0.3027 -0.9526 0.0312
vn 0.5646 0.7947 0.2230
vn 0.9347 0.1078 -0.3386
vn -0.2758 -0.6247 0.7305
vn 0.0467 -0.1231 0.9913
vn 0.9512 0.2716 0.1463
vn -0.0201 0.3841 0.9231
vn 0.1813 -0.3358 0.9243
vn 0.9554 0.1759 0.2372
vn -0.8687 0.4951 -0.0104
vn -0.3903 0.8114 -0.4351
vn 0.0496 0.7735 0.6319
vn -0.5969 0.4717 0.6490
vn 0.7371 0.6141 -0.2821
vn 0.0448 0.9985 -0.0308
vn -0.6025 -0.6178 -0.5053
vn -0.5155 -0.2139 0.8298
vn 0.2765 -0.8224 0.4971
vn 0.2765 -0.8225 0.4971
vn 0.4181 -0.1897 -0.8884
vn 0.5305 0.2744 0.8020
vn 0.9264 -0.3733 -0.0502
vn -0.1813 0.3358 -0.9243
vn -0.2466 0.1037 -0.9636
vn -0.9554 -0.1759 -0.2372
vn -0.4057 -0.8831 -0.2358
vn -0.8242 -0.3787 0.4210
vn -0.5232 0.5669 -0.6363
vn -0.2851 -0.3663 -0.8857
vn -0.2766 -0.6087 0.7436
vn 0.6671 -0.7394 0.0911
vn 0.8038 0.1330 -0.5798
vn 0.7708 0.4616 -0.4390
vn 0.9261 -0.1845 0.3291
vn -0.5708 0.0370 0.8203
vn -0.2064 0.9259 -0.3165
vn 0.3323 -0.5504 0.7659
vn 0.3706 0.6022 0.7071
vn -0.9561 0.1746 0.2355
vn -0.4952 -0.8687 -0.0100
vn 0.4826 -0.1820 -0.8567
vn 0.9350 0.0417 -0.3521
vn -0.5948 -0.6531 -0.4687
vn -0.7177 -0.6841 0.1301
vn 0.3642 -0.4028 0.8397
vn 0.6930 -0.7209 -0.0043
vn -0.5307 0.0000 0.8476
vn -0.4952 -0.2421 -0.8344
vn -0.0143 0.3223 -0.9465
vn -0.8222 0.2430 -0.5148
vn -0.4540 0.3848 -0.8036
vn 0.1309 0.8575 -0.4975
vn -0.4105 0.9111 -0.0357
vn -0.1585 0.7708 0.6170
vn 0.7177 0.6841 -0.1301
vn 0.4823 -0.5361 0.6928
vn 0.6674 0.6165 0.4178
vn 0.3016 -0.1876 0.9348
vn 0.4591 -0.4575 -0.7616
vn -0.3054 0.1876 0.9335
vn -0.4904 -0.7947 -0.3578
vn -0.4919 -0.7947 0.3558
vn 0.4420 -0.8847 0.1483
vn 0.0002 0.9939 -0.1104
vn 0.3414 0.9117 0.2286
vn 0.7935 0.1876 0.5790
vn 0.8332 0.0000 -0.5530
vn -0.7958 -0.1876 0.5757
vn -0.1888 0.7947 0.5770
vn -0.6849 0.5145 -0.5159
vn -0.5643 -0.1617 -0.8096
vn -0.9266 0.2649 -0.2668
# 132 vertex normals

vt 0.5000 0.6476 20.0000
vt 0.4376 0.4635 20.0000
vt 0.4336 0.4162 20.0000
vt 0.4748 0.3714 20.0000
vt 0.5517 0.4950 20.0000
vt 0.5666 0.6476 20.0000
vt 0.6550 0.5363 20.0000
vt 0.7495 0.7702 20.0000
vt 0.6958 0.8095 20.0000
vt 0.4367 0.6476 20.0000
vt 0.5413 0.7930 20.0000
vt 0.6040 0.8095 20.0000
vt 0.4271 0.6781 20.0000
vt 0.4587 0.7930 20.0000
vt 0.7147 0.7702 20.0000
vt 0.6287 0.4897 20.0000
vt 0.4966 0.4238 20.0000
vt 0.2949 0.4698 20.0000
vt 0.6492 0.4976 20.0000
vt 0.6571 0.5210 20.0000
vt 0.6310 0.2878 20.0000
vt 0.6332 0.2777 20.0000
vt 0.7060 0.4096 20.0000
vt 0.7069 0.4103 20.0000
vt 0.7021 0.3906 20.0000
vt 0.7000 0.0000 20.0000
vt 0.7181 0.0638 20.0000
vt 0.7249 0.1175 20.0000
vt 0.6906 0.1907 20.0000
vt 0.6697 0.1068 20.0000
vt -0.1000 0.0000 20.0000
vt -0.0944 0.0197 20.0000
vt -0.1181 0.0638 20.0000
vt 0.1000 0.0000 20.0000
vt 0.1181 0.0638 20.0000
vt 0.0944 0.0197 20.0000
vt 0.3000 0.0000 20.0000
vt 0.3629 0.2216 20.0000
vt 0.3386 0.3259 20.0000
vt 0.2708 0.3032 20.0000
vt 0.2704 0.1546 20.0000
vt 0.2819 0.0638 20.0000
vt 0.5000 0.0000 20.0000
vt 0.5303 0.1068 20.0000
vt 0.4443 0.2920 20.0000
vt 0.4371 0.2216 20.0000
vt 0.1581 0.1546 20.0000
vt 0.2429 0.3032 20.0000
vt 0.1918 0.5809 20.0000
vt 0.4200 0.4114 20.0000
vt 0.4726 0.5668 20.0000
vt 0.4967 0.6476 20.0000
vt 0.4732 0.6476 20.0000
vt 0.4181 0.4117 20.0000
vt 0.4100 0.2920 20.0000
vt 0.4278 0.3963 20.0000
vt 0.2333 0.5809 20.0000
vt 0.2038 0.9526 20.0000
vt 0.3909 0.6426 20.0000
vt 0.6180 0.6476 20.0000
vt 0.6171 0.6140 20.0000
vt 0.7278 0.8623 20.0000
vt 0.7608 0.8619 20.0000
vt 0.7629 0.8623 20.0000
vt 0.0542 0.9924 20.0000
vt -0.0015 0.9948 20.0000
vt 0.5246 0.6476 20.0000
vt 0.5016 0.6531 20.0000
vt 0.5935 0.9769 20.0000
vt 0.6392 0.8619 20.0000
vt 0.6007 0.9976 20.0000
vt 0.7993 0.9976 20.0000
vt 0.8015 0.9948 20.0000
vt 0.8008 0.9971 20.0000
vt -0.0008 0.9971 20.0000
vt 0.0000 0.9924 20.0000
vt 0.4984 0.6531 20.0000
vt 0.4065 0.9769 20.0000
vt 0.3000 0.6476 20.0000
vt 0.2354 0.4570 20.0000
vt 0.2426 0.4127 20.0000
vt 0.2516 0.4123 20.0000
vt 0.3081 0.6238 20.0000
vt 0.3234 0.6476 20.0000
vt 0.4710 0.1943 20.0000
vt 0.4255 0.1975 20.0000
vt -0.1276 0.4466 20.0000
vt -0.1402 0.4597 20.0000
vt 0.1870 0.4688 20.0000
vt 0.7657 0.4538 20.0000
vt 0.7462 0.4206 20.0000
vt 0.1290 0.6476 20.0000
vt 0.2493 0.8264 20.0000
vt 0.3507 0.8264 20.0000
vt 0.3248 0.6494 20.0000
vt 0.3713 0.7474 20.0000
vt 0.3821 0.8203 20.0000
vt -0.1222 0.4628 20.0000
vt 0.4801 0.8203 20.0000
vt 0.4279 0.7474 20.0000
vt 0.5117 0.7916 20.0000
vt 0.7460 0.5118 20.0000
vt 0.8138 0.4688 20.0000
vt 0.4549 0.7916 20.0000
vt 0.6090 0.6817 20.0000
vt 0.6591 0.6161 20.0000
vt 0.7372 0.5209 20.0000
vt 0.0588 0.5745 20.0000
vt 0.1281 0.6466 20.0000
vt 0.7305 0.4796 20.0000
vt 0.1174 0.3045 20.0000
vt 0.1678 0.1975 20.0000
vt 0.2549 0.1943 20.0000
vt 0.3258 0.6494 20.0000
vt 0.1000 0.6476 20.0000
vt 0.0682 0.5538 20.0000
vt 0.1085 0.4617 20.0000
vt 0.1210 0.4511 20.0000
vt 0.1627 0.4624 20.0000
vt 0.0407 0.6476 20.0000
vt 0.0115 0.5538 20.0000
vt 0.1518 0.8302 20.0000
vt 0.1442 0.6476 20.0000
vt -0.1236 0.3728 20.0000
vt 0.2173 0.5471 20.0000
vt 0.1630 0.4624 20.0000
vt 0.0482 0.8302 20.0000
vt 0.0265 0.8791 20.0000
vt 0.3297 0.8791 20.0000
vt 0.2444 0.5538 20.0000
vt 0.5623 0.9191 20.0000
vt 0.5381 0.9191 20.0000
vt 0.5891 0.8952 20.0000
vt 0.6072 0.8212 20.0000
vt 0.5228 0.7272 20.0000
vt -0.1502 0.3395 20.0000
vt 0.6487 0.2713 20.0000
vt 0.6353 0.2743 20.0000
vt 0.6377 0.2700 20.0000
vt -0.1571 0.3046 20.0000
vt 0.5683 0.2713 20.0000
vt 0.6110 0.8212 20.0000
vt 0.5999 0.8952 20.0000
vt 0.6009 0.8136 20.0000
vt 0.5548 0.3338 20.0000
vt 0.5461 0.2743 20.0000
vt 0.5895 0.7272 20.0000
vt 0.5403 0.2700 20.0000
vt 0.5526 0.3448 20.0000
vt 0.3749 0.4989 20.0000
vt 0.5461 0.5473 20.0000
vt 0.5976 0.8136 20.0000
vt 0.4000 0.3524 20.0000
vt 0.4132 0.3913 20.0000
vt 0.3838 0.4003 20.0000
vt 0.2146 0.3954 20.0000
vt 0.2412 0.4741 20.0000
vt 0.1664 0.4515 20.0000
vt 0.1778 0.4180 20.0000
vt 0.7493 0.1736 20.0000
vt 0.7887 0.3127 20.0000
vt 0.7853 0.3300 20.0000
vt 0.7282 0.3524 20.0000
vt 0.6991 0.3524 20.0000
vt 0.6405 0.2096 20.0000
vt 0.6692 0.1085 20.0000
vt -0.0796 0.3524 20.0000
vt -0.0908 0.3524 20.0000
vt -0.1887 0.3127 20.0000
vt -0.1493 0.1736 20.0000
vt 0.3436 0.1537 20.0000
vt 0.2571 0.3524 20.0000
vt 0.5308 0.1085 20.0000
vt 0.5595 0.2096 20.0000
vt 0.4736 0.3524 20.0000
vt 0.4564 0.1537 20.0000
vt 0.0900 0.5018 20.0000
vt 0.0510 0.4306 20.0000
vt 0.1869 0.3806 20.0000
vt 0.4351 0.5210 20.0000
vt 0.7180 0.5512 20.0000
vt 0.6887 0.3877 20.0000
vt 0.6999 0.3682 20.0000
vt 0.4673 0.4239 20.0000
vt 0.4827 0.5195 20.0000
vt 0.2692 0.7647 20.0000
vt 0.2744 0.5083 20.0000
vt 0.3509 0.7643 20.0000
vt 0.7297 0.5210 20.0000
vt 0.2650 0.3914 20.0000
vt 0.2865 0.7643 20.0000
vt -0.0506 0.3806 20.0000
vt -0.0637 0.3914 20.0000
vt 0.6876 0.3877 20.0000
vt 0.7022 0.5512 20.0000
vt -0.0190 0.5877 20.0000
vt 0.0281 0.6427 20.0000
vt 0.2855 0.6764 20.0000
vt 0.4180 0.6961 20.0000
vt 0.4864 0.5437 20.0000
vt 0.5088 0.3441 20.0000
vt 0.5177 0.1724 20.0000
vt 0.5182 0.1320 20.0000
vt 0.5221 0.1297 20.0000
vt -0.0190 0.4574 20.0000
vt 0.1194 0.3524 20.0000
vt 0.0640 0.3524 20.0000
vt 0.0921 0.2519 20.0000
vt 0.5190 0.1320 20.0000
vt 0.5190 0.1724 20.0000
vt 0.5114 0.1526 20.0000
vt 0.5051 0.3441 20.0000
vt 0.4720 0.5437 20.0000
vt 0.4402 0.4725 20.0000
vt 0.4407 0.4725 20.0000
vt 0.3618 0.6957 20.0000
vt 0.4087 0.5021 20.0000
vt 0.4083 0.5021 20.0000
vt 0.3559 0.3325 20.0000
vt 0.5107 0.1526 20.0000
vt 0.0796 0.5873 20.0000
vt 0.0221 0.4176 20.0000
vt 0.1328 0.3680 20.0000
vt 0.3648 0.6957 20.0000
vt 0.4229 0.6961 20.0000
vt 0.3033 0.6764 20.0000
vt 0.0696 0.6427 20.0000
vt 0.4694 0.1297 20.0000
vt 0.4774 0.5810 20.0000
vt 0.5163 0.4781 20.0000
vt 0.5344 0.5461 20.0000
vt 0.4169 0.6476 20.0000
vt 0.4127 0.6426 20.0000
vt 0.0500 0.1504 20.0000
vt 0.0084 0.2001 20.0000
vt -0.0092 0.2454 20.0000
vt 0.1996 0.2706 20.0000
vt 0.2698 0.2372 20.0000
vt -0.0781 0.2001 20.0000
vt -0.0646 0.1504 20.0000
vt -0.0555 0.1581 20.0000
vt 0.0987 0.3882 20.0000
vt 0.2051 0.5946 20.0000
vt 0.1459 0.6500 20.0000
vt 0.0490 0.1581 20.0000
vt 0.2042 0.2372 20.0000
vt 0.2254 0.5844 20.0000
vt 0.0866 0.2638 20.0000
vt -0.0476 0.8052 20.0000
vt -0.0105 0.2454 20.0000
vt 0.0946 0.3882 20.0000
vt 0.1451 0.6500 20.0000
vt 0.0541 0.8052 20.0000
vt 0.5324 0.5485 20.0000
vt 0.5411 0.5532 20.0000
vt 0.5400 0.6476 20.0000
vt 0.5315 0.5485 20.0000
vt 0.1837 0.2706 20.0000
vt -0.0476 0.8324 20.0000
vt 0.7706 0.8964 20.0000
vt 0.6041 0.7008 20.0000
vt 0.5497 0.8229 20.0000
vt 0.5739 0.7008 20.0000
vt 0.6294 0.8964 20.0000
vt 0.6229 0.9194 20.0000
vt 0.7771 0.9194 20.0000
vt 0.8476 0.8324 20.0000
vt 0.8289 0.8982 20.0000
vt -0.0289 0.8982 20.0000
vt 0.0068 0.8052 20.0000
vt 0.4503 0.8229 20.0000
vt 0.1950 0.5946 20.0000
vt 0.2744 0.5720 20.0000
vt 0.2109 0.3846 20.0000
vt 0.3518 0.4948 20.0000
vt 0.3349 0.5445 20.0000
vt 0.0032 0.3662 20.0000
vt 0.2536 0.4827 20.0000
vt 0.1785 0.3524 20.0000
vt -0.0504 0.2373 20.0000
vt -0.0759 0.2702 20.0000
vt 0.1763 0.6476 20.0000
vt 0.1538 0.6476 20.0000
vt 0.1370 0.5385 20.0000
vt 0.1942 0.3694 20.0000
vt -0.0383 0.2173 20.0000
vt -0.0342 0.2320 20.0000
vt -0.0958 0.2791 20.0000
vt -0.1045 0.2702 20.0000
vt -0.1006 0.2373 20.0000
vt 0.1701 0.3524 20.0000
vt 0.0835 0.3524 20.0000
vt 0.0342 0.2320 20.0000
vt 0.0383 0.2173 20.0000
vt 0.1494 0.3524 20.0000
vt 0.3797 0.5019 20.0000
vt 0.4569 0.6502 20.0000
vt 0.1600 0.6871 20.0000
vt 0.1533 0.6880 20.0000
vt 0.4251 0.6551 20.0000
vt 0.1425 0.6823 20.0000
vt 0.3814 0.5429 20.0000
vt 0.1562 0.6823 20.0000
vt 0.3952 0.4827 20.0000
vt 0.2534 0.3662 20.0000
vt 0.2147 0.3611 20.0000
vt -0.0737 0.2791 20.0000
# 307 texture coords

o rock
g rock
s off
f 1/1/1 2/2/1 3/3/1 4/4/1 5/5/1 
f 6/6/2 7/7/2 8/8/2 9/9/2 
f 2/2/3 1/1/3 10/10/3 
f 11/11/4 1/1/4 6/6/4 9/12/4 
f 12/13/5 10/10/5 1/1/5 11/14/5 
f 9/12/6 8/15/6 13/16/6 14/17/6 15/18/6 12/13/6 11/14/6 
f 16/19/7 17/20/7 7/7/7 6/6/7 1/1/7 5/5/7 
f 3/3/8 2/2/8 10/10/8 12/13/8 15/18/8 
f 3/3/9 15/18/9 14/17/9 18/21/9 19/22/9 4/4/9 
f 17/20/10 16/19/10 20/23/10 21/24/10 
f 20/23/11 16/19/11 5/5/11 4/4/11 19/22/11 
f 18/21/12 14/17/12 13/16/12 22/25/12 
f 22/25/13 13/16/13 8/15/13 7/7/13 17/20/13 21/24/13 
f 19/22/14 18/21/14 22/25/14 21/24/14 20/23/14 
f 23/26/15 24/27/15 25/28/15 26/29/15 27/30/15 
f 23/31/16 28/32/16 24/33/16 
f 23/34/17 29/35/17 28/36/17 
f 23/37/18 30/38/18 31/39/18 32/40/18 33/41/18 29/42/18 
f 23/43/19 27/44/19 34/45/19 30/46/19 
f 33/47/20 32/48/20 35/49/20 
f 36/50/21 37/51/21 38/52/21 39/53/21 40/54/21 
f 36/50/22 40/54/22 31/39/22 30/38/22 34/55/22 41/56/22 
f 25/28/23 24/27/23 28/32/23 29/35/23 33/41/23 35/57/23 42/58/23 43/59/23 
f 44/60/24 45/61/24 26/29/24 25/28/24 43/59/24 46/62/24 47/63/24 
f 46/64/25 43/59/25 42/58/25 48/65/25 49/66/25 
f 37/51/26 36/50/26 41/56/26 
f 45/61/27 44/60/27 50/67/27 
f 51/68/28 38/52/28 37/51/28 41/56/28 34/55/28 27/44/28 26/29/28 45/61/28 50/67/28 
f 52/69/29 51/68/29 50/67/29 44/60/29 47/70/29 53/71/29 
f 53/72/30 47/63/30 46/64/30 49/73/30 54/74/30 
f 54/75/31 49/66/31 48/76/31 
f 39/53/32 38/52/32 51/77/32 52/78/32 
f 53/71/33 54/74/33 48/76/33 42/58/33 35/57/33 32/48/33 31/39/33 40/54/33 39/53/33 52/78/33 
f 55/79/34 56/80/34 57/81/34 58/82/34 59/83/34 
f 60/84/35 55/79/35 59/83/35 
f 61/85/36 62/86/36 63/87/36 64/88/36 65/89/36 66/90/36 67/91/36 
f 68/92/37 55/79/37 69/93/37 
f 69/94/38 55/79/38 60/84/38 70/95/38 71/96/38 72/97/38 
f 64/88/39 63/87/39 73/98/39 
f 72/99/40 71/100/40 74/101/40 
f 75/102/41 66/90/41 65/103/41 
f 69/93/42 72/97/42 74/104/42 76/105/42 77/106/42 78/107/42 75/102/42 65/103/42 64/88/42 73/98/42 79/108/42 80/109/42 68/92/42 
f 81/110/43 67/91/43 66/90/43 75/102/43 78/107/43 
f 78/107/44 77/106/44 81/110/44 
f 56/80/45 55/79/45 68/92/45 80/109/45 
f 56/80/46 80/109/46 79/108/46 82/111/46 57/81/46 
f 62/112/47 61/113/47 58/82/47 57/81/47 82/111/47 
f 62/86/48 82/111/48 79/108/48 73/98/48 63/87/48 
f 70/114/49 60/84/49 59/83/49 58/82/49 61/113/49 67/91/49 81/110/49 77/106/49 76/105/49 
f 70/95/50 76/105/50 74/104/50 71/100/50 
f 83/115/51 84/116/51 85/117/51 86/118/51 87/119/51 
f 84/116/52 83/115/52 88/120/52 89/121/52 
f 90/122/53 83/115/53 91/123/53 
f 85/117/54 84/116/54 89/121/54 92/124/54 
f 93/125/55 91/123/55 83/115/55 87/119/55 94/126/55 
f 88/120/56 83/115/56 90/127/56 95/128/56 
f 95/129/57 90/127/57 91/123/57 93/125/57 96/130/57 97/131/57 
f 88/120/58 95/128/58 97/132/58 98/133/58 99/134/58 100/135/58 101/136/58 92/124/58 89/121/58 
f 102/137/59 103/138/59 104/139/59 
f 86/118/60 85/117/60 92/124/60 101/136/60 105/140/60 
f 86/118/61 105/140/61 102/141/61 104/139/61 94/126/61 87/119/61 
f 99/142/62 98/143/62 106/144/62 
f 107/145/63 103/146/63 102/141/63 105/140/63 101/136/63 100/147/63 
f 96/130/64 93/125/64 94/126/64 104/148/64 103/146/64 107/145/64 108/149/64 109/150/64 
f 109/150/65 108/149/65 110/151/65 
f 110/151/66 108/149/66 107/145/66 100/147/66 99/134/66 106/152/66 
f 109/150/67 110/151/67 106/152/67 98/143/67 97/132/67 96/130/67 
f 111/153/68 112/154/68 113/155/68 
f 114/156/69 115/157/69 116/158/69 117/159/69 
f 118/160/70 119/161/70 120/162/70 121/163/70 122/164/70 123/165/70 124/166/70 
f 125/167/71 126/168/71 119/169/71 118/170/71 
f 127/171/72 111/153/72 128/172/72 
f 124/173/73 123/174/73 129/175/73 111/153/73 127/176/73 
f 117/159/74 116/158/74 130/177/74 131/178/74 
f 114/156/75 117/159/75 131/178/75 132/179/75 125/167/75 118/170/75 124/166/75 127/176/75 128/172/75 
f 121/163/76 120/162/76 133/180/76 134/181/76 135/182/76 136/183/76 
f 112/154/77 111/153/77 129/175/77 137/184/77 
f 113/155/78 112/154/78 137/184/78 138/185/79 139/186/78 140/187/78 
f 141/188/80 134/181/80 133/189/80 142/190/80 132/179/80 131/178/80 130/177/80 
f 115/157/81 114/156/81 128/172/81 111/153/81 113/155/81 140/187/81 
f 130/177/82 116/158/82 115/157/82 140/187/82 139/186/82 141/191/82 
f 126/168/83 125/167/83 132/192/83 142/193/83 
f 119/161/84 126/168/84 142/193/84 133/189/84 120/162/84 
f 122/164/85 121/163/85 136/183/85 
f 135/194/86 134/195/86 141/191/86 139/186/86 138/185/86 
f 136/183/87 135/182/87 138/185/87 137/184/87 129/175/87 123/174/87 122/164/87 
f 143/196/88 144/197/88 145/198/88 
f 143/196/89 145/198/89 146/199/89 147/200/89 148/201/89 149/202/89 150/203/89 151/204/89 152/205/89 
f 153/206/90 154/207/90 155/208/90 
f 150/209/91 149/210/91 156/211/91 
f 148/212/92 147/213/92 157/214/92 
f 157/215/93 147/213/93 146/199/93 158/216/93 159/217/93 
f 148/201/94 157/214/94 159/218/94 160/219/94 156/220/94 149/210/94 
f 161/221/95 162/222/95 154/207/95 153/206/95 163/223/95 
f 158/224/96 146/225/96 145/226/96 144/197/96 164/227/96 
f 163/223/97 153/206/97 155/208/97 151/228/97 150/203/97 156/220/97 160/219/97 
f 161/221/98 163/223/98 160/219/98 159/218/98 158/216/98 164/227/98 
f 162/222/99 161/221/99 164/227/99 144/197/99 143/196/99 152/205/99 
f 152/205/100 151/204/100 155/208/100 154/207/100 162/222/100 
f 165/1/101 166/229/101 167/230/101 168/231/101 
f 166/229/102 165/1/102 169/232/102 170/233/102 
f 171/234/103 172/235/103 173/236/103 174/237/103 175/238/103 
f 172/239/104 171/240/104 176/241/104 
f 177/242/105 178/243/105 179/244/105 
f 176/245/106 171/240/106 175/246/106 167/230/106 166/229/106 170/233/106 180/247/106 181/248/106 
f 182/249/107 173/250/107 172/235/107 176/241/107 181/248/107 177/251/107 179/252/107 183/253/107 
f 167/230/108 175/246/108 174/237/108 184/254/108 185/255/108 168/231/108 
f 186/256/109 165/1/109 168/231/109 185/255/109 
f 184/257/110 174/258/110 173/250/110 182/249/110 187/259/110 188/260/110 189/261/110 
f 186/256/111 185/255/111 184/254/111 189/261/111 
f 190/262/112 165/1/112 186/256/112 189/263/112 188/264/112 191/265/112 
f 191/266/113 188/260/113 187/267/113 192/268/113 
f 192/269/114 187/259/114 182/249/114 183/270/114 
f 169/232/115 165/1/115 190/271/115 
f 178/272/116 177/251/116 181/248/116 180/247/116 
f 191/265/117 192/268/117 183/270/117 179/252/117 178/243/117 180/247/117 170/233/117 169/232/117 190/271/117 
f 193/273/118 194/274/118 195/275/118 196/276/118 
f 197/277/119 198/278/119 199/279/119 200/280/119 201/281/119 
f 194/274/120 193/273/120 202/282/120 203/283/120 204/284/120 205/285/120 
f 206/286/121 207/287/121 208/288/121 201/289/121 200/290/121 
f 209/291/122 210/292/122 207/293/122 206/294/122 
f 205/285/123 209/291/123 206/294/123 200/290/123 199/295/123 211/296/123 195/275/123 194/274/123 
f 212/297/124 213/298/124 214/299/124 215/300/124 
f 215/300/125 214/299/125 216/301/125 202/282/125 193/273/125 196/276/125 217/302/125 
f 217/302/126 196/276/126 195/275/126 211/296/126 
f 215/300/127 217/302/127 211/296/127 199/295/127 198/278/127 212/297/127 
f 210/292/128 209/291/128 205/285/128 204/284/128 
f 203/283/129 202/282/129 216/303/129 
f 213/298/130 212/297/130 198/304/130 197/305/130 218/306/130 
f 218/306/131 197/305/131 201/281/131 208/307/131 
f 204/284/132 203/283/132 216/303/132 214/299/132 213/298/132 218/306/132 208/307/132 207/287/132 210/292/132 
# 103 polygons - 28 triangles

